<?xml version="1.0" encoding="utf-8"?>
<!-- Generator: Adobe Illustrator 25.0.1, SVG Export Plug-In . SVG Version: 6.00 Build 0)  -->
<svg version="1.1" id="Layer_1" xmlns="http://www.w3.org/2000/svg" xmlns:xlink="http://www.w3.org/1999/xlink" x="0px" y="0px"
	 viewBox="0 0 1200 600" style="enable-background:new 0 0 1200 600;" xml:space="preserve">
<style type="text/css">
	.st0{fill:#101006;}
	.st1{fill:#9F182F;}
	.st2{fill:#FFD692;}
	.st3{fill:#FFE181;}
	.st4{fill:#FDFEFE;}
	.st5{fill:#A2152E;}
</style>
<rect class="st0" width="600" height="600"/>
<rect x="600" class="st1" width="600" height="600"/>
<g>
	<path class="st2" d="M1003.2,503.5c-2.2-3.1-4.4-6.1-5.8-9.6c-4.8-12.3-3.4-23.8,4.1-34.6c0.5-0.7,1.1-1.4,1.8-2
		c0.5-0.5,1.3-0.6,1.8-0.3c0.8,0.5,0,1.1-0.3,1.5c-4.2,5.9-5.9,12.5-5.8,19.7c0,2.7,0,5.4,0.1,8c0.3,6.5,3,12.1,6.6,17.3
		C1004.9,503.5,1004,503.5,1003.2,503.5z"/>
	<path class="st2" d="M1131.2,503.5c2.8-4.1,5.5-8.3,6.2-13.4c1-7.1,1.1-14.1-0.3-21.2c-0.7-3.7-2.6-7-4.7-10.2
		c-0.3-0.5-1.3-1.2-0.6-1.8c0.7-0.5,1.7-0.2,2.4,0.6c1.4,1.6,2.5,3.3,3.6,5.1c2,3.6,3.3,7.4,4.2,11.4c0,4.1,0,8.1,0,12.2
		c-1.4,6.4-4.1,12.1-8.3,17.2C1132.9,503.5,1132,503.5,1131.2,503.5z"/>
	<path class="st2" d="M806.5,472.1c-1.2,6.3-2.8,12.5-3,18.8c0,1-0.1,2,0.8,2.8c0.7,0.5,0.4,1-0.3,1.1c-2.2,0.2-4.5,0.2-6.9-0.2
		c1.5-1,2.9-1.9,3.3-3.7c0.3-1.4,0.7-2.8,0.9-4.2c1.2-8.2,2.4-16.5,3.7-24.8c0.1-0.6,0-1.3,0.9-1.9c4.1,8.7,7,17.9,11.2,26.9
		c1.4-2.3,2.2-4.5,3-6.7c2.4-6,5.1-12,7.2-18.1c0-0.1,0.1-0.2,0.2-0.3c0.4-0.6,0.5-1.7,1.4-1.6c0.7,0.1,0.6,1.2,0.8,1.9
		c1.6,9.2,2.6,18.5,4.3,27.7c0.3,1.9,1.2,3.3,2.9,4.5c-2.6,0.7-5,0.5-7.3,0.5c-1,0-1.2-0.5-0.5-1.2c0.8-0.8,1-1.7,0.8-2.6
		c-1.1-6.6-2.2-13.2-3.6-19.9c-1.2,3-2.4,5.9-3.6,8.9c-1.7,4.1-3.4,8.3-5,12.4c-0.1,0.2-0.1,0.3-0.2,0.5c-0.4,0.6-0.7,1.6-1.5,1.5
		c-0.7,0-0.7-1-1-1.6c-2.6-6.3-5.1-12.6-7.7-18.9C807.1,473.4,806.8,472.7,806.5,472.1z"/>
	<path class="st2" d="M1100.5,494.4c3-0.5,2.5-2.7,2.5-4.5c0-7.6,0-15.3-0.1-22.9c0-1.1-0.2-2.3-0.3-3.4c-0.1-1.1-0.5-2.1-1.8-2.3
		c-0.4-0.1-0.9-0.2-0.9-0.7c0-0.5,0.4-0.8,0.9-0.8c2.6-0.1,5.1-0.1,7.7-0.1c0.4,0,0.7,0.2,0.8,0.6c0.2,0.5-0.1,0.9-0.5,1
		c-1.1,0.3-1.5,1.2-1.5,2.2c-0.1,3.9,0,7.7,0,11.6c0,0.3,0.2,0.7,0.4,1.3c1.4-1.5,2.7-2.8,3.9-4.3c1.9-2.3,3.8-4.6,5.6-7
		c0.9-1.2,2.2-2.5,1.2-4.3c-0.3-0.5,0.2-0.9,0.7-1c2-0.1,4-0.3,5.9,0.1c0.4,0.1,0.9,0.1,1,0.6c0.1,0.6-0.5,0.9-0.9,0.9
		c-2.1,0.4-3.4,1.9-4.7,3.4c-2.4,2.8-4.7,5.7-7.1,8.6c-0.6,0.7-0.6,1.2-0.1,1.9c4.3,5.4,8.7,10.8,13,16.2c0.6,0.8,1.5,1.2,2.4,1.4
		c0.4,0.1,0.9,0.2,0.9,0.7c0,0.5-0.3,0.8-0.7,0.9c-2.3,0.5-4.5,0.4-6.8,0.2c-0.4,0-0.8-0.3-0.8-0.8c-0.2-2.2-1.7-3.8-2.9-5.5
		c-2.3-3.4-5.3-6.1-8.1-9.1c-0.6-0.7-1.1-0.8-1.8,0c-0.5,0.6-1,1.2-1,2c0.1,3.3,0,6.5,0.3,9.8c0.1,1.2,0.5,2.1,1.7,2.5
		c0.3,0.1,0.7,0.2,0.7,0.7c0,0.3-0.4,0.5-0.7,0.5C1106.6,494.9,1103.7,495.1,1100.5,494.4z"/>
	<path class="st2" d="M1023.6,475.1c0.9,0.4,1.5,0.7,2.1,1c4.8,2.2,6.7,6.1,5.6,11.2c-1.1,4.8-4.9,7.7-9.9,7.6c-4,0-7.9,0-11.9,0
		c-0.4,0-0.8,0-1.2-0.1c-0.4-0.1-0.7-0.3-0.7-0.7c0-0.4,0.3-0.7,0.6-0.8c2.1-0.5,2.3-2.1,2.4-3.9c0.5-8,0.1-16.1,0.1-24.1
		c0-1.5-0.3-3-1.9-3.8c-0.8-0.4-0.5-0.9,0.2-1.3c0.2-0.1,0.3-0.2,0.5-0.2c4,0.1,8-0.4,12,0.4c3.5,0.7,5.9,2.8,6.4,6.4
		C1028.1,470.4,1027,473.2,1023.6,475.1z M1015.2,484.1C1015.2,484.1,1015.1,484.1,1015.2,484.1c0,2.2,0,4.4,0,6.6
		c0,0.8,0.1,1.5,0.9,2c1.9,0.9,7.4,0.2,8.9-1.3c2.4-2.4,2.6-9.3,0.4-11.9c-2.4-2.8-5.6-3.4-9-3.2c-1,0-1.2,0.6-1.2,1.4
		C1015.2,479.8,1015.2,482,1015.2,484.1z M1017.7,474.3c3.6,0,4.8-0.9,5.6-4.5c0.1-0.5,0.2-0.9,0.3-1.4c0.4-2.7-1.4-5.5-3.9-6.3
		c-2.8-0.9-4.4-0.1-4.6,2.8c-0.2,2.3,0.1,4.6,0.1,6.9C1015.2,474.4,1015.2,474.4,1017.7,474.3z"/>
	<path class="st2" d="M758.7,482.3c-0.6-5.5,0.4-11.1-0.4-16.6c-0.2-1.6-0.2-3.4-2.4-4c-0.8-0.2-0.6-0.8,0.1-1.1
		c0.2-0.1,0.3-0.2,0.5-0.2c4.7,0.1,9.5-0.9,14.2,0c6.4,1.1,9.2,7.5,6.2,13.1c-0.9,1.6-2.2,2.7-3.8,3.4c-1.1,0.5-1.4,1-0.7,2.1
		c2.9,4.1,5.8,8.3,8.7,12.5c0.5,0.7,1.1,1.1,1.8,1.5c0.3,0.2,0.9,0.3,0.7,0.9c-0.1,0.4-0.6,0.6-1,0.7c-1.6,0.3-3-0.2-4.2-1.1
		c-1.4-1.1-2.5-2.4-3.5-3.8c-2.3-3.1-4.7-6.2-6.9-9.4c-1.2-1.7-2.9-1.5-4.5-1.7c-0.7-0.1-0.8,0.6-0.8,1.2c0,3.4,0,6.8,0.1,10.2
		c0,1.4,0.5,2.7,2,3.3c0.3,0.1,0.7,0.3,0.6,0.8c-0.1,0.4-0.5,0.5-0.9,0.5c-2.7,0.1-5.4,0.1-8.1,0.1c-0.2,0-0.5-0.3-0.5-0.4
		c0-0.2,0.2-0.5,0.4-0.5c1.9-0.7,1.9-2.3,2-4C758.6,487.3,758.6,484.8,758.7,482.3z M762.8,469.9c0,1,0,1.9,0,2.9c0,3,0,3,3,3.5
		c3.6,0.6,6-0.5,7.2-3.9c2.1-6.1-1.4-10.8-7.4-10.4c-1.4,0.1-2.3,0.7-2.6,2.2C762.6,466.2,762.9,468,762.8,469.9z"/>
	<path class="st2" d="M678.7,494.2c3-1.1,2.5-3.5,2.4-5.6c-0.1-3.3,0.1-6.6-0.2-9.8c-0.2-1.5-0.8-2-2.2-2c-4.5,0-9,0-13.5,0
		c-1.1,0-1.6,0.4-1.7,1.5c-0.2,4-0.3,8.1-0.2,12.2c0,1.1,0.4,2.1,1.4,2.8c0.4,0.3,1,0.7,0.8,1.3c-0.2,0.6-0.9,0.5-1.5,0.5
		c-1.7,0-3.5,0-5.2,0c-0.4,0-0.9,0.1-1.1-0.4c-0.1-0.4,0.3-0.6,0.5-0.8c1-0.8,1.2-1.9,1.2-3c0-2.9,0-5.7,0-8.6
		c0-5.5,0-11.1-0.1-16.6c0-1.6,0.2-3.4-1.9-4.2c-0.8-0.3-0.2-1,0.4-1c2-0.1,4.1-0.1,6.1,0c0.7,0,0.9,0.6,0.6,1.1
		c-1.8,2.6-1.2,5.5-1.3,8.3c0,5.1-0.8,4.4,4.6,4.5c3.7,0.1,7.3-0.1,11,0c1.4,0,1.9-0.5,1.9-1.9c-0.1-2.5,0-5,0-7.5
		c0-1.3-0.2-2.6-1.6-3.4c-0.3-0.2-0.6-0.5-0.5-0.9c0.1-0.4,0.5-0.6,0.8-0.6c2.3,0.1,4.5,0.1,6.8,0.3c0.7,0.1,0.8,0.8,0.1,1.1
		c-1.5,0.7-1.4,2.1-1.5,3.4c-0.5,8.4-0.2,16.8,0,25.2c0,1.5,0.2,2.9,1.8,3.6c0.3,0.1,0.6,0.4,0.5,0.9c-0.1,0.3-0.4,0.4-0.7,0.4
		c-2.5,0-5,0-7.4,0C678.9,494.5,678.8,494.3,678.7,494.2z"/>
	<path class="st2" d="M920.9,480.6c-1.6,0-3.2,0-4.9,0c-1.2,0-2,0.4-2.6,1.5c-1.2,2.6-2.4,5.2-3.4,7.9c-0.4,1.2-0.5,2.3,0,3.5
		c0.4,1.1,0,1.4-1,1.4c-1.6,0-3.1,0-4.7,0c-0.5,0-1,0-1.2-0.6c-0.1-0.5,0.4-0.7,0.8-0.9c1.9-1.1,3-2.7,4-4.6
		c4.5-9,8.2-18.4,12.9-27.4c0.4-0.8,0.6-2,1.5-2c1.1,0,1.3,1.3,1.6,2.1c3.9,8.7,7.7,17.4,11.6,26.1c1,2.1,2.1,4.1,3.8,5.8
		c0.9,0.9,0.4,1.3-0.5,1.3c-2,0.1-4.1,0.1-6.1,0c-1,0-1.6-0.5-0.6-1.4c0.6-0.6,0.6-1.2,0.3-1.9c-1.4-3.2-2.9-6.4-4.3-9.6
		c-0.4-0.9-1.1-1.3-2.1-1.3C924.3,480.6,922.6,480.6,920.9,480.6z M922,478.3C922,478.3,922,478.3,922,478.3c0.6,0,1.2,0,1.8,0
		c2.3,0,2.5-0.3,1.6-2.3c-1.2-2.7-2.4-5.5-3.6-8.2c-0.1-0.3-0.2-0.8-0.6-0.8c-0.5-0.1-0.6,0.5-0.8,0.8c-1.4,3-2.7,6.1-4.2,9.1
		c-0.5,1.1-0.1,1.6,1,1.6C918.8,478.5,920.4,478.4,922,478.3z"/>
	<path class="st2" d="M734.1,480.6c-1.6,0-3.1,0-4.7,0c-1.3,0-2.2,0.4-2.7,1.6c-1,2.3-2,4.6-3,6.9c-0.6,1.5-1,2.9-0.3,4.5
		c0.3,0.8,0,1.3-0.9,1.3c-1.7,0-3.4,0-5,0c-0.4,0-0.9,0-1-0.5c-0.1-0.5,0.4-0.7,0.7-0.9c2-1.2,3.1-2.9,4.2-5c4.5-8.8,8-18,12.6-26.7
		c0.3-0.6,0.6-1.2,0.9-1.8c0.5-0.9,1-0.9,1.6-0.1c0.3,0.4,0.5,0.8,0.7,1.3c3.9,8.8,7.8,17.6,11.7,26.3c1,2.1,2.2,4.1,3.8,5.8
		c0.2,0.3,0.6,0.5,0.5,0.9c-0.1,0.5-0.6,0.5-1,0.5c-2,0-4.1,0.1-6.1,0c-0.9,0-1.5-0.5-0.6-1.3c0.7-0.7,0.6-1.3,0.3-2.1
		c-1.4-3.1-2.8-6.2-4.1-9.3c-0.5-1.2-1.3-1.6-2.6-1.5C737.4,480.6,735.7,480.6,734.1,480.6z M735.4,478.5c0-0.1,0-0.1,0-0.2
		c0.8,0,1.7-0.1,2.5,0c1.4,0.1,1.6-0.5,1.1-1.6c-1.4-3.1-2.7-6.1-4.1-9.2c-0.5-1.2-1-0.5-1.3,0.2c-1.4,3.1-2.8,6.2-4.2,9.3
		c-0.5,1.1-0.1,1.4,0.9,1.5C732.1,478.5,733.8,478.5,735.4,478.5z"/>
	<path class="st2" d="M1051.2,480.6c-1.7,0-3.4,0-5,0c-1.2,0-1.9,0.5-2.4,1.5c-1.1,2.6-2.3,5.3-3.4,7.9c-0.5,1.1-0.5,2.3,0,3.5
		c0.4,1,0,1.5-1.1,1.4c-1.6,0-3.2,0-4.9,0c-0.4,0-0.9,0-1-0.5c-0.1-0.4,0.3-0.6,0.6-0.8c2.2-1.2,3.4-3.2,4.5-5.4
		c3.5-6.9,6.4-14,9.7-21c1.1-2.3,2.3-4.6,3.5-6.9c0.7-1.4,1.3-1.2,1.9,0c1.3,2.3,2,4.8,3.1,7.2c3.1,6.7,6.1,13.5,9.1,20.3
		c0.9,2,2.1,3.9,3.6,5.6c0.3,0.3,0.8,0.5,0.6,1c-0.2,0.5-0.8,0.5-1.2,0.5c-1.9,0-3.7,0.1-5.6,0c-1.1,0-2-0.3-0.8-1.5
		c0.6-0.6,0.5-1.2,0.2-1.8c-1.4-3.2-2.9-6.4-4.3-9.7c-0.4-0.9-1.1-1.3-2.1-1.3C1054.6,480.6,1052.9,480.6,1051.2,480.6z
		 M1052.4,478.3C1052.4,478.3,1052.4,478.3,1052.4,478.3c0.7,0,1.5,0,2.2,0c1.5,0.2,2-0.3,1.3-1.8c-1.3-2.9-2.6-5.9-3.9-8.8
		c-0.1-0.3-0.2-0.7-0.7-0.7c-0.4,0-0.5,0.5-0.7,0.8c-1.4,3.1-2.8,6.2-4.2,9.3c-0.5,1.1,0,1.4,1,1.4
		C1049,478.5,1050.7,478.4,1052.4,478.3z"/>
	<path class="st2" d="M698.2,485.1c0,1.8,0,3.7,0,5.5c0,1,0.4,1.6,1.5,1.6c2.5,0,5,0,7.6-0.1c1.6-0.1,3.2-0.4,4.3-1.9
		c0.2-0.3,0.5-0.6,0.9-0.4c0.5,0.2,0.3,0.6,0.3,0.9c-0.2,3.1-1.2,4-4.2,4.1c-5.2,0.1-10.4-0.5-15.6,0.2c-0.6,0.1-1.4,0.1-1.6-0.5
		c-0.3-0.8,0.6-0.9,1.1-1.2c1.2-0.7,1.7-1.9,1.7-3.2c-0.1-8-0.2-16.1-0.4-24.1c0-1.8-0.6-3.4-2.2-4.5c-0.3-0.2-0.8-0.5-0.5-1
		c0.2-0.4,0.7-0.5,1.1-0.5c1.1,0,2.3,0,3.4,0.1c4.1,0.4,8.3,0.4,12.4,0.1c0.9-0.1,1.9-0.1,2.4,0.9c0.5,1.1,0.5,2.3,0,3.5
		c-0.2,0.6-0.7,0.3-1,0c-2.9-3-6.7-1.5-10.1-1.7c-0.8-0.1-0.9,0.7-0.9,1.3c0,3.2,0,6.3,0,9.5c0,1.5,0.9,1.9,2.1,1.7
		c2.2-0.3,4.8,0.2,6.2-2.4c0.3-0.6,0.9-0.3,1,0.3c0.1,1.8,0.2,3.6,0.1,5.3c0,1-0.6,1.4-1.3,0.4c-0.9-1.3-2-1.5-3.4-1.3
		c-0.5,0.1-1.1,0-1.6,0c-2.9-0.2-3-0.1-3,2.8c0,0.8,0,1.5,0,2.3C698.3,483.6,698.3,484.4,698.2,485.1
		C698.3,485.1,698.2,485.1,698.2,485.1z"/>
	<path class="st2" d="M845.7,484.7c0,2,0,3.9,0,5.9c0,1.1,0.5,1.7,1.6,1.6c2.6-0.1,5.3,0.1,7.9-0.2c1.5-0.2,2.8-0.5,3.8-1.8
		c0.2-0.3,0.5-0.6,0.9-0.4c0.6,0.2,0.3,0.7,0.3,1.1c-0.4,3.2-1.3,3.9-4.5,3.9c-4.9,0-9.8-0.6-14.7,0.1c-0.6,0.1-1.2,0.2-1.8-0.1
		c-0.5-0.3-0.7-0.8-0.1-1.1c3.3-1.4,2.6-4.4,2.5-6.8c-0.3-6.4-0.1-12.8-0.3-19.1c-0.1-2.5-0.1-4.9-2.5-6.5c-0.2-0.2-0.5-0.4-0.3-0.8
		c0.2-0.4,0.6-0.6,1.1-0.6c1.4,0,2.9,0.1,4.3,0.2c3.8,0.3,7.5,0.4,11.3,0c0.9-0.1,1.9-0.1,2.5,0.7c0.7,1.1,0.6,2.3,0.3,3.5
		c-0.2,0.7-0.7,0.6-1.1,0.2c-2.9-3-6.6-1.5-9.9-1.8c-0.9-0.1-1.1,0.6-1.1,1.3c0,3.2,0,6.3,0,9.5c0,1.5,0.9,1.9,2.1,1.7
		c2.2-0.3,4.8,0.3,6.2-2.3c0.4-0.7,1-0.2,1,0.5c0.1,1.7,0.1,3.4,0.1,5.2c0,0.3-0.1,0.8-0.5,0.9c-0.5,0.2-0.8-0.3-1-0.6
		c-0.7-1.2-1.8-1.4-3.1-1.3c-0.9,0.1-1.9,0-2.9-0.2c-1.3-0.2-2.1,0.1-2,1.7C845.8,481,845.7,482.9,845.7,484.7
		C845.7,484.7,845.7,484.7,845.7,484.7z"/>
	<path class="st2" d="M878.1,474.3c0.2,6.3,1,11.1,4.7,15.1c3.4,3.6,13.4,4.2,16.5-0.9c0.2-0.3,0.4-0.8,0.9-0.7
		c0.5,0.1,0.5,0.6,0.6,1c0.3,1.5,0,2.8-1.5,3.6c-3.1,1.8-6.3,2.4-9.8,2.1c-9.6-1-14.8-8.4-16-16.7c-0.6-4.5,0.4-8.4,2.8-12
		c2.1-3.3,5.2-5,9-5.7c4.3-0.8,8.6-0.7,12.8,0.5c2.2,0.7,3.3,3.4,2.2,5.4c-0.4,0.7-0.8,0.6-1.2,0c-3-4.5-7.4-4.4-12.2-3.9
		c-3.6,0.4-5.5,2.5-7,5.4C878.7,470.1,878,472.7,878.1,474.3z"/>
	<path class="st2" d="M1073.6,475.5c0.1,5.2,1,10,4.8,14c3.4,3.5,13.3,4.1,16.4-1c0.2-0.3,0.4-0.8,0.9-0.7c0.6,0.1,0.5,0.7,0.6,1.2
		c0.3,1.5-0.1,2.6-1.5,3.5c-3.2,1.9-6.5,2.4-10.2,2c-9.3-1-14.7-8.5-15.6-16.8c-0.8-7.1,2.1-13.7,7.8-16.3
		c5.8-2.6,11.8-2.3,17.7-0.4c1.4,0.4,2.1,4.5,1,5.3c-0.6,0.5-0.9,0-1.1-0.4c-2.6-4-6.7-4.5-10.8-3.9c-6.4,0.9-9.9,5.5-10,12
		C1073.6,474.6,1073.6,475,1073.6,475.5z"/>
	<path class="st2" d="M943.3,461c0.3-0.7,0.8-0.8,1.2-0.9c2.5-0.1,4.9-0.3,7.4,0.1c0.5,0.1,1.1,0.1,1.2,0.7c0.1,0.6-0.5,0.7-0.9,1
		c-1.4,0.7-1.9,1.9-1.9,3.4c0,7.8,0,15.6,0,23.4c0,2.9,0.6,3.4,3.5,3.5c3.6,0.2,7.1,0.1,9.8-3.1c-0.1,2-0.6,3.8-1.5,5.5
		c-0.3,0.6-1,0.4-1.7,0.4c-3.9-0.1-7.8-0.6-11.7-0.4c-1.6,0.1-3.1,0-4.7,0c-0.5,0-1.1,0-1.2-0.5c-0.2-0.7,0.5-0.7,0.9-0.8
		c1.2-0.3,1.7-1.1,1.8-2.2c0.2-1.4,0.4-2.8,0.4-4.3c0.1-7.1,0.1-14.2,0.1-21.3C946.2,462.7,945.8,462,943.3,461z"/>
	<path class="st2" d="M967.6,461.1c0.3-0.7,0.7-0.9,1.1-0.9c2.5-0.1,5-0.4,7.5,0.1c0.4,0.1,0.9,0.1,1,0.6c0.1,0.5-0.4,0.7-0.7,0.9
		c-1.7,0.8-2.1,2.3-2.1,3.9c0,7.6-0.1,15.1,0,22.7c0,3.4,0.6,3.7,3.9,3.9c3.2,0.1,6.4,0.1,8.7-2.8c0.1-0.2,0.5-0.3,0.6-0.2
		c0.4,0.1,0.3,0.5,0.2,0.8c-0.4,1.4-0.9,2.9-1.3,4.3c-0.3,0.8-1,0.8-1.6,0.8c-5.4-0.4-10.8-0.5-16.2-0.4c-0.6,0-1.5,0.2-1.6-0.7
		c-0.1-0.7,0.7-0.6,1.2-0.8c1-0.3,1.3-1.1,1.5-2c0.5-2.1,0.4-4.1,0.4-6.2c0.1-6.4-0.1-12.9,0.2-19.3
		C970.6,463.6,970.2,461.6,967.6,461.1z"/>
</g>
<path class="st3" d="M789,357c0-69.7,0-139.3,0-209c1.3-4,4-6.6,8-8c69.7,0,139.3,0,209,0c4,1.4,6.7,4,8,8c0,69.7,0,139.3,0,209
	c-1.3,4-4,6.6-8,8c-69.7,0-139.3,0-209,0C793,363.6,790.3,361,789,357z M870.8,272.8c0,13.3,0,26.7,0,40c0,7,3.8,11.2,9.9,11.3
	c6.5,0.1,10.5-4,10.5-11.2c0.1-26.7,0.1-53.3,0-80c0-6.8-4-11-10.1-11.1c-6.3,0-10.2,4.3-10.3,11.4
	C870.8,246.4,870.8,259.6,870.8,272.8z M973,273.4c0-13.5,0-27,0-40.5c0-6.9-3.9-11.1-10.1-11.1c-6.2,0-10.3,4.1-10.3,10.9
	c-0.1,26.8-0.1,53.6,0,80.5c0,6.8,4.2,10.9,10.4,10.8c6.2-0.1,10-4.2,10-11.1C973.1,299.7,973,286.6,973,273.4z M830,293.2
	c0,6.8-0.1,13.6,0,20.4c0.1,6.1,4,10.2,9.7,10.4c5.9,0.2,10.5-3.5,10.6-9.5c0.3-13.9,0.3-27.9,0-41.9c-0.1-6.3-4.8-10.2-10.8-9.9
	c-5.6,0.3-9.5,4.4-9.6,10.6C829.9,280,830,286.6,830,293.2z M932.2,293.8c0-6.8,0.1-13.6,0-20.4c-0.1-6.4-4.1-10.5-10-10.6
	c-5.8-0.1-10.3,4.1-10.4,10.3c-0.1,13.5-0.1,26.9,0,40.4c0.1,6.7,4.3,10.7,10.6,10.6c5.9-0.1,9.8-4.2,9.8-10.8
	C932.2,306.8,932.2,300.3,932.2,293.8z M891.1,191.1c0-5.9-4-10-9.9-10.1c-5.9-0.1-10.1,4-10.2,9.8c-0.1,6.2,4,10.4,10.2,10.3
	C887.1,201.1,891.1,197.1,891.1,191.1z M932,191c0-5.9-4.1-10-10-10c-5.9,0-10,4-10.1,9.9c-0.1,6.2,4.1,10.3,10.2,10.2
	C928.1,201,932.1,197,932,191z M850.1,231.9c0-5.9-4.1-9.9-10-10c-5.9,0-10,4-10.1,9.9c-0.1,6.1,4.2,10.3,10.3,10.2
	C846.2,242,850.2,237.9,850.1,231.9z M932,231.8c-0.1-5.9-4.2-9.9-10.1-9.9c-6.1,0-10.2,4.3-10,10.5c0.2,5.9,4.4,9.8,10.4,9.6
	C928.2,242,932.1,237.8,932,231.8z M840.1,181c-5.7,0-10,4.4-10.1,10c0,6.1,4.2,10.2,10.4,10.1c5.9-0.1,9.8-4.2,9.7-10.2
	C850,185,846,181,840.1,181z M963.1,181c-5.9-0.1-10.1,3.9-10.2,9.8c-0.1,6,3.7,10.2,9.6,10.4c6.2,0.2,10.5-3.9,10.6-9.9
	C973,185.5,968.8,181.1,963.1,181z"/>
<path class="st4" d="M870.8,272.8c0-13.2,0-26.3,0-39.5c0-7.1,4-11.5,10.3-11.4c6.1,0,10.1,4.2,10.1,11.1c0.1,26.7,0.1,53.3,0,80
	c0,7.1-4.1,11.3-10.5,11.2c-6.1-0.1-9.8-4.3-9.9-11.3C870.8,299.4,870.8,286.1,870.8,272.8z"/>
<path class="st4" d="M973,273.4c0,13.2,0,26.3,0,39.5c0,6.9-3.8,11.1-10,11.1c-6.2,0.1-10.4-4-10.4-10.8c-0.1-26.8-0.1-53.6,0-80.5
	c0-6.8,4.2-10.9,10.3-10.9c6.2,0,10,4.2,10.1,11.1C973.1,246.4,973,259.9,973,273.4z"/>
<path class="st4" d="M830,293.2c0-6.6-0.1-13.3,0-19.9c0.1-6.1,3.9-10.3,9.6-10.6c6-0.3,10.7,3.6,10.8,9.9c0.2,14,0.2,27.9,0,41.9
	c-0.1,6-4.7,9.7-10.6,9.5c-5.7-0.2-9.6-4.3-9.7-10.4C829.9,306.9,830,300.1,830,293.2z"/>
<path class="st4" d="M932.2,293.8c0,6.5,0.1,13,0,19.4c-0.1,6.5-3.9,10.7-9.8,10.8c-6.3,0.1-10.5-3.9-10.6-10.6
	c-0.1-13.5-0.1-26.9,0-40.4c0.1-6.2,4.5-10.5,10.4-10.3c6,0.1,9.9,4.3,10,10.6C932.2,280.2,932.2,287,932.2,293.8z"/>
<path class="st1" d="M891.1,191.1c0,6-4,10-10,10c-6.2,0-10.3-4.1-10.2-10.3c0.1-5.9,4.3-9.9,10.2-9.8
	C887,181,891.1,185.2,891.1,191.1z"/>
<path class="st1" d="M932,191c0,6-4,10-9.9,10.1c-6.2,0.1-10.3-4-10.2-10.2c0.1-5.9,4.2-9.9,10.1-9.9C927.9,181,932,185.1,932,191z"
	/>
<path class="st1" d="M850.1,231.9c0,6-3.9,10.1-9.8,10.2c-6.1,0.1-10.4-4.1-10.3-10.2c0.1-5.9,4.2-9.9,10.1-9.9
	C846,222,850.1,226,850.1,231.9z"/>
<path class="st1" d="M932,231.8c0.1,6-3.9,10.1-9.8,10.2c-6,0.1-10.2-3.8-10.4-9.6c-0.2-6.2,3.9-10.5,10-10.5
	C927.8,221.9,932,226,932,231.8z"/>
<path class="st1" d="M840.1,181c5.9,0,10,4,10.1,9.9c0.1,6-3.8,10.1-9.7,10.2c-6.2,0.1-10.4-4-10.4-10.1
	C830,185.4,834.4,181,840.1,181z"/>
<path class="st1" d="M963.1,181c5.6,0.1,9.9,4.5,9.9,10.2c0,6.1-4.4,10.1-10.6,9.9c-5.9-0.2-9.7-4.4-9.6-10.4
	C953,184.9,957.2,180.9,963.1,181z"/>
<g>
	<path class="st5" d="M115.9,494c-0.4-0.3-1.1-0.2-1.2-0.9c0-0.7,0.7-0.7,1.1-0.8c1.8-0.7,2.5-1.9,2.5-3.8c0-7.8-0.2-15.7-0.6-23.5
		c-0.1-1.3-0.6-2.4-0.9-3.6c-0.1-0.5-0.6-0.8-1.1-1c-0.3-0.1-0.8-0.2-0.7-0.7c0.1-0.5,0.5-0.6,1-0.6c1.3,0,2.5-0.1,3.8-0.1
		c4,0.1,8.1-0.7,12.1-0.2c7.9,1,13.1,3.7,15.1,11.1c1.5,5.9,0.5,11.7-2.4,16.9c-2.2,3.9-6,5.9-10.3,6.9c-0.4,0.1-0.7,0.2-1.1,0.3
		C127.4,494,121.6,494,115.9,494z M142.6,476.2c0-0.3,0-0.6,0-1c-0.1-4.3-0.9-8.4-4.1-11.6c-1-1-2.1-1.8-3.5-2.2
		c-2.5-0.8-5-0.9-7.4-0.7c-3.9,0.3-5.3,0.3-5.2,5.3c0.1,3.2,0.1,6.5,0,9.7c-0.1,2.3,0.2,4.5,0.2,6.8c0,2-0.2,4.2,0.4,6.2
		c0.4,1.4,1.3,2.6,2.8,2.7c2.2,0.2,4.3,0.5,6.5,0.3c3.8-0.3,6.7-2,8.3-5.5C141.9,483.1,142.7,479.7,142.6,476.2z"/>
	<path class="st5" d="M313.6,494c-0.4-0.3-1.1-0.2-1.1-0.9c0-0.6,0.7-0.7,1.1-0.8c1.7-0.7,2.5-1.8,2.5-3.7c0-7.9-0.2-15.8-0.7-23.7
		c-0.1-1.2-0.5-2.3-0.8-3.5c-0.1-0.5-0.6-0.8-1.1-1c-0.3-0.1-0.8-0.2-0.7-0.7c0.1-0.5,0.5-0.6,1-0.6c1.3,0,2.5-0.1,3.8-0.1
		c4,0.1,8-0.4,12.1-0.3c6.7,0.2,13.1,4.3,14.7,10.1c2.1,7.5,1.1,14.7-4.3,20.7c-2.4,2.7-5.7,3.8-9.2,4.5
		C325.1,494,319.3,494,313.6,494z M320.1,471.3C320.1,471.3,320.1,471.3,320.1,471.3c0.1,3.7-0.1,7.4,0.1,11
		c0.1,2.1-0.2,4.2,0.4,6.2c0.4,1.4,1.2,2.7,2.7,2.8c2.3,0.2,4.6,0.6,6.9,0.3c3.5-0.4,6.4-2,7.8-5.2c2.7-6.1,3-12.5,0.8-18.8
		c-0.9-2.5-2.6-4.9-5.2-5.9c-3.4-1.4-7.1-1.5-10.7-0.8c-2.2,0.4-3,1.3-3,3.6C320,466.9,320.1,469.1,320.1,471.3z"/>
	<path class="st5" d="M149.6,494c-0.7-0.4-1.3-0.9-0.2-1.4c2-1,2.3-2.6,2.3-4.6c-0.1-5.4-0.1-10.9-0.2-16.3c0-2.6-0.1-5.1-0.3-7.7
		c-0.1-1.5-0.7-2.6-2-3.5c-0.3-0.2-0.8-0.4-0.7-0.8c0.1-0.5,0.6-0.6,1-0.6c0.8-0.1,1.6-0.1,2.4,0c4.5,0.4,9,0.3,13.5,0.2
		c0.8,0,1.9-0.4,2.4,0.6c0.5,1.2,0.4,2.4,0.1,3.7c-0.1,0.4-0.5,0.4-0.8,0.1c-2-2.4-4.7-2-7.3-2c-0.8,0-1.7,0-2.5,0
		c-0.9,0-1.5,0.4-1.5,1.4c0,3.1,0,6.2,0,9.3c0,1.8,0.2,1.9,2.1,1.9c0.7,0,1.5-0.1,2.2,0c1.7,0.2,3-0.5,3.8-1.9
		c0.2-0.3,0.4-0.7,0.8-0.6c0.4,0.1,0.4,0.6,0.4,0.9c0.1,1.5,0.2,2.9,0.2,4.4c0,0.5,0,1.3-0.6,1.5c-0.6,0.2-0.8-0.5-1.1-0.9
		c-0.3-0.4-0.5-0.8-1-0.9c-2-0.3-4-0.3-5.9-0.2c-0.7,0-0.7,0.6-0.7,1.1c-0.1,3.9-0.2,7.8-0.2,11.7c0,1.7,0.3,1.9,1.9,1.9
		c1.8,0,3.6-0.1,5.4-0.2c0.8,0,1.6,0,2.4-0.1c1.4-0.2,2.7-0.6,3.6-1.8c0.2-0.3,0.5-0.6,0.9-0.5c0.5,0.2,0.3,0.6,0.2,1
		c-0.2,0.8-0.4,1.6-0.6,2.4c-0.3,0.9-1,1.2-1.9,1.3c-2.6,0.3-5.3,0.3-7.9,0.1c-3-0.2-5.9-0.1-8.9,0.4C150.5,494,150.1,494,149.6,494
		z"/>
	<path class="st5" d="M55.1,486.5c0.9-0.5,1.3,0,1.7,0.8c1.6,3.3,6.3,5.1,9.7,3.8c3.6-1.4,4.9-6.7,2.3-9.7c-1.5-1.8-3.5-3-5.5-4.2
		c-1.4-0.9-2.7-1.8-4.1-2.7c-3.6-2.1-4.1-5.9-3.3-9.2c0.8-3.5,3.3-6.5,8-6.4c1.9,0,3.8,0.3,5.7,0.4c1.7,0.1,2.3,1,2.4,2.6
		c0,0.9,0,1.7,0,2.6c0,0.3-0.2,0.7-0.6,0.7c-0.4,0.1-0.6-0.3-0.7-0.6c-1.5-4.6-5.2-4.3-8.6-3.8c-1.6,0.2-3,1.9-3.1,3.7
		c-0.1,2.2,0.3,4.3,2.3,5.6c2.4,1.7,4.8,3.5,7.4,5c3.3,1.9,5.5,4.9,4.7,9.8c-0.6,4-2.7,7.2-6.7,8.2c-4.1,1-8.1,0.5-11.7-2
		C55.1,489.7,55.1,488.1,55.1,486.5z"/>
	<path class="st5" d="M396.1,494c-1.4-0.4-2.9-0.2-4.4-0.3c-0.5,0-1.2,0.1-1.3-0.5c-0.2-0.7,0.5-0.8,1-0.9c0.9-0.2,1.3-0.8,1.3-1.7
		c0.1-3.3,0.2-6.5,0.3-9.8c0.1-1.9-0.1-3.8-0.4-5.7c-0.3-1.9-1.5-3.5-2.3-5.3c-1.1-2.3-2.5-4.4-3.6-6.7c-0.7-1.4-1.9-2.3-3.2-2.9
		c-0.3-0.2-0.8-0.3-0.7-0.8c0.1-0.5,0.6-0.6,1-0.6c2,0.2,4,0.3,5.9,0.5c0.5,0.1,0.8,0.4,0.5,0.9c-0.5,0.8,0,1.5,0.3,2.2
		c1.3,2.5,2.6,5.1,3.9,7.6c0.7,1.4,1,1.4,2,0.3c1.9-2.3,3.8-4.6,5.3-7.1c0.5-0.7,0.8-1.5,0.3-2.3c-0.4-0.8,0.1-1,0.7-1
		c1.6-0.1,3.2,0,4.7-0.2c0.5-0.1,1.1,0.1,1.2,0.7c0.2,0.6-0.2,1.1-0.7,1.2c-2.2,0.6-3.4,2.3-4.8,3.8c-2.2,2.5-4.2,5.1-6.1,7.7
		c-0.7,1-0.9,2.3-0.8,3.4c0.4,4-0.2,7.9-0.1,11.9c0.1,1.6,0.1,3.1,1.8,4c0.3,0.1,0.7,0.5,0.5,0.9c-0.1,0.4-0.6,0.4-0.9,0.5
		c-0.4,0.1-0.8,0.2-1.2,0.2C396.5,494,396.3,494,396.1,494z"/>
	<path class="st5" d="M93,494c-2-0.3-4-0.4-5.9-0.4c-3,0-6,0-9-0.1c-0.4,0-1.1,0-1-0.7c0-0.5,0.6-0.6,1-0.6c1.2-0.2,1.6-1.1,1.9-2.1
		c0.5-2,0.4-4.1,0.4-6.2c-0.1-6.5,0-12.9,0.2-19.3c0-1-0.1-1.9-0.4-2.9c-0.3-0.9-1-1.4-2-1.4c-0.2,0-0.5,0-0.5-0.3
		c0-0.3,0.2-0.4,0.4-0.5c0.3-0.2,0.7-0.4,1-0.4c2.2,0,4.4,0,6.7,0c0.4,0,0.7,0.1,1.1,0.3c0.7,0.3,1,0.7,0.1,1.1
		c-2,0.9-2.2,2.5-2.4,4.4c-0.4,5.9,0.1,11.8-0.2,17.7c-0.1,2.1,0.1,4.2,0.3,6.3c0.1,1.3,0.7,2.1,2.2,2.2c2.6,0.3,5.1,0.3,7.5-0.5
		c1.1-0.4,2.1-1.1,2.8-2c0.2-0.3,0.4-0.8,0.8-0.5c0.4,0.3,0.1,0.7,0,1c-0.5,1.6-0.9,3.2-1.4,4.8C95.2,494,94.1,494,93,494z"/>
	<path class="st5" d="M452.7,494c-3.9-0.5-7.8-0.4-11.8-0.4c-1.2,0-2.3,0-3.5-0.1c-0.4,0-0.8-0.1-0.8-0.6c0-0.5,0.4-0.6,0.8-0.6
		c1.5-0.1,1.8-1.2,2.1-2.4c0.4-2,0.3-3.9,0.3-5.9c0-6.1,0-12.3,0.1-18.4c0-0.9,0.2-1.8,0-2.7c-0.3-1.4-0.7-2.5-2.4-2.6
		c-0.2,0-0.4-0.1-0.4-0.2c-0.1-0.2,0.1-0.4,0.3-0.5c0.4-0.2,0.8-0.4,1.2-0.4c2,0.2,4.1-0.2,6.1,0c0.5,0,1,0.1,1.5,0.3
		c0.7,0.3,0.9,0.8,0.1,1.1c-1.9,0.9-2.2,2.5-2.3,4.3c-0.3,6.7-0.1,13.4-0.1,20c0,1.4,0.2,2.8,0.3,4.3c0.1,0.9,0.5,1.7,1.4,1.9
		c2.9,0.5,5.9,0.7,8.7-0.6c1-0.4,1.8-1.1,2.5-2c0.2-0.2,0.4-0.5,0.7-0.3c0.3,0.2,0.2,0.5,0.1,0.7c-0.7,1.7-0.9,3.5-1.7,5.1
		C454.8,494,453.7,494,452.7,494z"/>
	<path class="st5" d="M457.7,475.6c-0.2-3.6,0.8-7.2,2.8-10.3c2-3.1,4.9-5.1,8.6-5.9c3.7-0.8,7.3-0.8,11,0.2c3.6,1,6.3,3.1,8,6.4
		c3.1,5.9,2.4,11.8-0.1,17.7c-1.2,3-3.1,5.5-5.8,7.4c-2.9,2.1-6.2,3.1-9.7,2.6c-6.3-0.8-10.7-4.3-13.3-10
		C458.1,481.2,457.6,478.6,457.7,475.6z M486.1,475.1c-0.3-1-0.1-2.2-0.3-3.4c-0.6-4-2.1-7.5-6.3-9.1c-1.9-0.7-2.2-0.6-2.2,1.5
		c0,8.1,0,16.2,0,24.3c0,0.4,0,0.7,0.1,1.1c0.1,1,0.5,1.3,1.4,0.8c1.9-1.2,3.7-2.6,4.8-4.6C485.4,482.4,485.8,478.9,486.1,475.1z
		 M470.5,476.6C470.5,476.6,470.5,476.6,470.5,476.6c0-4.3,0-8.6,0-12.9c0-0.5,0.2-1.3-0.7-1.2c-1.2,0.2-2.5,0.3-3.3,1.2
		c-1.9,2-3.3,4.3-3.8,7c-0.6,3.4-0.7,6.8-0.1,10.2c0.6,3.8,2.2,7,5.6,9.1c0.6,0.4,1.2,0.9,1.9,0.6c0.7-0.3,0.4-1.1,0.4-1.7
		C470.5,484.8,470.5,480.7,470.5,476.6z M471.9,491.1c1.2-2.2,1.1-27.4,0-28.8C471.9,471.9,471.9,481.4,471.9,491.1z M476,490.8
		c0-9.7,0-19.1,0-28.6c-0.6,0.4-0.6,0.9-0.6,1.3c-0.6,3.6-0.1,7.1-0.1,10.7c0,4.6,0.1,9.3,0.2,13.9
		C475.4,488.9,475.4,489.7,476,490.8z"/>
	<path class="st5" d="M281.6,467.6c0,2.7,0,5.5,0,8.2c0.1,3.6,0.2,7.2,0.3,10.8c0,1.4,0.2,2.8,0.3,4.1c0.1,1,0.8,1.5,1.6,2
		c0.2,0.1,0.5,0.3,0.5,0.6c0,0.3-0.4,0.4-0.6,0.4c-2.4,0-4.9,0-7.4,0c0.1-0.3,0.1-0.5,0.1-0.5c2.3-0.6,2.5-2.5,2.6-4.4
		c0.1-3.2,0.1-6.4-0.1-9.5c-0.2-4.6-0.1-9.1,0-13.7c0.1-1.7-0.1-3.5-0.2-5.2c0-0.4,0-0.7,0-1.1c0-0.5,0.1-1.1,0.6-1.3
		c0.5-0.2,0.9,0.2,1.2,0.6c1.6,1.5,2.9,3.3,4.3,4.9c3.9,4.7,8,9.2,11.9,13.9c1.9,2.2,3.9,4.4,5.8,6.5c0.2,0.3,0.4,0.7,0.9,0.5
		c0.3-0.1,0.2-0.5,0.2-0.7c-0.3-7.3-0.1-14.6-1-21.9c-0.2-1.3-0.5-2.2-2-2.4c-0.4-0.1-0.8-0.3-0.7-0.8c0.1-0.5,0.5-0.7,0.9-0.6
		c0.8,0,1.6,0.1,2.4,0.2c1.5,0.2,3.1-0.2,4.6-0.2c0.5,0,1.2,0.1,1.4,0.6c0.2,0.6-0.5,0.8-0.9,1c-1.7,1.1-1.9,2.9-1.9,4.6
		c-0.2,7.1-0.1,14.3,0,21.4c0,2.2,0.2,4.4,0,6.6c-0.1,0.5,0,1.1-0.6,1.3c-0.6,0.2-0.8-0.3-1.1-0.7c-3.6-4.1-7.3-8.2-10.9-12.4
		c-3.5-4.1-7.3-8-10.6-12.3c-0.2-0.3-0.4-0.6-0.6-0.9C282,467.4,281.8,467.5,281.6,467.6z"/>
	<path class="st5" d="M186,459.2c1.9-0.2,4.6,0.4,7,2c4.1,2.8,4.5,9.6,0.8,13c-0.9,0.8-1.8,1.6-3,2c-0.8,0.3-0.8,0.7-0.4,1.3
		c2.8,4.6,6.2,8.8,9.1,13.2c0.4,0.6,1.2,0.9,1.8,1.3c0.3,0.2,0.8,0.3,0.7,0.7c-0.1,0.4-0.5,0.5-0.9,0.6c-1.1,0.3-2.1,0-3.1-0.4
		c-2.1-0.9-3.4-2.8-4.8-4.5c-2.4-3.1-4.7-6.3-7-9.5c-0.7-1-3.4-1.9-4.5-1.6c-0.6,0.2-0.7,0.7-0.7,1.2c0,1.4,0.1,2.8,0.2,4.1
		c0.1,2.2-0.4,4.4,0,6.6c0.2,1.3,0.6,2.3,1.9,2.8c0.3,0.1,0.8,0.3,0.7,0.7c-0.1,0.3-0.5,0.4-0.8,0.5c-1.8,0.1-3.7,0.2-5.5,0.3
		c-0.4,0-0.8,0-1.1,0c-0.7-0.1-1.7,0.4-1.9-0.3c-0.3-0.8,0.9-0.7,1.3-1.1c0.7-0.7,1.1-1.4,1.1-2.4c0-7.7,0-15.5,0-23.2
		c0-1.3-0.3-2.6-0.6-3.8c-0.2-0.8-0.5-1.6-1.5-1.8c-0.4-0.1-1.1-0.2-1-0.8c0.1-0.7,0.8-0.7,1.4-0.7
		C178.4,459.7,181.7,459.4,186,459.2z M191.9,468.8c-0.1-0.5-0.2-1-0.2-1.5c0.4-3.8-4.6-7.4-8.8-6.1c-1,0.3-1.6,0.8-1.7,1.9
		c-0.3,3.3-0.2,6.7-0.2,10c0,2.2,0.2,2.2,2.4,2.2c0.4,0,0.8,0.2,1.2,0.1c1.6-0.1,3.4,0,4.7-1.2C191,472.9,191.8,471,191.9,468.8z"/>
	<path class="st5" d="M268.9,493.8c-1,0-2,0-3.1,0c-0.4,0-0.8-0.1-1-0.4c-0.2-0.4,0.2-0.6,0.4-0.8c0.7-0.5,0.7-1.2,0.4-1.8
		c-1.5-3.4-3-6.8-4.6-10.2c-0.4-0.9-1.1-1.1-1.9-1.1c-3.3,0-6.6,0-9.8,0c-1.3,0-2.2,0.5-2.7,1.7c-1.1,2.5-2.3,4.9-3.2,7.5
		c-0.5,1.3-0.6,2.6-0.1,3.9c0.3,0.8,0.2,1.2-0.8,1.2c-1.8,0-3.5,0-5.3,0c-0.4,0-0.8,0-0.9-0.4c-0.2-0.5,0.3-0.6,0.6-0.7
		c1.9-1.1,3.2-2.6,4.2-4.6c3.6-7.2,6.7-14.7,10.2-22c1.1-2.3,2.3-4.5,3.4-6.8c0.6-1.2,1.1-1.2,1.8,0c1.3,2.5,2.2,5.2,3.4,7.7
		c2.6,5.6,5,11.4,7.6,17c1.2,2.5,2.4,5,4,7.3c0.2,0.3,0.5,0.7,0.8,1c0.3,0.3,0.9,0.5,0.8,1c-0.2,0.6-0.9,0.4-1.3,0.4
		C270.8,493.8,269.9,493.8,268.9,493.8C268.9,493.8,268.9,493.8,268.9,493.8z M255.8,477.3c0.7,0,1.5,0,2.2,0
		c1.2,0.1,1.6-0.3,1.1-1.4c-1.4-3.2-2.8-6.3-4.2-9.5c-0.1-0.3-0.2-0.7-0.6-0.6c-0.4,0-0.5,0.4-0.6,0.7c-1.5,3.3-3,6.5-4.4,9.8
		c-0.4,0.9-0.1,1.2,0.9,1.3C252,477.6,253.9,477.2,255.8,477.3z"/>
	<path class="st5" d="M417.9,485c0,1.3,0,2.6,0,3.9c0.1,2,0.5,2.5,2.4,3.2c0.3,0.1,0.7,0.1,0.7,0.5c0.1,0.4-0.3,0.7-0.6,0.9
		c-0.4,0.3-0.8,0.4-1.3,0.4c-2.2,0-4.5,0-6.7,0c-0.5,0-1.3,0-1.4-0.6c-0.1-0.6,0.6-0.7,1-0.9c1.8-0.7,1.8-2.4,1.6-3.7
		c-0.3-2.6-0.1-5.2-0.1-7.9c-0.1-5.2-0.6-10.4-0.4-15.6c0-0.9-0.2-1.8-0.5-2.7c-0.3-0.9-0.7-1.6-1.7-1.8c-0.4-0.1-0.8-0.2-0.7-0.7
		c0.1-0.5,0.4-0.7,0.9-0.7c2.1,0.1,4.2,0.1,6.4,0c1.1,0,2.2,0,3.3-0.1c3-0.3,6.1-0.1,8.8,1.5c3.7,2.2,4.6,7.4,3.9,10.7
		c-0.9,4.3-3.7,6.6-7.9,7.6c-2.1,0.5-4.3,1-6.5,0.7c-1.1-0.1-1.5,0.4-1.4,1.4C417.9,482.4,417.9,483.7,417.9,485
		C417.9,485,417.9,485,417.9,485z M417.6,469.5C417.6,469.5,417.7,469.5,417.6,469.5c0.1,1.6,0.1,3.2,0.1,4.8c0,3.3,0,3.3,3.3,3.5
		c2.6,0.2,6.3-1,7.2-3.4c1-2.7,1.6-5.3,0.6-8.2c-1.3-3.9-3.8-5.8-8-5.6c-2.2,0.1-3.2,1.2-3.2,3.3
		C417.6,465.8,417.6,467.6,417.6,469.5z"/>
	<path class="st5" d="M364.5,493.7c-1.3,0-2.6,0-3.9,0c-0.3,0-0.8,0-0.8-0.5c0-0.4,0.3-0.6,0.6-0.7c2.1-0.6,2.2-2.4,2.1-4
		c-0.3-2.9-0.1-5.8-0.1-8.7c0-2.1-0.3-4.1-0.3-6.2c0-2.8,0-5.5,0-8.3c0-1.1-0.2-2.2-0.6-3.2c-0.3-0.7-0.8-1.2-1.6-1.4
		c-0.4-0.1-0.8-0.2-0.7-0.7c0.1-0.5,0.5-0.7,0.9-0.7c2,0,4.1,0,6.1,0c1.2,0,2.5,0,3.7-0.1c3.5-0.1,7.1-0.1,9.8,2.5
		c2.7,2.6,3.3,5.9,2.7,9.5c-0.8,4.3-3.6,6.8-7.8,7.8c-2.2,0.5-4.4,1-6.7,0.8c-1-0.1-1.4,0.3-1.4,1.4c0,2.8,0,5.5,0.3,8.3
		c0.1,1.4,0.7,2.4,2.2,2.7c0.4,0.1,0.9,0,1,0.6c0,0.6-0.5,0.9-1,1C367.4,494,365.9,493.7,364.5,493.7z M366.2,470.1c0,0,0.1,0,0.1,0
		c0,0.7,0,1.5,0,2.2c0,0.7,0,1.5,0,2.2c0,3.1,0,3.1,3,3.4c4,0.4,7-1.7,8.1-5.5c0.7-2.2,0.4-4.2-0.2-6.4c-1.1-3.8-4.2-5.9-8.2-5.4
		c-2,0.2-2.9,1.4-2.9,3.4C366.3,466,366.2,468,366.2,470.1z"/>
	<path class="st5" d="M501,493.5c0.9-0.6,2.1-0.7,2.6-1.8c0.4-1.1,0.6-2.1,0.6-3.2c0-8.3,0-16.5,0.1-24.8c0-1-0.4-1.4-1.4-1.4
		c-2.8,0.1-5.6,0.1-8.5,0.2c-0.9,0-1.5,0.6-2.3,1c-0.3,0.2-0.7,0.3-1,0.1c-0.4-0.3-0.1-0.7,0-1c0.9-2.8,1-2.8,3.9-2.8
		c8.6,0.1,17.2,0.2,25.7,0.3c1.9,0,2.3,0.4,2.3,2.2c0,2.7,0.1,2.6-2.3,1.4c-1.6-0.8-3.3-1.3-5.1-1.3c-1.9,0-3.8,0-5.7-0.1
		c-0.9,0-1.2,0.3-1.2,1.3c-0.1,4.6-0.3,9.1-0.4,13.7c-0.1,4.1,0,8.1,0,12.2c0,1.7,0.5,3.1,2.4,3.6c0.3,0.1,0.6,0.2,0.6,0.5
		c0,0.4-0.3,0.4-0.6,0.4c-3.2,0-6.4,0-9.6,0C501,493.7,501,493.6,501,493.5z"/>
	<path class="st5" d="M544,483c0.2,5-1.7,8.4-6,10c-2.9,1.1-5.9,0.7-8.9-0.2c-0.3-0.1-0.5-0.2-0.8-0.3c-2.7-1-3.5-2.6-2.7-5.4
		c0.1-0.4,0.3-0.8,0.8-0.9c0.5-0.1,0.8,0.3,0.9,0.7c1.4,4.2,5,4.3,8.5,4.3c2,0,3.4-1.4,4.4-3c1.2-2,0.8-5.5-0.9-7.1
		c-1.8-1.7-3.7-3.2-5.8-4.4c-1.4-0.9-2.8-1.9-4.2-2.8c-2.8-1.7-3.7-5.8-2.4-9.7c1.1-3.3,3.7-5.1,7.2-5.3c2.1-0.1,4.1,0.3,6.1,0.4
		c1.7,0.1,2.4,0.9,2.6,2.7c0.1,0.8,0.1,1.7,0,2.5c0,0.4-0.2,0.8-0.6,0.8c-0.5,0.1-0.6-0.3-0.8-0.7c-1.6-3.6-5.8-5.2-9.3-3.5
		c-1.3,0.6-2.1,1.8-2.3,3.1c-0.2,2.2,0.1,4.3,2,5.7c2.3,1.7,4.5,3.5,7.1,4.9C542.6,477,544,479.4,544,483z"/>
	<path class="st5" d="M214,459c1.7-0.3,3.4,0.3,5.3,0.4c1.7,0.1,2.3,0.9,2.4,2.6c0,0.8,0.1,1.7,0.1,2.5c0,0.4-0.2,0.8-0.6,0.9
		c-0.4,0.1-0.6-0.3-0.8-0.7c-1.8-3.7-5.4-5.1-9.2-3.6c-1.5,0.6-2.4,2-2.5,3.6c-0.1,2.2,0.4,4.3,2.5,5.7c2.5,1.6,4.8,3.4,7.4,5
		c3.8,2.3,5.2,5.2,4.5,9.9c-0.6,4-2.9,6.9-6.8,8c-3.6,0.9-7.3,0.2-10.7-1.4c-0.6-0.3-1-0.7-1-1.4c0-1,0-2,0-3c0-0.5,0.2-0.9,0.7-1
		c0.5-0.1,0.8,0.2,0.9,0.6c1.4,4.3,5.1,4.4,8.7,4.3c2.7,0,5-3.1,4.9-6c-0.1-2.4-1.1-4-3-5.5c-2.7-2.1-5.6-3.8-8.4-5.7
		c-3-2-3.8-6.1-2.6-9.9c1-2.9,3.6-5.4,7.5-5.3C213.5,459,213.6,459,214,459z"/>
	<path class="st5" d="M106.1,493.8c-1.2,0-2.4,0-3.6,0c-0.4,0-0.8,0-0.9-0.4c-0.1-0.4,0.3-0.5,0.5-0.7c1.2-0.8,1.7-2.1,1.7-3.5
		c0.1-4.9,0.2-9.8,0-14.6c-0.2-3.6,0.2-7.3-0.2-10.9c-0.2-1.6-0.7-2.8-2.3-3.2c-0.3-0.1-0.7-0.1-0.6-0.6c0-0.3,0.3-0.6,0.6-0.7
		c0.5-0.3,1.1-0.3,1.6-0.2c1.8,0.1,3.5,0.2,5.3,0c0.4-0.1,0.7,0,1.1,0.1c0.4,0.2,1,0.2,1.1,0.7c0.2,0.6-0.6,0.6-0.9,0.9
		c-1.8,1.4-2,3.3-1.8,5.3c0.4,4.3,0,8.6,0.2,12.8c0.2,3.6,0.2,7.2,0.3,10.8c0,1.3,0.4,2.5,1.9,2.9c0.4,0.1,0.8,0.4,0.8,0.8
		c-0.1,0.6-0.7,0.5-1.1,0.5C108.5,493.7,107.3,493.7,106.1,493.8C106.1,493.7,106.1,493.8,106.1,493.8z"/>
</g>
<g>
	<path class="st1" d="M298.8,326.7c-22.1,1.1-44.1-1.4-66.2-3c-7.4-0.5-12.2-4.2-15-11.7c-10.7-28.1-22-55.9-33.1-83.9
		c-0.5-1.2-0.9-2.4-1.2-3.7c-0.4-1.9-0.4-3.8,1.4-5c1.6-1.1,3.2-0.5,4.7,0.3c15.5,8.2,31,16.4,46.5,24.6c6.4,3.4,12.9,6.5,19.1,10
		c3,1.7,4.5,1,6.2-1.7c10.2-15.4,20.5-30.7,30.9-46c1.1-1.7,2.3-3.4,3.6-4.9c3.2-3.7,6.2-3.6,8.9,0.4c9,13.3,17.9,26.7,26.8,40
		c1.4,2.1,3,4.2,4.4,6.4c5.5,8.3,5.3,8,14.3,3.1c19.9-10.9,40-21.4,60.1-32.1c1.7-0.9,3.5-1.5,5.2-0.1c1.9,1.5,1.7,3.6,0.9,5.6
		c-6.6,17-13.2,34-19.9,51c-4.6,11.7-9.2,23.3-13.7,35.1c-2.7,7.1-7,11.9-15.2,12.5C344.7,325.3,321.9,327.8,298.8,326.7z"/>
</g>
<g>
	<path class="st5" d="M299.4,510.1c0.3,0.5,0.6,1.1,0.8,1.6c1.7,3.8,3.3,7.7,5.1,11.5c0.5,1.1,1,2.2,1.8,3.3
		c0.2,0.3,0.4,0.7,0.7,0.9c0.1,0.1,0.2,0.2,0.2,0.3c-0.1,0.2-0.2,0.2-0.3,0.2c-1.1,0-2.3,0-3.4,0c-0.2,0-0.3,0-0.4-0.2
		c0-0.2,0.1-0.3,0.2-0.3c0.4-0.3,0.4-0.7,0.2-1c-0.7-1.7-1.5-3.3-2.2-5c-0.2-0.4-0.5-0.6-0.9-0.6c-1.8,0-3.5,0-5.3,0
		c-0.6,0-0.9,0.2-1.1,0.7c-0.6,1.3-1.2,2.6-1.7,4c-0.2,0.6-0.4,1.2,0,1.9c0.2,0.3,0.2,0.6-0.3,0.6c-0.9,0-1.8,0-2.8,0
		c-0.2,0-0.4,0-0.4-0.2c-0.1-0.2,0.1-0.3,0.3-0.3c1.1-0.6,1.7-1.4,2.2-2.5c1.7-3.4,3.1-6.9,4.8-10.3c0.7-1.5,1.5-3,2.2-4.4
		C299.1,510.1,299.2,510.1,299.4,510.1z M298.5,519.7C298.5,519.7,298.5,519.7,298.5,519.7c0.7,0,1.3,0,2,0c0.5,0,0.7-0.2,0.4-0.7
		c-0.7-1.6-1.4-3.3-2.1-4.9c-0.1-0.1-0.1-0.3-0.2-0.3c-0.2-0.1-0.3,0.2-0.3,0.3c-0.8,1.7-1.5,3.3-2.3,5c-0.2,0.4-0.1,0.6,0.4,0.6
		C297.1,519.7,297.8,519.7,298.5,519.7z"/>
	<path class="st5" d="M233.5,524.3c0.4-0.3,0.7,0,0.9,0.3c0.8,1.7,3.2,2.6,4.9,1.9c1.8-0.7,2.4-3.5,1.1-4.9
		c-0.8-0.8-1.8-1.5-2.7-2.1c-0.8-0.5-1.5-1-2.3-1.5c-1.5-1.1-1.7-2.6-1.4-4.2c0.3-1.6,1.2-2.8,2.8-3.2c0.7-0.2,1.5-0.2,2.3-0.1
		c0.6,0.1,1.2,0.2,1.8,0.2c0.7,0,1.1,0.4,1.2,1.2c0.1,0.5,0.2,1,0.1,1.4c0,0.2-0.1,0.4-0.3,0.4c-0.2,0-0.3-0.2-0.4-0.4
		c-0.7-1.6-1.7-2.2-3.5-1.9c-1.5,0.2-2.2,0.7-2.4,1.8c-0.1,1,0,2.1,1,2.8c1.2,0.9,2.3,1.8,3.6,2.5c1.9,1,2.9,2.6,2.6,4.8
		c-0.2,2-1.1,3.6-3.2,4.3c-1.6,0.6-3.3,0.4-4.9-0.3c-0.4-0.2-0.9-0.3-1.2-0.7C233.5,525.8,233.5,525,233.5,524.3z"/>
	<path class="st5" d="M314,516.4c-0.3,1.8-0.6,3.7-0.9,5.5c-0.2,1.4-0.4,2.8-0.4,4.2c0,0.5,0,1,0.6,1.3c0.1,0.1,0.2,0.2,0.1,0.3
		c-0.1,0.1-0.2,0.2-0.3,0.2c-1.1,0-2.3,0-3.4,0c0-0.2,0.1-0.3,0.2-0.3c0.9-0.4,1.3-1,1.5-1.9c0.5-2.2,0.8-4.5,1.1-6.7
		c0.4-2.5,0.6-5.1,1.1-7.7c0-0.3,0-0.5,0.3-0.7c0.3,0.1,0.3,0.3,0.4,0.5c1.2,2.8,2.3,5.7,3.4,8.5c0.5,1.3,1.2,2.5,1.6,3.8
		c0.1,0.2,0.1,0.5,0.4,0.4c0.2,0,0.2-0.3,0.3-0.4c1.6-3.7,3.2-7.4,4.6-11.3c0.2-0.5,0.4-0.9,0.6-1.4c0.1-0.1,0.2-0.3,0.4-0.3
		c0.2,0,0.2,0.2,0.2,0.4c0.3,1.3,0.5,2.6,0.7,3.9c0.6,3.6,1,7.3,1.7,10.9c0.1,0.8,0.5,1.3,1.1,1.7c0.1,0.1,0.3,0.1,0.2,0.3
		c-0.1,0.2-0.2,0.2-0.4,0.2c-1.1,0-2.2,0-3.3,0c-0.1,0-0.3,0-0.4-0.1c-0.1-0.2,0.1-0.3,0.2-0.4c0.5-0.4,0.5-1,0.4-1.6
		c-0.5-3.1-1.1-6.1-1.6-9.2c0-0.2-0.1-0.4-0.2-0.7c-0.2,0.4-0.3,0.7-0.4,0.9c-1.3,3.3-2.7,6.5-4,9.8c-0.1,0.3-0.3,0.6-0.5,0.9
		c-0.1,0.1-0.2,0.4-0.4,0.4c-0.2-0.1-0.2-0.3-0.3-0.5c-1.4-3.4-2.7-6.7-4.1-10.1c-0.1-0.3-0.3-0.6-0.4-0.9
		C314.1,516.4,314.1,516.4,314,516.4z"/>
	<path class="st5" d="M265.4,522.9c0,0.8,0,1.7,0,2.5c0,0.8,0.2,1.4,1.1,1.8c0.1,0.1,0.3,0.1,0.2,0.3c0,0.2-0.2,0.2-0.3,0.2
		c-0.6,0.3-1.1,0-1.7,0.1c-0.8,0.1-1.5,0-2.3,0c-0.2,0-0.4,0.1-0.4-0.1c-0.1-0.2,0.1-0.3,0.3-0.3c0.8-0.3,1-0.9,1-1.7
		c0-3.4,0-6.8,0-10.2c0-1,0-2-0.3-3c-0.1-0.5-0.3-0.9-0.9-1.1c-0.2,0-0.4-0.1-0.4-0.3c0-0.2,0.2-0.3,0.4-0.3c0.3,0,0.5-0.1,0.8-0.1
		c1.6,0,3.3-0.1,4.9-0.1c2.8-0.1,5.3,1.4,5.2,4.8c-0.1,1.6-1,2.8-2.5,3.6c-0.8,0.4-0.8,0.4-0.3,1.2c1.3,2.1,2.9,4.1,4.3,6.2
		c0.3,0.4,0.6,0.6,1.1,0.8c0.4,0.2,0.3,0.4,0,0.5c-0.5,0.3-1,0.2-1.5,0c-0.6-0.2-1.2-0.7-1.6-1.2c-1.5-1.8-2.9-3.8-4.3-5.7
		c-0.7-0.9-1.5-1-2.4-1.1c-0.4,0-0.3,0.3-0.3,0.5C265.3,521.1,265.3,522,265.4,522.9C265.3,522.9,265.3,522.9,265.4,522.9z
		 M265.3,515.8C265.3,515.8,265.3,515.8,265.3,515.8c0,0.3,0,0.5,0,0.8c0,0.3-0.1,0.5,0,0.7c0.2,1.2-0.1,1.3,1.2,1.3
		c0.1,0,0.2,0,0.3,0c1.9,0.3,3.1-0.2,3.6-2c0.7-2.4,0.1-4.6-2.8-5.2c-1.7-0.3-2.4,0.1-2.4,1.7C265.4,514.1,265.3,514.9,265.3,515.8z
		"/>
	<path class="st5" d="M282.1,527.9c-1.5,0-2.9-0.1-4.4,0.1c-0.2,0-0.4,0-0.6-0.1c-0.3-0.1-0.3-0.4,0-0.5c1.1-0.5,1.3-1.4,1.2-2.5
		c-0.1-3.1-0.1-6.2-0.1-9.3c0-0.8-0.1-1.6-0.1-2.5c0-0.8-0.4-1.5-1.1-2c-0.1-0.1-0.4-0.2-0.3-0.4c0.1-0.2,0.3-0.3,0.5-0.3
		c0.5,0,1.1,0,1.6,0c2.1,0.1,4.3,0.1,6.4,0c0.4,0,1-0.1,1.2,0.3c0.3,0.6,0.2,1.3,0,1.9c-0.1,0.2-0.3,0.1-0.4,0c-0.8-0.9-1.8-1.1-3-1
		c-0.7,0-1.4,0-2.1,0c-0.4,0-0.6,0.1-0.6,0.6c0,1.4,0,2.8,0,4.2c0,0.3,0.1,0.7,0.1,1c0,0.4,0.2,0.5,0.6,0.5c0.8,0,1.5-0.1,2.3-0.2
		c0.5-0.1,0.8-0.4,1.1-0.8c0.1-0.2,0.2-0.4,0.4-0.4c0.3,0.1,0.2,0.3,0.2,0.5c0.2,0.8,0.1,1.6,0.1,2.3c0,0.2,0,0.5-0.3,0.6
		c-0.2,0-0.4-0.2-0.5-0.4c-0.2-0.5-0.6-0.6-1.1-0.6c-0.7,0-1.5,0-2.2-0.1c-0.5,0-0.7,0.1-0.7,0.6c0,1.4,0,2.8,0,4.2
		c0,0.6,0,1.2-0.1,1.8c0,0.4,0.2,0.6,0.6,0.7c0.3,0,0.6,0.1,1,0.1c1.1,0,2.1-0.1,3.2-0.1c0.8-0.1,1.5-0.2,2-0.9
		c0.1-0.2,0.3-0.4,0.5-0.2c0.2,0.1,0.1,0.3,0.1,0.5c-0.1,0.4-0.2,0.8-0.3,1.2c-0.1,0.4-0.4,0.6-0.8,0.6c-0.8,0.2-1.6,0.1-2.3,0.1
		C283.5,527.9,282.8,527.9,282.1,527.9z"/>
	<path class="st5" d="M249.3,527.9c0-0.2,0.1-0.3,0.2-0.3c1.2-0.3,1.4-1.1,1.4-2.1c0-3,0.1-5.9,0.1-8.9c0-1.2,0.1-2.3,0-3.5
		c0-1-0.2-1.1-1.2-1.1c-1.2,0-2.3,0.1-3.5,0.1c-0.5,0-1,0.3-1.4,0.5c-0.2,0.1-0.4,0.2-0.6,0c-0.2-0.2,0-0.3,0-0.5
		c0-0.1,0.1-0.2,0.1-0.3c0.5-1.3,0.5-1.2,1.9-1.1c1.4,0.1,2.7,0.1,4.1,0.1c2.3,0,4.7,0.1,7,0.1c0.7,0,1.4,0,2.1-0.1
		c0.5,0,0.8,0.2,0.8,0.6c0.1,0.5,0.1,1,0,1.6c0,0.3-0.2,0.3-0.4,0.1c-1.9-1.4-4.1-1-6.3-1.2c-0.3,0-0.6,0.2-0.6,0.5
		c0,4.4-0.2,8.7-0.2,13.1c0,0.9,0.2,1.6,1.2,1.8c0.1,0,0.3,0.1,0.3,0.3c0,0.1-0.1,0.2-0.3,0.2C252.6,527.9,251,527.9,249.3,527.9z"
		/>
	<path class="st5" d="M354.7,527.9c0.1-0.3,0.2-0.3,0.4-0.3c0.9-0.3,1.2-0.7,1.3-1.7c0.2-2.7,0.1-5.4,0.1-8.2c0-1.5,0-3,0-4.5
		c0-1-0.1-1.2-1.1-1.1c-1.2,0-2.4,0.1-3.6,0.1c-0.5,0-1,0.3-1.4,0.5c-0.2,0.1-0.3,0.2-0.5,0c-0.2-0.2,0-0.3,0-0.5
		c0-0.1,0-0.1,0.1-0.2c0.6-1.4,0.5-1.3,2.1-1.2c1.5,0.1,3,0,4.5,0.1c1.5,0,3,0.1,4.5,0.1c1.4,0,2.7,0,4.1,0c0.5,0,0.8,0.2,0.8,0.7
		c0,0.5,0,0.9,0,1.4c0,0.3-0.1,0.4-0.4,0.2c-1.9-1.4-4.1-1-6.2-1.1c-0.3,0-0.5,0.1-0.5,0.5c-0.1,4.3-0.2,8.6-0.2,13
		c0,0.9,0.1,1.8,1.2,2c0.1,0,0.3,0.1,0.2,0.3c0,0.1-0.2,0.1-0.3,0.1C358,527.9,356.4,527.9,354.7,527.9z"/>
	<path class="st5" d="M333.4,510.5c0.7,0,1.4-0.1,2,0.1c0.2,0,0.4,0.1,0.4,0.3c0.1,0.2-0.2,0.3-0.3,0.4c-0.8,0.4-1,1-1,1.8
		c-0.2,3.5-0.1,6.9-0.1,10.4c0,0.7,0.1,1.5,0.1,2.2c0,0.4,0.2,0.8,0.7,0.9c1.5,0.2,3,0.4,4.4-0.3c0.4-0.2,0.8-0.5,1.1-0.8
		c0.1-0.1,0.2-0.4,0.4-0.3c0.2,0.1,0.1,0.3,0,0.5c-0.2,0.6-0.4,1.3-0.6,1.9c-0.1,0.4-0.3,0.5-0.7,0.5c-0.7,0-1.3-0.1-2-0.1
		c-2-0.1-4.1-0.1-6.1,0c-0.1,0-0.3,0-0.4,0c-0.2-0.1-0.6,0-0.6-0.3c0-0.3,0.3-0.3,0.6-0.4c0.5-0.1,0.7-0.4,0.8-0.9
		c0.3-1.1,0.2-2.2,0.2-3.3c0-3,0-6,0-9c0-0.6,0.1-1.2,0-1.8c-0.2-0.5-0.4-1-1-1c-0.1,0-0.3,0-0.3-0.2c0-0.2,0.2-0.3,0.3-0.3
		C332,510.3,332.7,510.5,333.4,510.5z"/>
	<path class="st5" d="M345.4,527.9c-0.6,0-1.2,0-1.8,0c-0.2,0-0.4,0-0.5-0.2c-0.1-0.2,0.1-0.3,0.3-0.3c0.6-0.4,0.8-1,0.8-1.7
		c-0.1-2,0-4,0-5.9c0-2.3-0.1-4.5-0.1-6.8c0-0.9-0.3-1.6-1.2-1.8c-0.5-0.1-0.3-0.4-0.1-0.6c0.3-0.2,0.6-0.2,1-0.2
		c0.8,0.1,1.7,0.2,2.5,0c0.2,0,0.4,0,0.6,0.1c0.2,0.1,0.5,0.1,0.5,0.4c0,0.3-0.3,0.3-0.4,0.4c-0.8,0.5-1,1.4-0.9,2.2
		c0.1,2.5,0.1,4.9,0.1,7.4c0,1.7,0.1,3.3,0.1,5c0,0.6,0.2,1.1,0.9,1.3c0.2,0.1,0.5,0.2,0.4,0.5c0,0.3-0.3,0.2-0.6,0.2
		C346.6,527.9,346,527.9,345.4,527.9z"/>
</g>
<g>
	<path class="st2" d="M864,528.1c2-0.8,2.1-1,2.1-3.2c0-3.7-0.2-7.5-0.3-11.2c0-1-0.2-1.9-0.5-2.8c-0.1-0.3-0.3-0.5-0.6-0.7
		c-0.2-0.1-0.6-0.1-0.5-0.5c0.1-0.3,0.4-0.4,0.7-0.4c0.6,0,1.2,0,1.7,0c2.2,0,4.4-0.4,6.7-0.1c3.2,0.3,6.2,1.3,7.8,4.4
		c0.9,1.7,1.1,3.5,0.9,5.4c-0.1,1.6-0.4,3.2-1.1,4.6c-1.1,2.5-3.1,3.9-5.6,4.7c-0.3,0.1-0.6,0.2-0.9,0.3c-3.3,0-6.6,0-9.9,0
		C864.1,528.7,863.9,528.6,864,528.1z M879.3,518.7c0.1-1.6-0.1-3-0.6-4.4c-0.6-1.4-1.4-2.8-2.9-3.4c-1.9-0.8-3.9-0.8-5.9-0.4
		c-1.2,0.2-1.6,0.7-1.6,2c0,2-0.1,4.1,0,6.1c0.1,2.1,0.1,4.2,0.2,6.3c0,0.6,0.2,1.2,0.5,1.6c0.3,0.4,0.7,0.7,1.2,0.8
		c1,0.1,1.9,0.1,2.9,0.1c2.8,0.2,4.8-1.5,5.5-3.7C879,522.1,879.5,520.4,879.3,518.7z"/>
	<path class="st2" d="M932,528.6c-1.3,0-2.6,0-3.9,0c-0.2,0-0.5,0-0.5-0.2c0-0.2,0.2-0.2,0.4-0.3c0.5-0.3,0.8-0.7,0.8-1.3
		c0-2.5,0-4.9-0.1-7.4c0-0.6-0.5-0.7-0.9-0.7c-2.5,0-5-0.1-7.5,0c-1.2,0.1-1.2,0.1-1.2,1.3c0,1.9,0,3.9,0,5.8c0,0.8,0.1,1.6,0.9,2.1
		c0.2,0.1,0.4,0.3,0.3,0.6c-0.1,0.2-0.3,0.2-0.5,0.2c-1.1,0-2.2,0-3.3,0c-0.2,0-0.4,0.1-0.5-0.2c0-0.2,0.2-0.3,0.3-0.4
		c0.6-0.4,0.8-1.1,0.8-1.7c0-4.5,0-9,0-13.6c0-0.6-0.2-1.2-0.3-1.9c-0.1-0.4-0.3-0.7-0.7-0.7c-0.2,0-0.4-0.1-0.4-0.3
		c0-0.2,0.2-0.3,0.4-0.4c0.1,0,0.2,0,0.3,0c0.9,0.1,1.9,0.1,2.8,0c0.6,0,0.8,0.3,0.4,0.8c-0.3,0.5-0.5,1-0.5,1.5
		c-0.1,1.6-0.1,3.2-0.2,4.8c0,0.5,0.2,0.7,0.7,0.7c2.8,0.2,5.5-0.1,8.3,0c0.4,0,0.6-0.2,0.6-0.6c0.1-1.8,0.2-3.7-0.1-5.5
		c-0.1-0.4-0.3-0.7-0.7-0.9c-0.3-0.1-0.5-0.3-0.4-0.6c0.1-0.3,0.3-0.3,0.6-0.3c1.4,0.1,2.8-0.1,4.1,0.3c0,0.1,0,0.2,0,0.3
		c-1,0.3-1.2,1.1-1.2,2c0,0.5,0,1.1,0,1.6c-0.3,4.3-0.1,8.6,0,12.9c0,0.8,0.3,1.3,1.2,1.4C932,528.1,932,528.3,932,528.6z"/>
	<path class="st2" d="M892.1,509c0.4,0.5,0.7,1.1,0.9,1.7c1.8,4.3,3.7,8.5,5.6,12.7c0.6,1.2,1.1,2.5,1.9,3.6c0.2,0.3,0.5,0.7,0.8,1
		c0.1,0.1,0.3,0.2,0.2,0.4c-0.1,0.2-0.3,0.2-0.5,0.2c-1.2,0-2.3,0-3.5,0c-0.2,0-0.4,0-0.5-0.2c-0.1-0.2,0.1-0.3,0.2-0.4
		c0.4-0.3,0.4-0.7,0.2-1.1c-0.8-1.8-1.6-3.6-2.4-5.5c-0.2-0.5-0.6-0.7-1.1-0.7c-1.8,0-3.7,0-5.5,0c-0.6,0-1.1,0.2-1.3,0.8
		c-0.7,1.5-1.4,3-2,4.6c-0.2,0.6-0.2,1.2,0.1,1.8c0.2,0.4,0.1,0.7-0.4,0.6c-0.9,0-1.9,0-2.8,0c-0.2,0-0.5,0-0.6-0.2
		c-0.1-0.3,0.2-0.3,0.4-0.4c1-0.6,1.7-1.4,2.2-2.5c2-4.1,3.8-8.3,5.7-12.4c0.6-1.4,1.4-2.8,2.1-4.1C891.9,509,892,509,892.1,509z
		 M889.7,519.7c1.1-0.2,2.3-0.1,3.5-0.1c0.8,0,0.9-0.1,0.6-0.9c-0.7-1.7-1.5-3.5-2.3-5.2c-0.1-0.2-0.1-0.4-0.3-0.4
		c-0.2,0-0.3,0.2-0.3,0.4c-0.7,1.6-1.5,3.3-2.2,4.9C888.2,519.6,888.3,519.7,889.7,519.7z"/>
	<path class="st2" d="M908.7,509.4c1-0.2,2,0.2,3,0.2c0.8,0,1.2,0.5,1.3,1.3c0.1,0.5,0.2,1.1,0,1.6c-0.1,0.2-0.1,0.3-0.3,0.4
		c-0.2,0-0.3-0.1-0.3-0.3c-1.1-2.1-2.1-2.6-4.3-2.3c-1.4,0.2-2.2,1.3-2.1,2.7c0.1,1.3,0.7,2.1,1.6,2.8c1.4,1.1,3.1,2,4.5,3.1
		c1.6,1.2,2.1,3,1.7,4.9c-0.4,2.1-1.5,3.7-3.6,4.3c-2,0.6-4,0.2-5.9-0.7c-0.4-0.2-0.6-0.5-0.6-1c0-0.5,0-1,0-1.5
		c0-0.3,0.1-0.5,0.4-0.6c0.3-0.1,0.4,0.1,0.6,0.4c1.1,1.9,2.9,2.8,5,2.3c1.6-0.3,2.7-2.2,2.3-4c-0.1-0.7-0.4-1.2-0.9-1.7
		c-0.9-0.8-1.9-1.5-2.9-2.2c-0.7-0.5-1.5-1-2.2-1.5c-1.8-1.1-2.2-2.8-1.8-4.8c0.3-1.7,1.2-3,2.9-3.6
		C907.5,509.4,908.1,509.5,908.7,509.4z"/>
</g>
</svg>
