<?xml version="1.0" encoding="utf-8"?>
<!-- Generator: Adobe Illustrator 25.0.1, SVG Export Plug-In . SVG Version: 6.00 Build 0)  -->
<svg version="1.1" id="Layer_1" xmlns="http://www.w3.org/2000/svg" xmlns:xlink="http://www.w3.org/1999/xlink" x="0px" y="0px"
	 viewBox="0 0 1200 600" style="enable-background:new 0 0 1200 600;" xml:space="preserve">
<style type="text/css">
	.st0{fill:#1F211E;}
	.st1{fill:#FEF5CC;}
	.st2{fill:#FCB600;}
	.st3{fill:#2C2221;}
	.st4{fill:#261E14;}
	.st5{fill:#989A99;}
	.st6{fill:#C01C2D;}
	.st7{fill:#999B9A;}
</style>
<rect class="st0" width="600" height="600"/>
<rect x="600" class="st1" width="600" height="600"/>
<g>
	<path class="st2" d="M263,527.5c1.2-0.4,1.7-1.1,1.6-2.4c-0.1-2.9,0-5.9,0-8.8c0-0.6,0-1.1,0-1.7c0-1.9,0-1.9-1.3-3.1
		c0.2-0.1,0.4-0.2,0.6-0.2c1.8,0,3.6-0.1,5.4,0.1c2.5,0.3,3.9,2.3,3.3,4.7c-0.2,0.8-0.7,1.5-1.4,1.9c-0.2,0.1-0.4,0.2-0.6,0.4
		c0.5,0.2,1,0.4,1.5,0.6c1.6,0.7,2.4,2,2.5,3.6c0.1,2.8-1.3,4.8-4,5.1c-1.8,0.2-3.6,0.1-5.4,0c-0.7,0-1.4-0.1-2.1-0.1
		C263,527.7,263,527.6,263,527.5z M271.3,519.7c-0.2,0-0.4-0.1-0.6-0.1c-0.9-0.2-1.8-0.6-2.7-0.7c-1.2-0.1-1.3,0-1.3,1.1
		c0,2.1,0,4.1,0,6.2c0,0.5,0.2,0.8,0.7,0.9c1.3,0.3,2.5,0.1,3.7-0.3c0.4-0.1,0.7-0.6,0.9-0.9c0.2-0.4,0.4-0.8,0.5-1.3
		c0.3-1.6,0.4-3.2-1-4.4C271.3,520,271.3,519.8,271.3,519.7z M266.6,516.7c0.1,1.5,0.1,1.5,1.4,1.5c0.2,0,0.4,0,0.5,0
		c0.4-0.1,1-0.2,1.3-0.5c0.8-0.6,1.3-2.7,0.9-3.6c-0.5-1.4-1.3-2.2-3.1-2c-0.9,0.1-1,0.2-1.1,1C266.6,514.3,266.6,515.5,266.6,516.7
		z"/>
	<path class="st2" d="M297,511c0.1,0.1,0.2,0.3,0.3,0.5c-1.5,0.3-1.2,1.5-1.2,2.5c-0.1,1.1,0,2.2,0,3.3c0,0.6,0.1,1.2,0.1,2
		c0.7-0.7,1.2-1.2,1.7-1.8c1.1-1.3,2.1-2.6,3.1-3.9c0.5-0.7,1.2-1.4,0.4-2.4c1.3-0.1,2.5-0.3,3.9,0.2c-0.3,0.2-0.5,0.4-0.7,0.4
		c-0.9,0.1-1.4,0.7-1.9,1.3c-1.4,1.6-2.7,3.3-4.2,5.1c0.6,0.7,1.1,1.5,1.7,2.2c1.3,1.7,2.7,3.4,4,5.1c0.2,0.2,0.3,0.4,0.5,0.6
		c0.5,0.6,1.1,1.1,2,1.1c0,0.1,0,0.1,0,0.2c-0.1,0.2-0.3,0.4-0.4,0.4c-1.2,0-2.3,0-3.3,0c-0.2-0.6-0.4-1.1-0.6-1.5
		c-1.4-2.3-3.2-4.2-5.1-6c-0.1-0.1-0.5-0.1-0.6,0c-0.5,0.4-0.8,0.8-0.7,1.5c0.1,1.3,0.1,2.6,0.1,4c0,0.9,0.1,1.8,1.3,2.1
		c-1.5,0-3,0-4.7,0c1.3-0.4,1.4-0.5,1.4-1.9c0-4.1-0.1-8.2-0.1-12.4c0-0.4-0.1-0.8-0.2-1.2c-0.1-0.4-0.4-0.7-0.9-0.7
		c-0.1,0-0.3-0.2-0.4-0.2c0.1-0.1,0.3-0.3,0.4-0.3c0.8,0,1.5,0,2.3,0c0.3,0,0.6-0.1,1-0.1C296.7,511,296.8,511,297,511z"/>
	<path class="st2" d="M334.4,527.7c-1.3,0-2.6,0-3.9,0c1.2-0.5,1.1-1.5,1.1-2.6c-0.1-1.8-0.1-3.5-0.1-5.3c0-0.6-0.2-0.8-0.8-0.8
		c-2.4,0-4.9,0-7.3,0c-0.4,0-0.5,0.1-0.5,0.5c0,2,0,4,0,6.1c0,0.7,0.2,1.2,0.8,1.6c0.1,0.1,0.2,0.3,0.4,0.5c-1.3,0-2.6,0-3.8,0
		c0-0.1,0-0.1,0-0.2c1-0.6,1-1.5,1-2.5c0-2.2,0-4.4,0-6.6c0-1.9-0.1-3.9-0.2-5.8c0-0.6-0.2-1.1-1.1-1.1c0-0.1,0-0.1,0-0.2
		c0.2-0.1,0.5-0.3,0.7-0.3c0.8,0,1.6,0,2.3,0c0.2,0,0.4,0.1,0.4,0.1c0,0.1-0.1,0.3-0.1,0.5c-0.2,0.6-0.4,1.3-0.5,1.9
		c-0.1,1.2,0,2.4-0.1,3.6c0,0.5,0.3,0.7,0.7,0.7c1.3,0,2.7,0,4,0c1.1,0,2.2,0,3.3,0c0.3,0,0.6,0,0.6-0.4c0-1.7,0-3.3-0.1-5
		c0-0.3-0.3-0.5-0.5-0.8c-0.1-0.1-0.3-0.3-0.4-0.4c0.2-0.1,0.3-0.1,0.5-0.2c0.1,0,0.1-0.1,0.2-0.1c0.1,0,0.2,0,0.3,0
		c0.1,0,0.2,0.1,0.2,0.1c0.7,0,1.4,0.1,2.1,0.1c0.2,0,0.4,0.1,0.6,0.1c0,0.1,0.1,0.1,0.1,0.2c-1.3,0.4-1,1.5-1.1,2.4
		c0,0.3,0,0.7,0,1c0,3.6,0,7.2,0,10.8c0,0.8,0.2,1.5,1.2,1.6C334.4,527.5,334.4,527.6,334.4,527.7z"/>
	<path class="st2" d="M308.4,528c-0.1-0.1-0.2-0.2-0.3-0.3c0,0,0-0.1,0-0.1c1.7-0.6,1.4-2,1.4-3.3c0-3.4-0.1-6.7-0.2-10.1
		c0-1.2-0.2-1.6-1.5-2.8c0.5-0.1,0.8-0.2,1.2-0.2c2.4,0,4.7,0.1,7.1,0.1c1,0,1.2,0.2,1.2,1.3c0,0.3-0.1,0.6-0.1,0.8
		c-0.7-0.3-1.4-0.8-2.1-0.9c-1.1-0.2-2.2,0-3.3,0c-0.1,0-0.4,0.3-0.4,0.4c0,1.9,0,3.8,0,5.8c1.1-0.1,2.1,0,3-0.2
		c0.4-0.1,0.7-0.5,1-0.8c0.1-0.1,0.2-0.3,0.3-0.4c0.1,0,0.1,0,0.2,0c0,1.1,0,2.2,0,3.4c-0.2-0.2-0.3-0.2-0.4-0.3
		c-0.4-0.8-1.1-0.9-1.9-0.8c-0.5,0.1-1.1,0-1.6,0c-0.4,0-0.6,0.1-0.6,0.5c0,1.5,0,3,0,4.5c0,0.6-0.1,1.1,0,1.7
		c0,0.2,0.2,0.4,0.4,0.5c0.2,0.1,0.6,0.1,0.8,0.1c1,0,2.1,0,3.1-0.1c0.9,0,1.7-0.2,2.2-1c0-0.1,0.1-0.1,0.2-0.2c0,0,0.1,0,0.3,0
		c-0.2,0.7-0.3,1.3-0.5,1.9c-0.1,0.2-0.5,0.3-0.8,0.3c-1.2,0-2.4,0-3.6,0c-1.3,0-2.7,0-4,0.1c-0.2,0-0.3,0.1-0.5,0.1
		C308.9,528,308.6,528,308.4,528z"/>
	<path class="st2" d="M277,518.5c-0.1-1.1,0.4-2.8,1.4-4.3c0.6-0.9,1.6-1.7,2.6-2.2c2.2-1.1,4.6-1.1,6.9-0.4
		c2.1,0.6,3.5,2.1,4.1,4.2c1.1,3.6,0.3,6.8-2,9.7c-0.7,0.9-1.7,1.5-2.9,2c-3.5,1.5-7.6-0.8-9.1-3.7
		C277.4,522.3,277.1,520.8,277,518.5z M286.5,512.5c0,4.7,0,9.4,0,14c1.2-0.2,2.8-1.8,3.3-2.8c0.8-1.8,1-3.6,0.9-5.5
		c0-1.2-0.3-2.3-0.8-3.3C289.2,513.5,288,512.9,286.5,512.5z M283.2,512.6c-0.7,0.2-1.5,0.3-1.9,0.7c-1,1-1.7,2.2-2,3.5
		c-0.3,1.6-0.4,3.2,0,4.9c0.3,1.4,0.7,2.8,1.9,3.8c0.6,0.5,1.1,1.1,2,1.1C283.2,521.9,283.2,517.3,283.2,512.6z M283.7,526.7
		c0.1,0,0.2,0,0.3,0c0.1-0.4,0.2-0.8,0.2-1.2c0-3.8,0-7.7,0-11.5c0-0.4-0.1-0.7-0.1-1.1c0-0.1-0.1-0.3-0.2-0.4c-0.1,0-0.2,0-0.2,0.1
		C283.6,517.3,283.6,522,283.7,526.7z M285.9,512.4c-0.1,0-0.2,0-0.2,0c-0.1,0.4-0.3,0.9-0.3,1.3c0,0.6,0,1.3,0,2
		c0,3.3,0.1,6.7,0.1,10c0,0.3,0.1,0.6,0.2,1c0.1,0,0.1,0,0.2,0C285.9,521.9,285.9,517.1,285.9,512.4z"/>
</g>
<g>
	<path class="st3" d="M847.2,510c0.3-0.1,0.6-0.3,0.9-0.3c1,0,2.1,0,3.2,0c0,0.2,0,0.4-0.1,0.6c-0.2,0.7-0.6,1.4-0.7,2.2
		c-0.1,1.4,0,2.8-0.1,4.2c0,0.7,0.4,0.9,0.9,0.8c1.3,0,2.7,0,4-0.1c1.6,0,3.2,0,4.8,0c0.1-0.2,0.1-0.3,0.1-0.5c0-1.8,0-3.7,0-5.5
		c0-0.6-0.2-1.1-0.9-1.2c-0.1,0-0.2-0.2-0.3-0.4c0-0.1,0.1-0.3,0.2-0.3c1.4,0.1,2.8,0.2,4.2,0.2c0,0,0,0,0,0.1c0,0,0,0.1,0,0.1
		c-1.1,0.4-1.1,1.3-1.1,2.2c-0.1,3.3-0.1,6.7-0.1,10c0,1.5,0.1,2.9,0.2,4.4c0,0.7,0.2,1.3,1,1.5c0.2,0,0.3,0.2,0.6,0.5
		c-1.7,0-3.2,0-4.7,0c1.3-0.5,1.3-1.6,1.2-2.7c-0.1-2.1-0.1-4.2-0.1-6.3c0-0.5-0.2-0.7-0.7-0.7c-2.9,0-5.8,0-8.7,0
		c-0.1,0-0.4,0.3-0.4,0.4c-0.1,2.4-0.1,4.8-0.1,7.2c0,0.7,0.2,1.3,0.9,1.7c0.2,0.1,0.3,0.3,0.6,0.6c-1.6,0-3,0-4.4,0
		c0-0.1,0-0.2,0-0.2c0.9-0.5,1.1-1.4,1.1-2.3c0-4,0-8.1,0-12.1c0-0.9-0.2-1.9-0.3-2.8c-0.1-0.8-0.5-1.2-1.3-1.2
		C847.2,510.1,847.2,510,847.2,510z"/>
	<path class="st3" d="M951.1,509.4c1.1,0.1,2.3,0.2,3.6,0.2c-0.2,0.4-0.3,0.7-0.5,1c-1.4,1.9-2.9,3.7-4.3,5.7
		c-2.4,3.4-4.7,6.9-7.1,10.3c-0.2,0.3-0.3,0.6-0.6,1.1c3.3,0,6.4,0,9.5,0c0.9,0,1.7-0.3,2.2-1.2c0.1-0.2,0.4-0.3,0.6-0.5
		c0.1,0.1,0.2,0.1,0.2,0.2c-0.4,0.9-0.7,1.8-1.1,2.7c-0.1,0.1-0.4,0.2-0.6,0.2c-3.5,0-6.9-0.1-10.4-0.1c-1.4,0-2.7,0-4.3,0
		c4.3-6,8.4-11.9,12.7-17.9c-0.8-0.1-1.5-0.1-2.1-0.1c-2.4,0-4.7,0.1-7.1,0.1c-0.8,0-1.5,0.2-1.9,0.8c-0.1,0.2-0.4,0.2-0.7,0.4
		c0.1-0.9,0.1-1.7,0.2-2.5c0-0.1,0.4-0.3,0.6-0.3c0.7-0.1,1.4-0.1,2-0.1c1,0,1.9,0,2.9,0c1.2,0,2.4,0.1,3.6,0.1
		c0.4,0,0.9-0.1,1.3-0.1C950.2,509.4,950.7,509.4,951.1,509.4z"/>
	<path class="st3" d="M949.8,509.4c-0.4,0-0.9,0.1-1.3,0.1c-1.2,0-2.4-0.1-3.6-0.1C946.6,509.4,948.2,509.4,949.8,509.4z"/>
	<path class="st3" d="M865.9,518.3c-0.1-1.5,0.5-3.5,1.6-5.2c0.6-1,1.7-1.9,2.7-2.4c3.2-1.5,6.5-1.6,9.7,0.1
		c1.7,0.9,2.6,2.4,3.3,4.2c0.9,2.6,0.5,5.1-0.3,7.5c-0.7,2-1.9,3.8-3.7,5c-2.1,1.3-4.4,1.7-6.9,0.8c-1.4-0.5-2.7-1.3-3.7-2.4
		C866.7,524,865.9,521.6,865.9,518.3z M876.6,511.2c-0.1,5.4,0,10.7,0,16.2c2.4-1,3.7-2.6,4.3-4.8c0.6-1.9,0.7-3.9,0.5-5.9
		C881.1,513.9,879.8,511.7,876.6,511.2z M872.9,527.3c0-5.4,0-10.7,0-16c-0.8,0.3-1.7,0.3-2.2,0.8c-1.2,1.1-2,2.5-2.3,4.1
		c-0.4,2.2-0.4,4.4,0.2,6.6c0.5,1.9,1.7,3.3,3.3,4.3C872.2,527.2,872.5,527.2,872.9,527.3z M873.5,527.5c0.1,0,0.3,0,0.4,0
		c0.1-0.6,0.2-1.3,0.2-1.9c0-3.7,0-7.4,0-11.1c0-0.8,0-1.6-0.1-2.3c0-0.3-0.2-0.7-0.3-1c-0.1,0-0.2,0.1-0.3,0.1
		C873.3,516.6,873.5,522.1,873.5,527.5z M876,511.1c-0.1,0-0.2,0-0.3,0c-0.1,0.3-0.2,0.6-0.3,0.8c0,1-0.1,1.9-0.1,2.9
		c0,3.8,0.1,7.6,0.1,11.4c0,0.4,0.1,0.8,0.2,1.1c0.1,0,0.2,0,0.2,0C876,521.9,876,516.5,876,511.1z"/>
	<path class="st3" d="M904.5,528.9c-1.7-0.2-3.2-0.6-4.7-1.5c-1.5-0.9-2.5-2.1-3.3-3.6c-0.8-1.6-1.1-3.2-1.1-4.9
		c0-2.1,0.5-4,1.6-5.7c0.7-1.1,1.9-1.9,3.1-2.6c1.6-0.9,3.4-1,5.2-0.9c1.4,0.1,2.8,0.3,4,1c2.2,1.2,3.4,3.3,3.7,5.7
		c0.5,3.5-0.3,6.7-2.6,9.5c-0.9,1.1-2,2-3.4,2.4C906.2,528.4,905.4,528.7,904.5,528.9z M906.3,511.2c0,5.4,0,10.7,0,16.1
		c0.4-0.2,0.7-0.3,0.9-0.4c1.8-0.9,2.8-2.5,3.4-4.3c0.6-1.9,0.7-3.9,0.5-5.8C910.7,514.2,909.5,511.7,906.3,511.2z M902.5,527.3
		c0-5.4,0-10.7,0-16c-0.8,0.3-1.8,0.3-2.2,0.8c-1.1,1.1-1.9,2.5-2.2,4.1c-0.4,2.2-0.4,4.3,0.2,6.5c0.5,2,1.6,3.4,3.3,4.4
		C901.7,527.2,902.1,527.2,902.5,527.3z M903.4,511.2c-0.1,0-0.2,0-0.3,0c-0.1,5.4,0,10.8,0,16.2c0.1,0,0.3,0,0.4,0
		c0.1-0.6,0.3-1.2,0.3-1.9c0-2,0-4,0-6c0-2.5,0-5-0.1-7.5C903.7,511.8,903.5,511.5,903.4,511.2z M905.3,527.2c0.1,0,0.2,0,0.3-0.1
		c0-5.4,0.1-10.7-0.2-16.1c-0.3,0.4-0.4,0.7-0.4,1.1c0,1.7,0,3.4,0,5c0,3,0.1,5.9,0.1,8.9C905.1,526.5,905.3,526.9,905.3,527.2z"/>
	<path class="st3" d="M913.5,509.6c1.6,0.1,3.2,0.1,4.9,0.2c-0.8,1-0.4,2-0.1,3c1.1,3.5,2.3,6.9,3.5,10.4c0.1,0.3,0.2,0.5,0.4,1
		c0.4-0.9,0.7-1.7,0.9-2.5c1-3.1,2-6.1,3-9.2c0.3-0.9,0.6-1.7-0.2-2.6c1.1,0.1,2.2,0.1,3.5,0.2c-0.2,0.3-0.3,0.4-0.4,0.5
		c-0.9,0.4-1.2,1.2-1.5,2.1c-1.6,4.8-3.3,9.7-5,14.5c-0.2,0.6-0.5,1.1-0.9,1.7c-0.2-0.4-0.4-0.8-0.6-1.2c-1.6-4.8-3.2-9.6-4.9-14.5
		c-0.2-0.5-0.4-0.9-0.6-1.4c-0.4-0.9-0.9-1.5-1.9-1.6c-0.1,0-0.2-0.2-0.3-0.2C913.4,509.8,913.4,509.7,913.5,509.6z"/>
	<path class="st3" d="M895.3,525.7c-0.3,1.1-0.6,2-0.9,2.9c-0.1,0.2-0.5,0.3-0.8,0.3c-1.7-0.1-3.3-0.2-5-0.2c-1.3,0-2.6,0-3.9,0
		c-0.3,0-0.7-0.1-1-0.1c0-0.1,0-0.1,0-0.2c0.2-0.1,0.3-0.2,0.5-0.2c0.8-0.1,1.1-0.6,1.2-1.3c0.1-1.1,0.2-2.3,0.2-3.4
		c0.1-3.6,0.1-7.1,0.1-10.7c0-0.3,0-0.7-0.1-1c-0.2-1.1-0.5-1.4-1.6-1.5c0.5-0.7,4.2-0.7,5.2-0.1c0,0,0,0.1,0,0.1
		c-1.4,0.5-1.6,1.7-1.6,3c0,3.6,0,7.1,0,10.7c0,0.8,0.1,1.6,0.1,2.3c0.1,0.7,0.4,1.1,1.1,1.2c1.6,0.2,3.2,0.4,4.7-0.4
		C894.2,526.7,894.7,526.2,895.3,525.7z"/>
	<path class="st3" d="M931.6,528.6c1.5-0.8,1.3-2.3,1.3-3.6c0.1-2.3,0-4.5,0-6.8c0-2-0.1-4-0.1-6c0-1.2-0.5-1.9-1.7-2.1
		c0.4-0.7,4.5-0.8,5.4-0.1c-1.7,0.8-1.6,2.3-1.6,3.8c0,1.1,0.1,2.1,0.1,3.2c0.1,3.2,0.1,6.5,0.2,9.7c0,0.6,0.3,1.1,1,1.3
		c0.2,0.1,0.4,0.3,0.8,0.6C935,528.6,933.3,528.6,931.6,528.6z"/>
</g>
<g>
	<path class="st4" d="M771,455.1c0.2,0.3,0.4,0.5,0.7,1c-4.4,1.8-4,5.7-4.1,9.4c0,3.7-0.2,7.5-0.2,11.2c0.1,5.7,0.3,11.4,0.4,17.1
		c0,1.8,0,3.5-0.1,5.3c0,0.5-0.3,0.9-0.6,1.9c-10.2-11.7-20.2-23.1-30.2-34.6c-0.1,0.5-0.2,0.8-0.2,1.1c0,8.7,0.1,17.4,0.2,26.1
		c0,1.1,0,2.2,0.3,3.1c0.3,1,1.1,1.8,1.8,2.6c0.3,0.3,0.7,0.5,1,1.1c-3.3,0-6.7,0-10,0c0-0.1,0-0.2,0-0.2c2.9-0.6,3.4-2.8,3.4-5.2
		c0-5.1-0.2-10.1-0.2-15.2c0-4.8,0.1-9.5,0.1-14.3c0-2.5-0.2-4.9-0.2-7.4c0-1,0.2-2,0.4-2.9c0.4,0,0.7,0,1.1,0
		c9.8,11.6,19.3,23.4,29.9,34.4c0.2-0.7,0.3-1.3,0.2-1.8c-0.2-6.4-0.3-12.8-0.5-19.2c-0.1-3.1-0.6-6.2-0.9-9.3
		c-0.1-1.4-0.7-2.4-2.4-2.6c-0.9-0.1-1.5-0.5-0.9-1.5C763.6,455.1,767.3,455.1,771,455.1z"/>
	<path class="st4" d="M1100.5,455.1c0.3,0.3,0.5,0.6,0.9,1c-3.2,1.4-4.1,3.9-4,7.1c0.1,10.3,0.2,20.6,0.2,30.9
		c0,1.7-0.1,3.5-0.3,5.2c0,0.4-0.3,0.7-0.7,1.5c-10.2-11.6-20.1-23-30-34.4c-0.2,0-0.3,0.1-0.5,0.1c0,3.8,0,7.7,0,11.5
		c0.1,4.9,0.2,9.8,0.3,14.6c0,1.4,0,2.8,0.4,4.2c0.2,0.9,1,1.6,1.6,2.3c0.3,0.4,0.8,0.6,1.1,1.2c-3.3,0-6.6,0-10,0
		c0.1-0.2,0.1-0.4,0.2-0.4c2.8-0.6,3.3-2.8,3.2-5.1c0-5.2-0.2-10.5-0.2-15.7c0-4.3,0.2-8.7,0.2-13c0-2.7-0.2-5.4-0.2-8.1
		c0-1,0.2-2,0.3-2.9c0.4,0,0.7,0,1.1,0c5.2,6.1,10.4,12.1,15.6,18.2c4.4,5.2,8.9,10.3,13.4,15.5c0.3,0.3,0.7,0.5,1.2,0.9
		c0-0.7,0.1-1.1,0.1-1.5c-0.2-7.3-0.3-14.7-0.6-22c-0.1-2.4-0.5-4.8-0.8-7.2c-0.2-1.3-0.7-2.2-2.2-2.3c-0.9-0.1-1.4-0.6-1.1-1.5
		C1093.2,455.1,1096.8,455.1,1100.5,455.1z"/>
	<path class="st4" d="M1144,478.1c-1.7,0.7-2.3,2.1-2.4,3.9c-0.1,3.4-0.4,6.8-0.4,10.2c0,1.9-0.8,3.1-2.1,4.2
		c-3.5,2.9-7.5,4.1-12,3.6c-3.8-0.4-7.5-1.1-11-2.9c-7.2-3.9-10.1-10.3-10.6-18.1c-0.3-4.7,0.6-9.1,2.8-13.3c2.3-4.5,6-7.4,10.9-8.5
		c6.6-1.5,13.2-1.1,19.8,0.5c1.1,0.3,1.7,0.8,1.6,1.9c-0.1,1.6,0.9,3.3-0.6,4.8c-2.9-4.6-7.2-6.1-12.4-5.6c-1.5,0.1-2.9,0-4.4,0.3
		c-5.8,1-9.7,4.3-11.2,10c-1.5,5.8-1.9,11.7,0.2,17.5c1.9,5.3,5.5,8.6,11,9.9c3.2,0.8,6.3,1.1,9.6,0.2c2.6-0.7,4.1-2.5,4.2-5.2
		c0.1-3.4,0.1-6.8,0.1-10.2c0-1.7-0.4-3.2-2.4-3.5c-0.3,0-0.5-0.6-0.7-1c0.4-0.2,0.9-0.5,1.3-0.5c3,0,6,0.1,8.9,0.2
		C1144,477.1,1144,477.6,1144,478.1z"/>
	<path class="st4" d="M657,457.2c1.4-0.2,2.8-0.5,4.2-0.5c3.1-0.1,6.1-0.1,9.2-0.2c4.3-0.1,8.8-0.3,12.2,2.8
		c3.9,3.5,4.8,8.2,3.6,13.2c-1.3,5.3-5,8.1-10.2,9c-2.8,0.5-5.7,0.6-8.5,0.8c-0.9,0.1-1.3,0.2-1.3,1.2c0.1,3.6,0.1,7.2,0.2,10.7
		c0,2.7,1.3,4.4,4.3,4.6c0,0.2,0,0.3,0,0.5c-0.6,0.3-1.1,1-1.7,1c-3.5,0.1-6.9,0-10.4,0c-0.2,0-0.4-0.2-0.7-0.3
		c0.4-0.3,0.6-0.7,0.9-0.7c2.4-0.5,2.9-2.5,2.9-4.5c0.1-4.5,0.1-9,0-13.5c-0.1-4.9-0.4-9.7-0.6-14.6c-0.1-1.9-0.1-3.8-0.4-5.6
		c-0.4-2.4-1-2.8-3.5-3.2C657,457.7,657,457.4,657,457.2z M665.9,480.2c2.2,0.1,3.9,0.5,5.6,0.3c5.5-0.6,7.7-2.1,9.1-7
		c0.8-2.9,0.5-5.6-0.2-8.4c-1.3-5-5.5-7.4-10.4-7c-3.1,0.3-4.3,1.8-4.2,4.9c0.1,2.8,0,5.5,0,8.3C665.9,474.1,665.9,477,665.9,480.2z
		"/>
	<path class="st4" d="M965.9,456.1c6.9,0.1,12.1,0.9,16.1,4.8c3,2.9,4.6,6.4,5.4,10.4c0.9,5,0.1,10-1.5,14.7
		c-1.9,5.3-5.1,9.8-10.2,12.4c-4.5,2.4-9.3,2.7-14.2,1.1c-3.4-1.1-6.2-3.1-8.6-5.6c-3.5-3.6-5.2-8.2-5.8-13.1
		c-0.8-6,0.3-11.7,3.5-16.6c1.7-2.6,4.6-4.7,7.4-6C960.8,456.8,964.2,456.5,965.9,456.1z M971.8,459.9c0,12.5,0,24.8,0,37.3
		c5.3-2,8.2-5.8,9.8-10.7c1.4-4.4,1.6-8.9,1.2-13.5c-0.3-3.4-1.4-6.4-3.5-9.1C977.5,461.6,974.8,460.5,971.8,459.9z M963.1,460.1
		c-1.9,0.6-4,0.7-5.1,1.7c-2.7,2.5-4.5,5.8-5.2,9.4c-1,5.1-0.9,10.2,0.5,15.3c1.2,4.6,4,7.8,7.9,10.1c0.5,0.3,1.2,0.3,1.9,0.4
		C963.1,484.8,963.1,472.7,963.1,460.1z M965.5,460c-0.2,0-0.3,0-0.5,0c-1,1.5-1,35.3,0.2,37.5c0.4-1.2,0.7-2.4,0.8-3.6
		c0.1-1.8,0-3.6,0-5.5c0-8.3,0-16.6-0.1-24.8C965.9,462.4,965.7,461.2,965.5,460z M969.7,497.2c0.2,0,0.3-0.1,0.5-0.1
		c0-12.5,0-24.9,0-37.4c-0.2,0-0.4-0.1-0.5-0.1c-0.2,0.6-0.5,1.1-0.5,1.7c-0.1,2.3-0.2,4.6-0.2,6.8c0.1,8.9,0.2,17.7,0.3,26.6
		C969.2,495.6,969.5,496.4,969.7,497.2z"/>
	<path class="st4" d="M1015,491c2.4-5.8,4.9-11.5,7.2-17.3c2.4-5.8,4.6-11.6,6.9-17.4c0.2,0,0.5,0.1,0.7,0.1
		c0.4,2.1,0.8,4.2,1.2,6.3c0.9,5.5,1.7,11,2.5,16.6c0.8,5.5,1.5,10.9,2.7,16.3c0.4,1.7,1.9,3.1,2.8,4.7c-2.8,0-6.1,0-9.9,0
		c3.2-2.1,2.3-4.8,1.8-7.4c-1.3-7.6-2.5-15.2-3.8-22.8c0-0.2-0.2-0.3-0.4-0.7c-0.4,0.8-0.7,1.3-0.9,2c-3.5,8.6-7,17.2-10.5,25.8
		c-0.5,1.2-1.2,2.2-2.1,3.7c-4.2-10.3-8.2-20.2-12.2-30c-0.2,0-0.4,0-0.6,0.1c-0.4,2.3-0.8,4.6-1.2,7c-0.8,5.9-1.6,11.8-2.4,17.6
		c-0.2,1.8-0.2,3.6,1.9,4.6c-3,0-6,0-9.2,0c2-1,3.6-2.3,4.1-4.4c0.4-1.4,0.7-2.7,0.9-4.1c1.2-8.4,2.4-16.9,3.6-25.3
		c0.5-3.3,1.1-6.6,2.1-10c4.7,11.5,9.3,23.1,14,34.6C1014.5,491,1014.7,491,1015,491z"/>
	<path class="st4" d="M688.3,500.4c-3.2,0-6,0-9.4,0c0.6-0.6,0.8-0.9,1.1-1c2.5-1.3,4.2-3.2,5.3-5.8c3.2-7.3,6.6-14.5,10-21.8
		c2.2-4.8,4.6-9.5,6.8-14.3c0.4-0.7,0.8-1.4,1.4-2.6c0.7,1.3,1.4,2.3,1.8,3.3c4.7,10.5,9.3,21.1,14,31.5c1.3,2.8,2.9,5.5,4.5,8.1
		c0.5,0.8,1.2,1.4,2,2.3c-3.6,0-7,0-10.4,0c-0.2-0.1-0.3-0.2-0.5-0.3c3-1.2,1.9-2.9,1.2-4.6c-1.6-3.8-3.4-7.5-5-11.3
		c-0.6-1.4-1.6-1.9-3-1.9c-4.2,0.1-8.4,0.1-12.7,0.1c-1.6,0-2.7,0.6-3.3,2.1c-1,2.4-2.2,4.7-3.2,7.1
		C687.7,494.3,686.2,497.2,688.3,500.4z M701.7,463.8c-2.4,5.6-4.7,10.7-7.1,16.1c0.7,0.1,1,0.2,1.3,0.2c3.8,0,7.6-0.1,11.5-0.2
		c1.2,0,1.4-0.6,0.9-1.6c-1.9-4.4-3.8-8.8-5.8-13.2C702.5,464.8,702.2,464.5,701.7,463.8z"/>
	<path class="st4" d="M803.3,494.3c-0.4,1.7-0.7,3.4-1.4,4.8c-0.3,0.7-1.6,1.1-2.5,1.1c-3.7,0.1-7.4,0-11.1,0.1
		c-3.4,0.1-6.7,0.2-10.1,0.3c-0.8,0-1.6-0.2-2.9-0.3c0.9-0.6,1.3-0.9,1.7-1.1c1.9-0.8,2.6-2.5,2.6-4.3c0-8-0.2-16.1-0.3-24.1
		c0-2.4-0.2-4.8-0.2-7.2c0-2.8-1.4-4.9-3.7-6.8c0.8-0.1,1.6-0.4,2.4-0.4c5.7,0.1,11.4,0.4,17.1,0.5c1.2,0,2.4-0.2,3.5-0.1
		c0.5,0.1,1.3,0.8,1.4,1.4c0.2,1.3,0.1,2.7,0.1,4c-0.2,0.1-0.4,0.1-0.4,0.1c-3-3.3-6.8-3.3-10.8-2.8c-1,0.1-2-0.1-3,0.1
		c-0.5,0.1-1.3,0.7-1.3,1.1c-0.1,5-0.1,10.1-0.1,15.4c2.9-0.1,5.4-0.1,7.9-0.5c1-0.2,1.9-1.3,2.7-2.1c0.4-0.3,0.6-0.8,0.9-1.2
		c0.2,0,0.3,0.1,0.5,0.1c0,2.9,0,5.7,0,8.7c-0.4-0.1-0.6-0.1-0.6-0.2c-2.6-4.3-6.9-2-10.4-2.5c-0.2,0-0.6,0.7-0.7,1.2
		c-0.1,4-0.1,8.1-0.2,12.1c0,1.5-0.2,2.9,0,4.4c0.1,0.6,0.7,1.3,1.3,1.5c0.7,0.3,1.6,0.3,2.4,0.2c2.7-0.1,5.3-0.2,7.9-0.3
		c2.2-0.1,4.3-0.6,5.7-2.6c0.1-0.2,0.3-0.3,0.5-0.4C802.6,494.4,802.8,494.4,803.3,494.3z"/>
	<path class="st4" d="M942.9,491.7c0.9,3,1.3,4.4-1.7,6.1c-4.4,2.5-9,3-13.9,2.1c-9.9-1.9-15.1-8.4-17.6-17.6
		c-2-7.5-0.7-14.4,4.3-20.4c2.7-3.2,6.4-4.7,10.4-5.3c5.6-0.8,11.1-0.8,16.6,1c1.2,0.4,1.9,1,1.9,2.2c0,1.6-0.1,3.2-0.2,4.9
		c-0.1,0.1-0.3,0.1-0.4,0.2c-0.3-0.3-0.6-0.6-0.8-0.9c-1.9-3.2-4.8-4.6-8.3-5.2c-3-0.5-5.9-0.1-8.9,0.5c-2.2,0.4-4,1.6-5.3,3.3
		c-2.8,3.5-4.6,7.5-4.3,12.1c0.2,3.8,0.2,7.7,1.2,11.3c1.3,5.1,4.2,9.5,9.5,11.1c5,1.5,10.2,1.5,14.7-1.9
		C941.2,494.1,941.9,492.8,942.9,491.7z"/>
	<path class="st4" d="M890.1,464.3c-0.5-1-1.1-2-1.6-3c-1.1-2.2-3.2-2.8-5.3-3c-4.7-0.3-7.1,0.1-8.6,4.2c-1,2.6,0.1,6.4,2.4,8.1
		c3.1,2.3,6.3,4.3,9.4,6.5c1.6,1.2,3.2,2.6,4.5,4.1c4.2,5.3,1.2,16.3-6.1,18.4c-3.2,0.9-6.5,1-9.7,0.1c-0.7-0.2-1.4-0.4-2-0.6
		c-3.6-1.3-4.6-3.1-3.7-6.8c0.1-0.3,0.4-0.8,0.7-0.8c0.3-0.1,0.6,0.3,1,0.5c0,0,0.1,0.1,0.1,0.2c1.8,5.9,6.8,5.7,11.4,5.6
		c4-0.1,6.8-4.8,6.1-9.4c-0.4-2.5-1.9-4.3-3.8-5.7c-3.6-2.6-7.2-5.1-10.9-7.5c-1.9-1.3-2.9-3-3.3-5.2c-0.9-4.4,0.1-8.4,3.4-11.4
		c1.2-1.1,3.1-1.9,4.7-2c3-0.2,6.1,0.1,9.1,0.3c2,0.1,2.9,1.1,2.9,3.2c0,1.4,0,2.8,0,4.1C890.6,464.3,890.4,464.3,890.1,464.3z"/>
	<path class="st4" d="M834,493.5c-0.7,2.3-1.3,4.4-2,6.4c-0.2,0.4-1,0.8-1.5,0.8c-7.1-0.1-14.3-0.2-21.4-0.4c-0.6,0-1.2-0.3-2.2-0.6
		c0.7-0.4,1-0.7,1.3-0.8c2.2-0.1,2.8-1.7,3-3.5c0.2-2.8,0.4-5.6,0.4-8.4c0.1-7.5,0.1-14.9,0.1-22.4c0-0.5,0.2-1,0.2-1.6
		c0.1-3.2-0.8-4.5-3.9-5.9c4.1-0.8,8.1-0.9,12.6,0c-0.4,0.5-0.6,0.8-0.8,0.8c-2.5,1-3.2,3-3.3,5.5c0,7.9-0.2,15.7-0.2,23.6
		c0,2.5,0.2,4.9,0.4,7.4c0.2,2.3,0.8,2.7,3.1,3c3.5,0.5,7,0.7,10.2-0.9C831.4,495.9,832.5,494.7,834,493.5z"/>
	<path class="st4" d="M1042.9,457.6c1.4-1.5,10.7-1.6,12.6-0.3c-3.8,1.5-3.8,4.8-3.8,8c0,4.4,0.2,8.8,0.3,13.2
		c0.1,5.7,0.3,11.4,0.4,17.1c0.1,1.6,0.6,3,2.5,3.4c0.4,0.1,0.7,0.6,1,1.2c-3.9,0-7.7,0-12.1,0c4.2-2.1,3.4-5.6,3.4-8.7
		c0-1.1,0.1-2.2,0.1-3.3c0-6.2-0.1-12.3-0.2-18.5c0-2.1,0-4.1,0-6.2C1047.1,460.6,1046.5,458.2,1042.9,457.6z"/>
	<path class="st4" d="M851.6,457.6c1-1.5,10.4-1.7,12.4-0.2c-3.2,1.2-3.7,3.9-3.7,6.7c0,5.5,0.1,11,0.2,16.5c0.1,4.5,0.2,9,0.3,13.6
		c0.1,2.2,0.1,4.3,2.9,4.9c0.2,0,0.4,0.3,0.5,0.5c0.1,0.1,0.1,0.3,0.1,0.6c-3.9,0-7.8,0-11.6,0c3.6-1.9,2.7-5.4,2.9-8.3
		c0.1-1.8-0.1-3.6-0.1-5.4c0-5.7-0.1-11.5-0.1-17.2c0-2.2,0-4.5-0.1-6.7C855.4,459.5,854.7,458.5,851.6,457.6z"/>
</g>
<g>
	<path id="path992" class="st5" d="M780.1,289.8l43.1,71.2l5.5-7.3l-38-62.6L780.1,289.8"/>
	<path id="path994" class="st5" d="M796,284.8l-15.9,4.9l38.9,4.5l-19.3-2.2l33.7,55.6l36.1-47.6l0,0l33.9,83.4l0.5-16.7l-29.6-72.9
		L796,284.8z M780.1,289.8l43.1,71.2l5.5-7.3l-38-62.6L780.1,289.8z"/>
	<path id="path1000" class="st4" d="M907.1,250.4l-94.5,29.3l66.5,7.6l0,0l25.2,62L907.1,250.4z"/>
	<path id="path5211" class="st6" d="M1014.8,236.6l-43.1-71.2l-5.5,7.3l38,62.6L1014.8,236.6"/>
	<path id="path5213" class="st7" d="M891.5,143l-0.5,16.7l29.6,72.9l78.2,8.9l15.9-4.9l-39.5-4.5l20,2.3l-33.7-55.6l-36.1,47.6l0,0
		L891.5,143z M971.7,165.4l-5.5,7.3l38,62.6l10.7,1.2L971.7,165.4z"/>
	<path id="path5219" class="st4" d="M890.5,177.1l-2.8,98.9l94.5-29.3l-66.5-7.6l0,0L890.5,177.1z"/>
</g>
<g>
	<path class="st2" d="M49.4,476.8c0.1-0.2,0.3-0.4,0.3-0.7c0.2-3,1.3-5.8,2.8-8.3c1-1.6,2.6-3,4.2-4.2c3.7-2.9,8.1-3.2,12.5-3.1
		c3.2,0.1,6.4,0.7,9.2,2.4c3.3,2,5.2,4.9,6.4,8.4c1.9,5.3,1.1,10.5-0.6,15.6c-1.6,4.7-4.5,8.6-9.1,11c-4.1,2.2-8.4,2.4-12.8,0.9
		c-5.2-1.8-8.9-5.2-11-10.2c-0.9-2-1.3-4.2-1.9-6.4C49.4,480.5,49.4,478.6,49.4,476.8z M71.6,463.8c0,11,0,21.9,0,33.1
		c4.8-1.9,7.4-5.2,8.7-9.6c1-3.3,1.3-6.6,1.2-10c-0.1-2.8-0.6-5.4-1.9-7.9C78,466.1,75.2,464.5,71.6,463.8z M63.9,464.3
		c-3.4,0.1-5.5,1.7-7,4.3c-2.5,4.3-2.9,9-2.6,13.7c0.3,4.4,1.2,8.6,4.7,11.7c1.4,1.2,2.7,2.6,4.9,2.7
		C63.9,485.9,63.9,475.1,63.9,464.3z M65.2,497.1c0.2,0,0.4,0,0.7,0c0.2-1,0.6-2,0.6-2.9c0-6.3,0-12.5,0-18.8c0-3.1,0-6.2-0.1-9.3
		c0-0.8-0.4-1.5-0.6-2.3c-0.2,0-0.4,0.1-0.5,0.1C65.2,475,65.2,486.1,65.2,497.1z M69.6,496.6c0.2,0,0.4,0,0.6,0
		c0-11.1,0-22.1,0-33.2c-0.1,0-0.3,0-0.4-0.1c-0.2,0.7-0.6,1.3-0.6,2c-0.1,2.4-0.2,4.9-0.2,7.3c0.1,7,0.2,14.1,0.3,21.1
		C69.2,494.8,69.5,495.7,69.6,496.6z"/>
	<path class="st2" d="M394.5,500.1c-0.3-0.2-0.6-0.4-1-0.7c0.4-0.3,0.7-0.6,1.1-0.8c1.8-0.7,2.4-2.2,2.4-3.9
		c-0.1-7.6-0.2-15.1-0.4-22.7c0-1-0.1-2,0-3.1c0.2-3.1-0.4-5.9-3.5-7.6c0-0.1,0.1-0.3,0.1-0.4c0.8-0.1,1.6-0.4,2.4-0.3
		c5.6,0,11.2,0.1,16.8,0.3c2.1,0.1,2.8-0.2,2.7,2.4c0,0.8,0,1.7,0,2.5c-0.3,0-0.5,0.1-0.5,0c-2.4-2.8-5.6-2.7-8.8-2.6
		c-1.1,0-2.2,0-3.2,0.2c-0.5,0.1-1.3,0.7-1.3,1.1c-0.1,4.4-0.1,8.8-0.1,13.6c2.6-0.1,4.9,0,7.1-0.5c1.2-0.3,2.2-1.7,3.4-2.7
		c0,2.6,0,5.1,0,7.6c-0.2,0.1-0.4,0.2-0.6,0.3c-0.2-0.3-0.4-0.7-0.5-1c-0.7-1.5-2-1.7-3.5-1.6c-1.5,0-3.1,0-4.6-0.1
		c-0.9,0-1.2,0.2-1.2,1.1c0,3.6-0.1,7.2-0.1,10.8c0,1.2,0,2.4-0.1,3.6c-0.1,0.9,0.4,1.3,1.2,1.4c0.8,0.1,1.5,0.2,2.3,0.2
		c2.2,0,4.3-0.1,6.5-0.2c2.2-0.1,4.3-0.5,5.7-2.5c0.1-0.2,0.4-0.3,0.6-0.4c0.7,2.9-0.9,5.3-3.7,5.3c-4.2,0.1-8.4-0.1-12.7,0
		c-1.8,0-3.5,0.3-5.3,0.5C395.5,500.1,395,500.1,394.5,500.1z"/>
	<path class="st2" d="M329.6,500.1c-0.3-0.2-0.6-0.4-1.1-0.7c0.4-0.3,0.7-0.6,1.1-0.7c1.8-0.7,2.4-2.2,2.4-3.9
		c-0.1-9.1-0.2-18.3-0.4-27.4c0-2.6-1.1-4.6-3.5-5.9c0-0.1,0.1-0.3,0.1-0.4c0.8-0.1,1.5-0.4,2.3-0.4c5.6,0.1,11.3,0.1,16.9,0.3
		c2.1,0.1,2.8-0.2,2.8,2.4c0,0.8,0,1.7,0,2.4c-1.8-0.8-3.3-2-5-2.2c-2.6-0.4-5.2-0.1-7.8,0c-0.3,0-1,0.6-1,0.9c-0.1,4.5,0,9,0,13.7
		c3.9-0.5,8,1.4,10.2-3.5c0.1,0.1,0.3,0.2,0.4,0.3c0,2.6,0,5.1,0,8.1c-0.6-0.6-0.9-0.9-1.1-1.2c-0.7-1.5-2-1.7-3.5-1.6
		c-1.8,0.1-3.7,0-5.7,0c-0.1,0.9-0.2,1.9-0.2,2.8c-0.1,4.2,0,8.3-0.2,12.5c0,1.2,0.5,1.7,1.5,1.7c3.6-0.1,7.2-0.1,10.8-0.4
		c1.1-0.1,2.1-1.2,3.1-1.8c0.4-0.2,0.7-0.5,1-0.8c0.1,0.1,0.2,0.1,0.4,0.2c-0.3,1.4-0.5,2.9-1.1,4.2c-0.2,0.5-1.3,0.9-2,0.9
		c-3.1,0.1-6.3,0-9.4,0.1c-2.8,0-5.6,0.1-8.5,0.2c-0.3,0-0.7,0.2-1,0.3C330.6,500.1,330.1,500.1,329.6,500.1z"/>
	<path class="st2" d="M485.9,500.1c-0.3-0.2-0.6-0.4-1.1-0.7c0.4-0.3,0.7-0.6,1.1-0.7c1.8-0.8,2.5-2.3,2.5-4c-0.1-9-0.2-18-0.4-26.9
		c0-2.7-1-4.9-3.5-6.2c0-0.1,0.1-0.3,0.1-0.4c0.8-0.1,1.5-0.4,2.3-0.4c5.6,0.1,11.3,0.1,16.9,0.3c2.2,0.1,2.7-0.2,2.7,2.4
		c0,0.9-0.1,1.7-0.1,2.3c-1.8-0.8-3.5-1.9-5.3-2.2c-2.4-0.4-4.9-0.1-7.4,0c-0.4,0-1,0.5-1,0.8c-0.1,4.5,0,9,0,13.5
		c2.5,0,4.8,0.2,6.9-0.1c0.9-0.1,1.7-1.2,2.5-1.9c0.3-0.3,0.5-0.7,0.7-1c0.1,0,0.3,0.1,0.4,0.1c0,2.6,0,5.1,0,8
		c-0.5-0.4-0.7-0.5-0.8-0.6c-0.9-2-2.6-2.2-4.6-2c-1.6,0.1-3.2,0-4.9,0c-0.1,1.8-0.2,3.7-0.3,5.6c0,3.3,0,6.5,0,9.8
		c0,1.1,0.5,1.6,1.4,1.6c3.6-0.1,7.3-0.1,10.9-0.4c1.1-0.1,2-1.2,3-1.9c0.3-0.2,0.6-0.5,0.9-0.7c0.1,0.1,0.3,0.1,0.4,0.2
		c-0.4,1.4-0.6,2.9-1.2,4.3c-0.2,0.5-1.3,0.8-2,0.8c-4.5,0.1-8.9,0-13.4,0.1c-1.8,0-3.5,0.3-5.3,0.5
		C486.9,500.1,486.4,500.1,485.9,500.1z"/>
	<path class="st2" d="M123.6,499.1c-0.5,0.1-1,0.2-1.4,0.2c-1.4,0-2.9,0-4.3,0c-2.3,0-2.5-0.2-2.7-2.6c-0.9,0.4-1.7,0.8-2.6,1.3
		c-3.4,1.8-7.1,1.9-10.8,1.8c-2.7-0.1-5.2-0.7-7.5-2.3c-3.2-2.2-4.7-5.3-4.8-9.1c-0.1-4.4-0.2-8.8-0.3-13.2
		c-0.1-2.9-0.2-5.8-0.3-8.7c-0.1-2.1-0.2-4.1-3.2-5c0.9-0.4,1.3-0.7,1.7-0.7c3.1,0,6.2,0,9.7,0c-0.3,0.5-0.4,0.9-0.7,1.1
		c-1.9,1.1-2.5,2.9-2.5,4.8c-0.1,4.4,0,8.9,0,13.3c0,2.7,0.2,5.4,0.2,8c0,5.2,2.9,8.6,8.1,9.3c4,0.6,7.7,0.2,11-2.2
		c1.3-0.9,2-1.7,1.8-3.6c-0.4-3.8-0.2-7.6-0.3-11.5c-0.1-3.7-0.3-7.3-0.5-11c-0.1-1.3-0.2-2.5-0.1-3.8c0.1-1.9-0.4-3.3-2.4-4
		c-0.1,0-0.2-0.1-0.2-0.2c0-0.1,0-0.2-0.1-0.4c1.4,0,2.7,0,4,0c1.7-0.1,3.4-0.2,5-0.2c1,0,2,0.1,3,0.2c0,0.2,0,0.5,0,0.7
		c-0.6,0.1-1.1,0.1-1.7,0.2c-1.5,0.2-2.4,0.9-2.4,2.5c-0.1,3.5-0.2,6.9-0.2,10.4c0,3.7,0,7.3,0.1,11c0.1,3.5,0.3,6.9,0.5,10.4
		c0.1,1.3,1.1,1.7,2.2,2c0.6,0.2,1.1,0.4,1.6,0.7C123.7,498.7,123.6,498.9,123.6,499.1z"/>
	<path class="st2" d="M422.5,499.7c0-0.2,0-0.3,0-0.3c3.2-1.2,2.9-3.8,2.9-6.4c0-5.7,0-11.4,0-17.2c0-3.2-0.1-6.4-0.3-9.6
		c-0.1-1.8-0.6-3.6-2.9-3.9c-0.2,0-0.3-0.2-0.7-0.7c0.9-0.2,1.6-0.4,2.3-0.4c4-0.1,8-0.3,12-0.3c6.6,0,11.8,3.3,11.4,11
		c-0.2,3.3-2.1,5.8-5,7.4c-0.7,0.4-1.5,0.7-2.4,1.2c1.4,2.1,2.7,4.2,4.1,6.2c2.3,3.3,4.5,6.6,6.9,9.8c0.7,1,1.9,1.6,3,2.4
		c-1.2,1.1-2.6,0.9-4,0.3c-2.4-0.9-3.9-3-5.4-4.9c-2.7-3.5-5.3-7-7.8-10.6c-1-1.5-2.2-2.2-3.9-2.3c-0.8,0-1.5-0.1-2.5-0.2
		c-0.1,0.9-0.2,1.8-0.2,2.6c0,3,0,5.9,0.1,8.9c0.1,1.4,0.1,2.8,0.7,4c0.4,1,1.5,1.6,2.6,2.6C429.6,499.8,426,499.7,422.5,499.7z
		 M442.4,470.5c0,0-0.1-0.2,0-0.3c0.7-4.7-5.3-8.8-10.1-7.4c-1.2,0.3-2.1,0.9-2.1,2.3c-0.1,1.5-0.2,3-0.2,4.6c0,2.8,0,5.6,0,8.3
		c0,0.9,0.3,1.3,1.2,1.3c2.2,0,4.5,0.5,6.7-0.3c0.7-0.3,1.6-0.6,2.1-1.1C441.7,475.7,442.9,473.5,442.4,470.5z"/>
	<path class="st2" d="M513.1,461.7c0.6-0.1,1.3-0.4,1.9-0.4c4.1-0.1,8.1-0.4,12.2-0.3c6.8,0.1,11.8,3.6,11.3,11.2
		c-0.2,3.1-2.1,5.6-5,7.1c-0.7,0.4-1.5,0.7-2.4,1.2c1.3,2,2.4,3.9,3.7,5.7c2.4,3.5,4.8,7,7.3,10.4c0.7,0.9,1.8,1.5,2.9,2.3
		c-1.3,1-2.6,0.9-3.9,0.3c-2.6-1-4.1-3.2-5.7-5.2c-2.8-3.7-5.6-7.5-8.3-11.2c-0.7-0.9-4.5-2-5.4-1.4c-0.3,0.2-0.5,0.8-0.5,1.2
		c0,1.3,0.2,2.6,0.2,4c0,1.9-0.1,3.8-0.1,5.6c0,2.8-0.1,5.6,3.4,6.8c-0.1,0.1-0.1,0.3-0.2,0.4c-3.5,0-7.1,0-10.6,0c0,0,0-0.1,0-0.1
		c2.5-0.9,3-2.8,3-5.2c-0.1-8.3,0-16.5,0-24.8c0-0.1,0-0.2,0-0.3c-0.5-2.7,0.3-6.1-3.9-6.9C513,462,513,461.8,513.1,461.7z
		 M533.8,471.2c0.6-6.6-5.9-9.7-10.3-8.4c-1.3,0.4-2.1,1.1-2.1,2.4c-0.1,4.3-0.1,8.6-0.1,12.9c0,0.4,0.7,1,1.1,1
		c2.3,0.1,4.6,0.6,6.9-0.3c0.7-0.3,1.5-0.6,1.9-1.1C532.8,475.8,534.1,473.7,533.8,471.2z"/>
	<path class="st2" d="M128.2,461.6c0.7-0.1,1.3-0.3,2-0.4c4-0.1,7.9-0.3,11.9-0.3c6.7,0,12,3.3,11.5,11.2c-0.2,3.2-2.1,5.6-4.9,7.1
		c-0.7,0.4-1.5,0.7-2.3,1.1c0.2,0.4,0.3,0.8,0.5,1.1c3.5,5.1,6.9,10.2,10.5,15.2c0.7,0.9,1.9,1.5,2.9,2.2c-1.3,1.1-2.6,0.9-4.1,0.3
		c-2.5-1-4-3.1-5.6-5.2c-2.8-3.7-5.6-7.5-8.3-11.2c-0.7-0.9-4.4-2-5.4-1.5c-0.3,0.2-0.5,0.9-0.5,1.3c0,1.4,0.2,2.8,0.2,4.3
		c0,1.9-0.1,3.9-0.1,5.8c-0.1,3.4,0.5,4.5,3.7,6.6c-3.9,0.5-7.5,0.4-11.3,0.4c0.3-0.4,0.5-0.6,0.6-0.7c2.1-0.7,2.6-2.2,2.6-4.1
		c0-8.6,0-17.2,0-25.9c0-0.2,0-0.4,0-0.6c-0.5-2.5,0.1-5.7-3.9-6.3C128,462,128.1,461.8,128.2,461.6z M148.9,471.2
		c0.6-6.6-5.8-9.5-10-8.5c-1.5,0.4-2.4,1.1-2.4,2.7c0,1.4-0.1,2.8-0.1,4.2c0,2.8,0,5.6,0,8.3c0,0.9,0.3,1.3,1.2,1.3
		c2.2,0,4.5,0.5,6.7-0.3c0.7-0.3,1.6-0.6,2.1-1.2C147.9,475.8,149.2,473.7,148.9,471.2z"/>
	<path class="st2" d="M324.2,499.5c-3.1,0-6.2,0-9.2,0c2.9-1.1,2.7-3.5,2.6-5.8c-0.1-4.2-0.3-8.5-0.3-12.7c0-1.3-0.5-1.7-1.7-1.7
		c-5.2,0-10.4,0-15.6,0c-2.9,0-2.9,0.1-3,3c0,3.7,0,7.4-0.1,11.2c-0.1,2.2,0.3,4.1,2.3,5.3c0.1,0.1,0.2,0.2,0.3,0.4
		c0.1,0.1,0.1,0.2,0.1,0.5c-3,0-5.9,0-9.3,0c2.2-1.2,2.8-2.9,2.8-5c0-3.3,0-6.6,0-10c0-4.7,0.1-9.3,0-14c0-2.2-0.3-4.4-0.5-6.6
		c-0.2-1.4-0.7-2.6-2.6-2.5c0-0.1,0-0.3,0-0.4c0.6-0.2,1.1-0.6,1.7-0.6c1.8-0.1,3.7,0,5.5,0.1c0.9,0,1.5,0.1,1,1.3
		c-0.6,1.5-1.2,3-1.4,4.6c-0.2,2.8-0.1,5.7-0.2,8.5c-0.1,1.3,0.6,1.6,1.7,1.6c3.2,0,6.5-0.1,9.7-0.1c2.5,0,5-0.1,7.5,0
		c1,0,1.5-0.3,1.4-1.3c0-3.6,0-7.2-0.1-10.9c0-1.2-0.4-2.4-1.9-2.6c-0.2,0-0.4-0.5-0.5-0.8c0.3-0.2,0.6-0.5,0.8-0.5
		c1.9,0,3.8,0,5.8,0.1c0.9,0,1.8,0.1,2.7,0.1c0,0.2,0,0.3,0,0.5c-0.3,0.2-0.5,0.5-0.8,0.6c-1,0.3-1.3,1-1.4,2
		c-0.2,3.7-0.5,7.3-0.5,11c0,6.3,0.1,12.7,0.2,19c0,0.8,0.2,1.5,0.3,2.3c0.1,1.1,0.6,1.9,1.8,2.2c0.4,0.1,0.7,0.6,1.1,0.8
		C324.3,499.2,324.2,499.4,324.2,499.5z"/>
	<path class="st2" d="M474.2,461.1c2.7,0.1,4.9,0.2,7.2,0.4c0,0.1,0.1,0.3,0.1,0.4c-0.4,0.4-0.8,0.9-1.3,1.1c-1.2,0.5-1.6,1.5-2,2.6
		c-3.9,11.3-7.9,22.6-11.8,34c0,0.1-0.1,0.2-0.5,0.6c-0.5-0.9-1-1.7-1.3-2.5c-3.2-9.6-6.4-19.2-9.7-28.7c-0.6-1.7-1.3-3.3-2-5
		c-0.6-1.3-1.6-2-3-2.2c-0.4-0.1-0.7-0.4-1.1-0.6c0.4-0.2,0.7-0.5,1.1-0.5c2.3,0.1,4.6,0.3,6.9,0.4c0.7,0,1.3,0,2.1,0
		c-1.9,3.6,0.3,6.7,1.3,9.9c1.9,6,4,11.9,6,17.8c0.1,0.4,0.3,0.7,0.6,1.4c0.4-0.9,0.8-1.5,1-2.2c2.5-7.6,5-15.1,7.4-22.7
		C475.8,463.9,475.7,462.5,474.2,461.1z"/>
	<path class="st2" d="M250.2,465.3c0.6-1.2,1.1-2.5,1.7-3.7c0.1-0.2,0.6-0.4,0.8-0.4c5.1,0.1,10.2,0.2,15.3,0.3
		c4.8,0.1,9.6,0.1,14.5,0.1c0.9,0,1.9-0.2,2.7,0.1c0.6,0.2,1.1,1.1,1.2,1.7c0.2,1.1,0.1,2.2,0.1,3.4c-1.5-0.7-2.9-1.8-4.4-2
		c-3.6-0.5-7.3-0.6-11-0.8c-0.3,0-0.8,0.6-0.8,1c-0.2,9.7-0.4,19.5-0.5,29.2c0,2.5,0.5,4.7,3.8,5.1c-0.1,0.1-0.2,0.2-0.3,0.4
		c-3.8,0-7.7,0-11.6,0c0.2-0.1,0.4-0.3,0.6-0.3c2.1-0.7,3-1.7,3.1-3.8c0.1-7.6,0.1-15.2,0.2-22.8c0-2.4,0-4.8,0.1-7.2
		c0-1-0.3-1.5-1.4-1.5c-3.4,0.1-6.7,0-10.1,0.3c-1.2,0.1-2.4,0.9-3.5,1.3C250.5,465.5,250.4,465.4,250.2,465.3z"/>
	<path class="st2" d="M181.7,467.7c-0.5-0.9-1-1.9-1.5-2.8c-0.9-1.8-2.6-2.3-4.4-2.5c-2.1-0.2-4.5-0.6-6.3,1.1
		c-2.7,2.4-2.7,7.2,0.2,9.5c2.6,2.1,5.3,4,8.2,5.7c2.8,1.6,4.9,3.8,5.8,6.8c0.4,1.3,0.3,2.7,0.1,4.1c-0.7,4.9-2.7,8.2-7.2,9.5
		c-4.2,1.2-8.5,0.6-12.4-1.4c-0.5-0.3-0.9-1.1-1-1.7c-0.2-1-0.1-2,0-3.1c0-0.4,0.4-0.8,0.7-1.2c0.3,0.3,0.9,0.5,1,0.9
		c0.6,1.7,1.4,3.3,3.3,3.8c1.9,0.5,3.9,0.7,5.9,0.9c2,0.2,3.6-0.7,4.8-2.2c2.6-3.3,2.3-7.6-0.9-10.3c-1.9-1.6-4-2.9-6-4.3
		c-1.4-1-2.9-2-4.3-2.9c-3.2-2-3.9-5.1-3.5-8.5c0.5-3.9,2.3-6.9,6.3-8.1c1.4-0.4,3-0.4,4.6-0.3c1.7,0.1,3.5,0.3,5.2,0.6
		c1.3,0.2,2.3,0.9,2.1,2.5c-0.1,0.7,0.2,1.4,0.2,2.1c0,0.6-0.2,1.2-0.3,1.8C182,467.7,181.8,467.7,181.7,467.7z"/>
	<path class="st2" d="M387.6,467.7c-0.5-0.9-1-1.8-1.4-2.7c-0.8-1.7-2.4-2.4-4.1-2.6c-2.2-0.2-4.6-0.6-6.5,0.9
		c-2.8,2.3-2.9,7.1-0.1,9.5c2.6,2.1,5.4,4.1,8.3,5.8c2.6,1.6,4.6,3.6,5.7,6.4c2,4.9-2,13.1-7.3,14.2c-4.1,0.8-8.1,0.4-11.8-1.4
		c-0.6-0.3-1.1-1.3-1.3-2c-0.2-0.9-0.1-1.9,0-2.9c0-0.4,0.4-0.8,0.7-1.2c0.4,0.3,0.8,0.5,1,0.9c0.7,1,1.1,2.3,2,3
		c1.9,1.6,4.3,1.6,6.7,1.8c2.4,0.2,4.2-0.8,5.6-2.8c1.9-2.7,1.8-6.7-0.6-9c-1.8-1.7-3.8-3.1-5.8-4.6c-1.5-1.1-3.1-2-4.6-3
		c-4.2-3-5.4-7.3-3.3-12.1c1.7-3.9,4.8-5.4,8.8-5.3c2.1,0.1,4.2,0.2,6.3,0.5c1.4,0.2,2.4,1,2.3,2.7c-0.1,1.2,0,2.5,0,3.7
		C388,467.7,387.8,467.7,387.6,467.7z"/>
	<path class="st2" d="M233.5,467.9c-0.6-1.1-1.1-2-1.6-3c-0.9-1.7-2.5-2.3-4.2-2.5c-2.2-0.2-4.6-0.6-6.5,1c-2.8,2.3-2.8,7.2,0.1,9.5
		c2.6,2.1,5.4,4,8.3,5.8c2.7,1.6,4.8,3.7,5.7,6.7c0.4,1.3,0.2,2.7,0.2,4.1c-0.1,4.3-3.2,8.6-7.3,9.6c-4.2,1.1-8.5,0.5-12.4-1.5
		c-0.5-0.2-0.9-1-0.9-1.6c-0.2-1.1-0.1-2.1,0-3.2c0-0.4,0.4-0.7,0.6-1.1c0.4,0.3,1,0.6,1.1,1c0.6,1.6,1.4,3.2,3.2,3.7
		c1.9,0.5,3.8,0.7,5.7,1c3.8,0.5,6.7-3.6,6.7-6.7c0-2.6-0.9-4.8-3.1-6.3c-1.9-1.4-3.9-2.7-5.8-4c-1.5-1-3-2-4.4-3.1
		c-3.2-2.3-3.6-5.7-2.9-9.2c0.7-3.6,2.7-6.2,6.3-7.2c1.6-0.4,3.5-0.2,5.2-0.2c1.3,0,2.5,0.3,3.8,0.4c1.7,0.2,2.5,0.9,2.6,2.7
		C234,465.1,234.6,466.4,233.5,467.9z"/>
	<path class="st2" d="M210.9,499.6c-3.9,0-7.3,0-10.7,0c0.7-1,1.7-1.8,2-2.8c0.4-1.4,0.5-3,0.5-4.5c0.1-4.5,0-9,0-13.4
		c0-4-0.1-8-0.2-11.9c0-2.5-0.6-4.7-3.7-5.1c1-1.4,8.9-1.6,11.2-0.4c-3.8,1.9-3.3,5.2-3.2,8.6c0.2,4,0,7.9,0.1,11.9
		c0.1,4.1,0.2,8.3,0.3,12.4c0,1.9,0.2,3.7,2.6,4.3C210.1,498.6,210.3,499,210.9,499.6z"/>
</g>
<g>
	<path class="st2" d="M336.5,177.3c-2.8-3.7-5.8-7.2-9-10.6c-9.9-10.5-15.1-12.6-18.2-13.2c-1.9-0.4-3.9-0.5-5.8-0.4
		c-8.3,0.4-14,4.8-19.1,8.7c-5.1,3.9-9.5,8.6-13.1,13.9c-0.1,0.1-0.1,0.3-0.1,0.5v50.6c0,0.3,0.2,0.6,0.4,0.7c0.1,0,0.2,0,0.4,0
		c0.2,0,0.3,0,0.5-0.2l63.9-49C336.6,178.1,336.7,177.7,336.5,177.3z"/>
	<path class="st2" d="M381.7,189.7c-1.1-1.6-2.4-3.1-3.9-4.4c-6.2-5.6-13.3-6.5-19.6-7.4c-6.4-0.8-12.8-0.6-19.1,0.6
		c-0.2,0-0.3,0.1-0.4,0.2L303,214.4c-0.2,0.2-0.3,0.5-0.2,0.8c0.1,0.3,0.4,0.5,0.7,0.5l79.8,10.6h0.1c0.4,0,0.7-0.3,0.8-0.7
		c0.6-4.6,1-9.2,1.1-13.8C385.7,197.5,383.5,192.3,381.7,189.7z"/>
	<path class="st2" d="M407.8,260.7c-0.4-8.3-4.8-14-8.7-19.1c-3.9-5.1-8.6-9.5-13.9-13.1c-0.1-0.1-0.3-0.2-0.5-0.2h-50.6
		c-0.3,0-0.6,0.2-0.7,0.5c-0.2,0.3-0.2,0.6,0,0.8l49,63.9c0.2,0.4,0.7,0.4,1.1,0.2c0,0,0,0,0,0c3.7-2.8,7.2-5.8,10.6-9
		c10.5-9.9,12.6-15.1,13.2-18.2C407.7,264.6,407.9,262.6,407.8,260.7z"/>
	<path class="st2" d="M382.4,296.4c0-0.2-0.1-0.3-0.2-0.4l-35.8-35.8c-0.2-0.2-0.5-0.3-0.8-0.2c-0.3,0.1-0.5,0.4-0.5,0.7l-10.6,79.8
		c-0.1,0.4,0.3,0.9,0.7,0.9c4.6,0.6,9.2,1,13.8,1.2h3.5c11.8,0,16.3-1.9,18.7-3.6c1.6-1.1,3.1-2.4,4.4-3.9
		c5.6-6.2,6.5-13.3,7.4-19.6C383.8,309.1,383.6,302.7,382.4,296.4z"/>
	<path class="st2" d="M332.1,290.7c-0.3-0.2-0.6-0.2-0.9,0l-63.9,49c-0.4,0.3-0.4,0.8-0.2,1.1c0,0,0,0,0,0c2.8,3.7,5.8,7.2,9,10.6
		c9.9,10.5,15.1,12.6,18.2,13.2c1.5,0.3,3.1,0.4,4.7,0.4h1.2c8.3-0.4,14-4.8,19.1-8.7c5.1-3.9,9.5-8.6,13.1-13.9
		c0.1-0.1,0.1-0.3,0.1-0.5v-50.6C332.5,291.1,332.4,290.8,332.1,290.7z"/>
	<path class="st2" d="M300.9,302.8c-0.1-0.3-0.4-0.5-0.7-0.5l-79.8-10.6c-0.4-0.1-0.9,0.3-0.9,0.7c-0.6,4.6-1,9.2-1.2,13.8
		c-0.4,14.4,1.9,19.6,3.6,22.2c1.1,1.6,2.4,3.1,3.9,4.4c6.2,5.6,13.3,6.5,19.6,7.4c2.6,0.3,5.2,0.5,7.8,0.5c3.8,0,7.7-0.4,11.5-1.1
		c0.2,0,0.3-0.1,0.4-0.2l35.8-35.8C300.9,303.4,301,303.1,300.9,302.8z"/>
	<path class="st2" d="M270,288.5l-49-63.9c-0.3-0.4-0.8-0.4-1.1-0.2c0,0,0,0,0,0c-3.7,2.8-7.2,5.8-10.6,9
		c-10.5,9.9-12.6,15.1-13.2,18.2c-0.4,1.9-0.5,3.9-0.4,5.8c0.4,8.3,4.8,14,8.7,19.1c3.9,5.1,8.6,9.5,13.9,13.1
		c0.1,0.1,0.3,0.1,0.5,0.1h50.6c0.3,0,0.6-0.2,0.7-0.4C270.2,289,270.2,288.7,270,288.5z"/>
	<path class="st2" d="M268.5,176.7c-4.6-0.6-9.2-1-13.8-1.1c-14.4-0.4-19.6,1.8-22.2,3.6c-1.6,1.1-3.1,2.4-4.4,3.9
		c-5.6,6.2-6.5,13.3-7.4,19.6c-0.8,6.4-0.6,12.8,0.6,19.1c0,0.2,0.1,0.3,0.2,0.4l35.8,35.8c0.1,0.2,0.4,0.2,0.6,0.2
		c0.1,0,0.2,0,0.3,0c0.3-0.1,0.5-0.4,0.5-0.7l10.6-79.8C269.3,177.3,269,176.8,268.5,176.7C268.5,176.7,268.5,176.7,268.5,176.7z"/>
</g>
</svg>
