<?xml version="1.0" encoding="utf-8"?>
<!-- Generator: Adobe Illustrator 25.0.1, SVG Export Plug-In . SVG Version: 6.00 Build 0)  -->
<svg version="1.1" id="Layer_1" xmlns="http://www.w3.org/2000/svg" xmlns:xlink="http://www.w3.org/1999/xlink" x="0px" y="0px"
	 viewBox="0 0 1200 600" style="enable-background:new 0 0 1200 600;" xml:space="preserve">
<style type="text/css">
	.st0{fill:#616A75;}
	.st1{fill:#24337F;}
	.st2{fill:#36457A;}
	.st3{fill:#445277;}
	.st4{fill:#525D75;}
	.st5{fill:#363B42;}
	.st6{fill:#E26C14;}
	.st7{fill:#DD7A37;}
	.st8{fill:#D89060;}
	.st9{fill:#D6A083;}
	.st10{fill:#CEBBB2;}
	.st11{fill:#FFFFFF;}
</style>
<rect class="st0" width="1200" height="600"/>
<g>
	<rect x="648" y="457" class="st1" width="310" height="79"/>
</g>
<g>
	<rect x="673" y="378" class="st2" width="260" height="79"/>
</g>
<g>
	<rect x="692" y="299" class="st3" width="223" height="79"/>
</g>
<g>
	<rect x="712" y="220" class="st4" width="182" height="79"/>
</g>
<g>
	<rect x="726" y="141" class="st5" width="155" height="79"/>
</g>
<g>
	<rect x="242" y="458" class="st6" width="310" height="79"/>
</g>
<g>
	<rect x="267" y="379" class="st7" width="260" height="79"/>
</g>
<g>
	<rect x="286" y="300" class="st8" width="223" height="79"/>
</g>
<g>
	<rect x="306" y="221" class="st9" width="182" height="79"/>
</g>
<g>
	<rect x="320" y="142" class="st10" width="155" height="79"/>
</g>
<g>
	<rect x="334" y="62" class="st5" width="127" height="79"/>
</g>
<g>
	<path class="st11" d="M290.03,505.28v-10.29l-7.67-13.97h3.56l3.42,6.7c0.94,1.83,1.66,3.31,2.41,5h0.07
		c0.68-1.58,1.51-3.17,2.45-5l3.49-6.7h3.56l-8.13,13.93v10.33H290.03z"/>
	<path class="st11" d="M317.03,496.42c0,6.44-4.46,9.25-8.67,9.25c-4.72,0-8.35-3.46-8.35-8.96c0-5.83,3.82-9.25,8.64-9.25
		C313.65,487.46,317.03,491.09,317.03,496.42z M303.21,496.6c0,3.82,2.2,6.7,5.29,6.7c3.02,0,5.29-2.84,5.29-6.77
		c0-2.95-1.48-6.7-5.22-6.7C304.83,489.83,303.21,493.29,303.21,496.6z"/>
	<path class="st11" d="M335.61,500.53c0,1.8,0.04,3.38,0.14,4.75h-2.81l-0.18-2.84h-0.07c-0.83,1.4-2.66,3.24-5.76,3.24
		c-2.74,0-6.01-1.51-6.01-7.63v-10.19h3.17v9.65c0,3.31,1.01,5.54,3.89,5.54c2.12,0,3.6-1.48,4.18-2.88
		c0.18-0.47,0.29-1.04,0.29-1.62v-10.69h3.17V500.53z"/>
	<path class="st11" d="M340.86,493.29c0-2.05-0.04-3.82-0.14-5.44h2.77l0.11,3.42h0.14c0.79-2.34,2.7-3.82,4.82-3.82
		c0.36,0,0.61,0.04,0.9,0.11v2.99c-0.32-0.07-0.65-0.11-1.08-0.11c-2.23,0-3.82,1.69-4.25,4.07c-0.07,0.43-0.14,0.94-0.14,1.48v9.29
		h-3.13V493.29z"/>
	<path class="st11" d="M372.69,504.63c-0.83,0.43-2.66,1.01-5,1.01c-5.26,0-8.68-3.56-8.68-8.89c0-5.36,3.67-9.25,9.36-9.25
		c1.87,0,3.53,0.47,4.39,0.9l-0.72,2.45c-0.76-0.43-1.94-0.83-3.67-0.83c-4,0-6.16,2.95-6.16,6.59c0,4.03,2.59,6.51,6.05,6.51
		c1.8,0,2.99-0.47,3.89-0.86L372.69,504.63z"/>
	<path class="st11" d="M391.95,496.42c0,6.44-4.46,9.25-8.67,9.25c-4.72,0-8.35-3.46-8.35-8.96c0-5.83,3.82-9.25,8.64-9.25
		C388.56,487.46,391.95,491.09,391.95,496.42z M378.12,496.6c0,3.82,2.2,6.7,5.29,6.7c3.02,0,5.29-2.84,5.29-6.77
		c0-2.95-1.48-6.7-5.22-6.7C379.74,489.83,378.12,493.29,378.12,496.6z"/>
	<path class="st11" d="M395.94,492.57c0-1.8-0.04-3.28-0.14-4.72h2.77l0.14,2.81h0.11c0.97-1.66,2.59-3.2,5.47-3.2
		c2.38,0,4.18,1.44,4.93,3.49h0.07c0.54-0.97,1.22-1.73,1.94-2.27c1.04-0.79,2.2-1.22,3.85-1.22c2.3,0,5.72,1.51,5.72,7.56v10.26
		h-3.1v-9.86c0-3.35-1.22-5.36-3.78-5.36c-1.8,0-3.2,1.33-3.74,2.88c-0.14,0.43-0.25,1.01-0.25,1.58v10.76h-3.1v-10.44
		c0-2.77-1.22-4.79-3.64-4.79c-1.98,0-3.42,1.58-3.92,3.17c-0.18,0.47-0.25,1.01-0.25,1.55v10.51h-3.1V492.57z"/>
	<path class="st11" d="M425.97,493.54c0-2.23-0.07-4.03-0.14-5.69h2.84l0.14,2.99h0.07c1.3-2.12,3.35-3.38,6.19-3.38
		c4.21,0,7.38,3.56,7.38,8.85c0,6.26-3.82,9.36-7.92,9.36c-2.3,0-4.32-1.01-5.36-2.74h-0.07v9.47h-3.13V493.54z M429.1,498.19
		c0,0.47,0.07,0.9,0.14,1.3c0.58,2.2,2.48,3.71,4.75,3.71c3.35,0,5.29-2.74,5.29-6.73c0-3.49-1.84-6.48-5.18-6.48
		c-2.16,0-4.18,1.55-4.79,3.92c-0.11,0.4-0.22,0.86-0.22,1.3V498.19z"/>
	<path class="st11" d="M461.03,500.53c0,1.8,0.04,3.38,0.14,4.75h-2.81l-0.18-2.84h-0.07c-0.83,1.4-2.66,3.24-5.76,3.24
		c-2.74,0-6.01-1.51-6.01-7.63v-10.19h3.17v9.65c0,3.31,1.01,5.54,3.89,5.54c2.12,0,3.6-1.48,4.18-2.88
		c0.18-0.47,0.29-1.04,0.29-1.62v-10.69h3.17V500.53z"/>
	<path class="st11" d="M470.1,482.85v5h4.54v2.41h-4.54v9.39c0,2.16,0.61,3.38,2.38,3.38c0.83,0,1.44-0.11,1.84-0.22l0.14,2.38
		c-0.61,0.25-1.58,0.43-2.81,0.43c-1.48,0-2.66-0.47-3.42-1.33c-0.9-0.94-1.22-2.48-1.22-4.54v-9.5h-2.7v-2.41h2.7v-4.18
		L470.1,482.85z"/>
	<path class="st11" d="M479.75,497.14c0.07,4.28,2.81,6.05,5.97,6.05c2.27,0,3.64-0.4,4.82-0.9l0.54,2.27
		c-1.12,0.5-3.02,1.08-5.8,1.08c-5.36,0-8.57-3.53-8.57-8.78c0-5.26,3.1-9.39,8.17-9.39c5.69,0,7.2,5,7.2,8.21
		c0,0.65-0.07,1.15-0.11,1.48H479.75z M489.04,494.88c0.04-2.02-0.83-5.15-4.39-5.15c-3.2,0-4.61,2.95-4.86,5.15H489.04z"/>
	<path class="st11" d="M496.02,493.29c0-2.05-0.04-3.82-0.14-5.44h2.77l0.11,3.42h0.14c0.79-2.34,2.7-3.82,4.82-3.82
		c0.36,0,0.61,0.04,0.9,0.11v2.99c-0.32-0.07-0.65-0.11-1.08-0.11c-2.23,0-3.82,1.69-4.25,4.07c-0.07,0.43-0.14,0.94-0.14,1.48v9.29
		h-3.13V493.29z"/>
</g>
<g>
	<path class="st11" d="M343.25,430.36v-10.29l-7.67-13.97h3.56l3.42,6.7c0.94,1.83,1.66,3.31,2.41,5h0.07
		c0.68-1.58,1.51-3.17,2.45-5l3.49-6.7h3.56l-8.13,13.93v10.33H343.25z"/>
	<path class="st11" d="M370.25,421.5c0,6.44-4.46,9.25-8.67,9.25c-4.72,0-8.35-3.46-8.35-8.96c0-5.83,3.82-9.25,8.64-9.25
		C366.87,412.54,370.25,416.18,370.25,421.5z M356.43,421.68c0,3.82,2.2,6.7,5.29,6.7c3.02,0,5.29-2.84,5.29-6.77
		c0-2.95-1.48-6.7-5.22-6.7C358.05,414.92,356.43,418.37,356.43,421.68z"/>
	<path class="st11" d="M388.83,425.61c0,1.8,0.04,3.38,0.14,4.75h-2.81l-0.18-2.84h-0.07c-0.83,1.4-2.66,3.24-5.76,3.24
		c-2.74,0-6.01-1.51-6.01-7.63v-10.19h3.17v9.65c0,3.31,1.01,5.54,3.89,5.54c2.12,0,3.6-1.48,4.18-2.88
		c0.18-0.47,0.29-1.04,0.29-1.62v-10.69h3.17V425.61z"/>
	<path class="st11" d="M394.09,418.37c0-2.05-0.04-3.82-0.14-5.44h2.77l0.11,3.42h0.14c0.79-2.34,2.7-3.82,4.82-3.82
		c0.36,0,0.61,0.04,0.9,0.11v2.99c-0.32-0.07-0.65-0.11-1.08-0.11c-2.23,0-3.82,1.69-4.25,4.07c-0.07,0.43-0.14,0.94-0.14,1.48v9.29
		h-3.13V418.37z"/>
	<path class="st11" d="M434.33,417.98c0,8.35-5.08,12.78-11.27,12.78c-6.41,0-10.91-4.97-10.91-12.31c0-7.7,4.79-12.74,11.27-12.74
		C430.05,405.7,434.33,410.78,434.33,417.98z M415.5,418.37c0,5.18,2.81,9.83,7.74,9.83c4.97,0,7.77-4.57,7.77-10.08
		c0-4.82-2.52-9.86-7.74-9.86C418.1,408.26,415.5,413.04,415.5,418.37z"/>
	<path class="st11" d="M437.97,426.54c1.4,0.86,3.46,1.58,5.62,1.58c3.2,0,5.08-1.69,5.08-4.14c0-2.27-1.3-3.56-4.57-4.82
		c-3.96-1.4-6.41-3.46-6.41-6.88c0-3.78,3.13-6.59,7.85-6.59c2.48,0,4.28,0.58,5.36,1.19l-0.86,2.56c-0.79-0.43-2.41-1.15-4.61-1.15
		c-3.31,0-4.57,1.98-4.57,3.64c0,2.27,1.48,3.38,4.82,4.68c4.1,1.58,6.19,3.56,6.19,7.13c0,3.74-2.77,6.98-8.49,6.98
		c-2.34,0-4.9-0.68-6.19-1.55L437.97,426.54z"/>
</g>
<g>
	<path class="st11" d="M317.83,329.88h-5.74v-2.07h13.97v2.07h-5.77v16.8h-2.46V329.88z"/>
	<path class="st11" d="M327.88,326.8h2.46v8.46h0.06c0.39-0.7,1.01-1.32,1.76-1.74c0.73-0.42,1.6-0.7,2.52-0.7
		c1.82,0,4.73,1.12,4.73,5.8v8.06h-2.46v-7.78c0-2.18-0.81-4.03-3.14-4.03c-1.6,0-2.86,1.12-3.3,2.46c-0.14,0.34-0.17,0.7-0.17,1.18
		v8.18h-2.46V326.8z"/>
	<path class="st11" d="M344.79,340.35c0.06,3.33,2.18,4.7,4.65,4.7c1.76,0,2.83-0.31,3.75-0.7l0.42,1.76
		c-0.87,0.39-2.35,0.84-4.51,0.84c-4.17,0-6.66-2.74-6.66-6.83s2.41-7.31,6.36-7.31c4.42,0,5.6,3.89,5.6,6.38
		c0,0.5-0.06,0.9-0.08,1.15H344.79z M352.02,338.59c0.03-1.57-0.64-4-3.42-4c-2.49,0-3.58,2.3-3.78,4H352.02z"/>
	<path class="st11" d="M363.39,326.8h2.46v8.46h0.06c0.39-0.7,1.01-1.32,1.76-1.74c0.73-0.42,1.6-0.7,2.52-0.7
		c1.82,0,4.73,1.12,4.73,5.8v8.06h-2.46v-7.78c0-2.18-0.81-4.03-3.14-4.03c-1.6,0-2.86,1.12-3.3,2.46c-0.14,0.34-0.17,0.7-0.17,1.18
		v8.18h-2.46V326.8z"/>
	<path class="st11" d="M379.46,333.13l2.97,8.01c0.31,0.9,0.64,1.96,0.87,2.77h0.06c0.25-0.81,0.53-1.85,0.87-2.83l2.69-7.95h2.6
		l-3.7,9.66c-1.76,4.65-2.97,7.03-4.65,8.48c-1.2,1.06-2.41,1.48-3.02,1.6l-0.62-2.07c0.62-0.2,1.43-0.59,2.16-1.2
		c0.67-0.53,1.51-1.48,2.07-2.74c0.11-0.25,0.2-0.45,0.2-0.59s-0.06-0.34-0.17-0.64l-5.01-12.49H379.46z"/>
	<path class="st11" d="M391.75,337.55c0-1.74-0.06-3.14-0.11-4.42h2.21l0.11,2.32h0.06c1.01-1.65,2.6-2.63,4.82-2.63
		c3.28,0,5.74,2.77,5.74,6.89c0,4.87-2.97,7.28-6.16,7.28c-1.79,0-3.36-0.78-4.17-2.13h-0.06v7.36h-2.44V337.55z M394.19,341.16
		c0,0.36,0.06,0.7,0.11,1.01c0.45,1.71,1.93,2.88,3.7,2.88c2.6,0,4.12-2.13,4.12-5.24c0-2.72-1.43-5.04-4.03-5.04
		c-1.68,0-3.25,1.2-3.72,3.05c-0.08,0.31-0.17,0.67-0.17,1.01V341.16z"/>
	<path class="st11" d="M409.05,340.35c0.06,3.33,2.18,4.7,4.65,4.7c1.76,0,2.83-0.31,3.75-0.7l0.42,1.76
		c-0.87,0.39-2.35,0.84-4.51,0.84c-4.17,0-6.66-2.74-6.66-6.83s2.41-7.31,6.36-7.31c4.42,0,5.6,3.89,5.6,6.38
		c0,0.5-0.06,0.9-0.08,1.15H409.05z M416.28,338.59c0.03-1.57-0.64-4-3.42-4c-2.49,0-3.58,2.3-3.78,4H416.28z"/>
	<path class="st11" d="M421.71,337.35c0-1.6-0.03-2.97-0.11-4.23h2.16l0.08,2.66h0.11c0.62-1.82,2.1-2.97,3.75-2.97
		c0.28,0,0.48,0.03,0.7,0.08v2.32c-0.25-0.06-0.5-0.08-0.84-0.08c-1.74,0-2.97,1.32-3.3,3.16c-0.06,0.34-0.11,0.73-0.11,1.15v7.22
		h-2.44V337.35z"/>
	<path class="st11" d="M432.52,333.13l2.66,7.62c0.45,1.23,0.81,2.35,1.09,3.47h0.08c0.31-1.12,0.7-2.24,1.15-3.47l2.63-7.62h2.58
		l-5.32,13.55h-2.35l-5.15-13.55H432.52z"/>
	<path class="st11" d="M447.78,329.32c0.03,0.84-0.59,1.51-1.57,1.51c-0.87,0-1.48-0.67-1.48-1.51c0-0.87,0.64-1.54,1.54-1.54
		C447.19,327.78,447.78,328.45,447.78,329.32z M445.03,346.68v-13.55h2.46v13.55H445.03z"/>
	<path class="st11" d="M451.25,344.16c0.73,0.48,2.02,0.98,3.25,0.98c1.79,0,2.63-0.9,2.63-2.02c0-1.18-0.7-1.82-2.52-2.49
		c-2.44-0.87-3.58-2.21-3.58-3.84c0-2.18,1.76-3.98,4.68-3.98c1.37,0,2.58,0.39,3.33,0.84l-0.62,1.79
		c-0.53-0.34-1.51-0.78-2.77-0.78c-1.46,0-2.27,0.84-2.27,1.85c0,1.12,0.81,1.62,2.58,2.3c2.35,0.9,3.56,2.07,3.56,4.09
		c0,2.38-1.85,4.06-5.07,4.06c-1.48,0-2.86-0.36-3.81-0.92L451.25,344.16z"/>
	<path class="st11" d="M474.94,339.79c0,5.01-3.47,7.2-6.75,7.2c-3.67,0-6.5-2.69-6.5-6.97c0-4.54,2.97-7.2,6.72-7.2
		C472.3,332.82,474.94,335.65,474.94,339.79z M464.18,339.93c0,2.97,1.71,5.21,4.12,5.21c2.35,0,4.12-2.21,4.12-5.26
		c0-2.3-1.15-5.21-4.06-5.21S464.18,337.35,464.18,339.93z"/>
	<path class="st11" d="M478.04,337.35c0-1.6-0.03-2.97-0.11-4.23h2.16l0.08,2.66h0.11c0.62-1.82,2.1-2.97,3.75-2.97
		c0.28,0,0.48,0.03,0.7,0.08v2.32c-0.25-0.06-0.5-0.08-0.84-0.08c-1.74,0-2.97,1.32-3.3,3.16c-0.06,0.34-0.11,0.73-0.11,1.15v7.22
		h-2.44V337.35z"/>
</g>
<g>
	<path class="st11" d="M361.61,269.84c-1.09,0.39-3.25,1.04-5.8,1.04c-2.86,0-5.21-0.73-7.06-2.49c-1.62-1.57-2.63-4.09-2.63-7.03
		c0.03-5.63,3.89-9.74,10.22-9.74c2.18,0,3.89,0.48,4.7,0.87l-0.59,1.99c-1.01-0.45-2.27-0.81-4.17-0.81
		c-4.59,0-7.59,2.86-7.59,7.59c0,4.79,2.88,7.62,7.28,7.62c1.6,0,2.69-0.22,3.25-0.5v-5.63h-3.84v-1.96h6.22V269.84z"/>
	<path class="st11" d="M376.59,266.98c0,1.4,0.03,2.63,0.11,3.7h-2.18l-0.14-2.21h-0.06c-0.64,1.09-2.07,2.52-4.48,2.52
		c-2.13,0-4.68-1.18-4.68-5.94v-7.92h2.46v7.5c0,2.58,0.78,4.31,3.02,4.31c1.65,0,2.8-1.15,3.25-2.24c0.14-0.36,0.22-0.81,0.22-1.26
		v-8.32h2.46V266.98z"/>
	<path class="st11" d="M382.05,264.35c0.06,3.33,2.18,4.7,4.65,4.7c1.76,0,2.83-0.31,3.75-0.7l0.42,1.76
		c-0.87,0.39-2.35,0.84-4.51,0.84c-4.17,0-6.66-2.74-6.66-6.83s2.41-7.31,6.36-7.31c4.42,0,5.6,3.89,5.6,6.38
		c0,0.5-0.06,0.9-0.08,1.15H382.05z M389.27,262.59c0.03-1.57-0.64-4-3.42-4c-2.49,0-3.58,2.3-3.78,4H389.27z"/>
	<path class="st11" d="M394.37,268.16c0.73,0.48,2.02,0.98,3.25,0.98c1.79,0,2.63-0.9,2.63-2.02c0-1.18-0.7-1.82-2.52-2.49
		c-2.44-0.87-3.58-2.21-3.58-3.84c0-2.18,1.76-3.98,4.68-3.98c1.37,0,2.58,0.39,3.33,0.84l-0.62,1.79
		c-0.53-0.34-1.51-0.78-2.77-0.78c-1.46,0-2.27,0.84-2.27,1.85c0,1.12,0.81,1.62,2.58,2.3c2.35,0.9,3.56,2.07,3.56,4.09
		c0,2.38-1.85,4.06-5.07,4.06c-1.48,0-2.86-0.36-3.81-0.92L394.37,268.16z"/>
	<path class="st11" d="M408.76,253.23v3.89h3.53V259h-3.53v7.31c0,1.68,0.48,2.63,1.85,2.63c0.64,0,1.12-0.08,1.43-0.17l0.11,1.85
		c-0.48,0.2-1.23,0.34-2.18,0.34c-1.15,0-2.07-0.36-2.66-1.04c-0.7-0.73-0.95-1.93-0.95-3.53V259h-2.1v-1.88h2.1v-3.25
		L408.76,253.23z"/>
	<path class="st11" d="M437.21,261.05c0,6.5-3.95,9.94-8.76,9.94c-4.98,0-8.48-3.86-8.48-9.58c0-5.99,3.72-9.91,8.76-9.91
		C433.88,251.5,437.21,255.45,437.21,261.05z M422.56,261.35c0,4.03,2.18,7.64,6.02,7.64c3.86,0,6.05-3.56,6.05-7.84
		c0-3.75-1.96-7.67-6.02-7.67C424.58,253.49,422.56,257.21,422.56,261.35z"/>
	<path class="st11" d="M440.04,267.71c1.09,0.67,2.69,1.23,4.37,1.23c2.49,0,3.95-1.32,3.95-3.22c0-1.76-1.01-2.77-3.56-3.75
		c-3.08-1.09-4.98-2.69-4.98-5.35c0-2.94,2.44-5.12,6.1-5.12c1.93,0,3.33,0.45,4.17,0.92l-0.67,1.99c-0.62-0.34-1.88-0.9-3.58-0.9
		c-2.58,0-3.56,1.54-3.56,2.83c0,1.76,1.15,2.63,3.75,3.64c3.19,1.23,4.82,2.77,4.82,5.54c0,2.91-2.16,5.43-6.61,5.43
		c-1.82,0-3.81-0.53-4.82-1.2L440.04,267.71z"/>
</g>
<g>
	<path class="st11" d="M364.36,86.33h-2.87V85.3h6.99v1.04h-2.89v8.4h-1.23V86.33z"/>
	<path class="st11" d="M369.39,84.79h1.23v4.23h0.03c0.2-0.35,0.5-0.66,0.88-0.87c0.36-0.21,0.8-0.35,1.26-0.35
		c0.91,0,2.37,0.56,2.37,2.9v4.03h-1.23v-3.89c0-1.09-0.41-2.02-1.57-2.02c-0.8,0-1.43,0.56-1.65,1.23
		c-0.07,0.17-0.08,0.35-0.08,0.59v4.09h-1.23V84.79z"/>
	<path class="st11" d="M377.84,91.57c0.03,1.67,1.09,2.35,2.33,2.35c0.88,0,1.41-0.15,1.88-0.35l0.21,0.88
		c-0.43,0.2-1.18,0.42-2.25,0.42c-2.09,0-3.33-1.37-3.33-3.42c0-2.05,1.2-3.66,3.18-3.66c2.21,0,2.8,1.95,2.8,3.19
		c0,0.25-0.03,0.45-0.04,0.57H377.84z M381.46,90.69c0.01-0.79-0.32-2-1.71-2c-1.25,0-1.79,1.15-1.89,2H381.46z"/>
	<path class="st11" d="M390.89,94.74l-0.1-0.85h-0.04c-0.38,0.53-1.11,1.01-2.07,1.01c-1.37,0-2.07-0.97-2.07-1.95
		c0-1.64,1.46-2.54,4.08-2.52v-0.14c0-0.56-0.15-1.57-1.54-1.57c-0.63,0-1.29,0.2-1.76,0.5l-0.28-0.81c0.56-0.36,1.37-0.6,2.23-0.6
		c2.07,0,2.58,1.42,2.58,2.77v2.54c0,0.59,0.03,1.16,0.11,1.62H390.89z M390.71,91.28c-1.34-0.03-2.87,0.21-2.87,1.53
		c0,0.8,0.53,1.18,1.16,1.18c0.88,0,1.44-0.56,1.64-1.13c0.04-0.13,0.07-0.27,0.07-0.39V91.28z"/>
	<path class="st11" d="M393.88,90.17c0-0.87-0.03-1.57-0.06-2.21h1.11l0.06,1.16h0.03c0.5-0.83,1.3-1.32,2.41-1.32
		c1.64,0,2.87,1.39,2.87,3.45c0,2.44-1.48,3.64-3.08,3.64c-0.9,0-1.68-0.39-2.09-1.06h-0.03v3.68h-1.22V90.17z M395.1,91.98
		c0,0.18,0.03,0.35,0.06,0.5c0.22,0.85,0.97,1.44,1.85,1.44c1.3,0,2.06-1.06,2.06-2.62c0-1.36-0.71-2.52-2.02-2.52
		c-0.84,0-1.62,0.6-1.86,1.53c-0.04,0.15-0.08,0.34-0.08,0.5V91.98z"/>
	<path class="st11" d="M401.85,90.17c0-0.87-0.03-1.57-0.06-2.21h1.11l0.06,1.16h0.03c0.5-0.83,1.3-1.32,2.41-1.32
		c1.64,0,2.87,1.39,2.87,3.45c0,2.44-1.48,3.64-3.08,3.64c-0.9,0-1.68-0.39-2.09-1.06h-0.03v3.68h-1.22V90.17z M403.07,91.98
		c0,0.18,0.03,0.35,0.06,0.5c0.22,0.85,0.97,1.44,1.85,1.44c1.3,0,2.06-1.06,2.06-2.62c0-1.36-0.71-2.52-2.02-2.52
		c-0.84,0-1.62,0.6-1.86,1.53c-0.04,0.15-0.08,0.34-0.08,0.5V91.98z"/>
	<path class="st11" d="M413.23,87.96l1.48,4.01c0.15,0.45,0.32,0.98,0.43,1.39h0.03c0.13-0.41,0.27-0.92,0.43-1.42l1.34-3.98h1.3
		l-1.85,4.83c-0.88,2.33-1.48,3.52-2.33,4.24c-0.6,0.53-1.2,0.74-1.51,0.8l-0.31-1.04c0.31-0.1,0.71-0.29,1.08-0.6
		c0.34-0.27,0.76-0.74,1.04-1.37c0.06-0.13,0.1-0.22,0.1-0.29s-0.03-0.17-0.08-0.32l-2.51-6.25H413.23z"/>
	<path class="st11" d="M425.37,91.29c0,2.51-1.74,3.6-3.38,3.6c-1.83,0-3.25-1.34-3.25-3.49c0-2.27,1.48-3.6,3.36-3.6
		C424.06,87.8,425.37,89.22,425.37,91.29z M419.99,91.36c0,1.49,0.85,2.61,2.06,2.61c1.18,0,2.06-1.11,2.06-2.63
		c0-1.15-0.57-2.6-2.03-2.6C420.62,88.73,419.99,90.07,419.99,91.36z"/>
	<path class="st11" d="M432.6,92.89c0,0.7,0.01,1.32,0.06,1.85h-1.09l-0.07-1.11h-0.03c-0.32,0.55-1.04,1.26-2.24,1.26
		c-1.06,0-2.34-0.59-2.34-2.97v-3.96h1.23v3.75c0,1.29,0.39,2.16,1.51,2.16c0.83,0,1.4-0.57,1.62-1.12
		c0.07-0.18,0.11-0.41,0.11-0.63v-4.16h1.23V92.89z"/>
	<path class="st11" d="M350.01,104.76l0.9,3.45c0.2,0.76,0.38,1.46,0.5,2.16h0.04c0.15-0.69,0.38-1.42,0.6-2.14l1.11-3.46h1.04
		l1.05,3.39c0.25,0.81,0.45,1.53,0.6,2.21h0.04c0.11-0.69,0.29-1.4,0.52-2.2l0.97-3.4h1.22l-2.19,6.78h-1.12l-1.04-3.24
		c-0.24-0.76-0.43-1.43-0.6-2.23h-0.03c-0.17,0.81-0.38,1.51-0.62,2.24l-1.09,3.22h-1.12l-2.05-6.78H350.01z"/>
	<path class="st11" d="M365.82,108.09c0,2.51-1.74,3.6-3.38,3.6c-1.83,0-3.25-1.34-3.25-3.49c0-2.27,1.48-3.6,3.36-3.6
		C364.5,104.61,365.82,106.02,365.82,108.09z M360.44,108.16c0,1.49,0.85,2.61,2.06,2.61c1.18,0,2.06-1.11,2.06-2.63
		c0-1.15-0.57-2.6-2.03-2.6C361.07,105.53,360.44,106.88,360.44,108.16z"/>
	<path class="st11" d="M373.04,109.69c0,0.7,0.01,1.32,0.06,1.85h-1.09l-0.07-1.11h-0.03c-0.32,0.55-1.04,1.26-2.24,1.26
		c-1.06,0-2.34-0.59-2.34-2.97v-3.96h1.23v3.75c0,1.29,0.39,2.16,1.51,2.16c0.83,0,1.4-0.57,1.62-1.12
		c0.07-0.18,0.11-0.41,0.11-0.63v-4.16h1.23V109.69z"/>
	<path class="st11" d="M375.08,101.59h1.23v9.95h-1.23V101.59z"/>
	<path class="st11" d="M384.24,101.59v8.19c0,0.6,0.01,1.29,0.06,1.75h-1.11l-0.06-1.18h-0.03c-0.38,0.76-1.2,1.33-2.31,1.33
		c-1.64,0-2.9-1.39-2.9-3.45c-0.01-2.25,1.39-3.64,3.04-3.64c1.04,0,1.74,0.49,2.05,1.04h0.03v-4.05H384.24z M383.01,107.52
		c0-0.15-0.01-0.36-0.06-0.52c-0.18-0.79-0.85-1.43-1.78-1.43c-1.27,0-2.03,1.12-2.03,2.62c0,1.37,0.67,2.51,2,2.51
		c0.83,0,1.58-0.55,1.81-1.47c0.04-0.17,0.06-0.34,0.06-0.53V107.52z"/>
	<path class="st11" d="M389.25,101.59h1.23v9.95h-1.23V101.59z"/>
	<path class="st11" d="M393.93,102.85c0.01,0.42-0.29,0.76-0.78,0.76c-0.43,0-0.74-0.34-0.74-0.76c0-0.43,0.32-0.77,0.77-0.77
		C393.63,102.08,393.93,102.42,393.93,102.85z M392.55,111.54v-6.78h1.23v6.78H392.55z"/>
	<path class="st11" d="M397.05,107.87h0.03c0.17-0.24,0.41-0.53,0.6-0.77l1.99-2.34h1.48l-2.62,2.79l2.98,3.99h-1.5l-2.34-3.25
		l-0.63,0.7v2.55h-1.22v-9.95h1.22V107.87z"/>
	<path class="st11" d="M403.08,108.37c0.03,1.67,1.09,2.35,2.33,2.35c0.88,0,1.41-0.15,1.88-0.35l0.21,0.88
		c-0.43,0.2-1.18,0.42-2.25,0.42c-2.09,0-3.33-1.37-3.33-3.42c0-2.05,1.2-3.66,3.18-3.66c2.21,0,2.8,1.95,2.8,3.19
		c0,0.25-0.03,0.45-0.04,0.57H403.08z M406.7,107.49c0.01-0.79-0.32-2-1.71-2c-1.25,0-1.79,1.15-1.89,2H406.7z"/>
	<path class="st11" d="M413.86,102.81v1.95h1.77v0.94h-1.77v3.66c0,0.84,0.24,1.32,0.92,1.32c0.32,0,0.56-0.04,0.71-0.08l0.06,0.92
		c-0.24,0.1-0.62,0.17-1.09,0.17c-0.57,0-1.04-0.18-1.33-0.52c-0.35-0.36-0.48-0.97-0.48-1.77v-3.7h-1.05v-0.94h1.05v-1.62
		L413.86,102.81z"/>
	<path class="st11" d="M423.06,108.09c0,2.51-1.74,3.6-3.38,3.6c-1.83,0-3.25-1.34-3.25-3.49c0-2.27,1.48-3.6,3.36-3.6
		C421.75,104.61,423.06,106.02,423.06,108.09z M417.68,108.16c0,1.49,0.85,2.61,2.06,2.61c1.18,0,2.06-1.11,2.06-2.63
		c0-1.15-0.57-2.6-2.03-2.6C418.31,105.53,417.68,106.88,417.68,108.16z"/>
	<path class="st11" d="M427.58,106.88c0-0.8-0.01-1.49-0.06-2.12h1.08l0.04,1.33h0.06c0.31-0.91,1.05-1.48,1.88-1.48
		c0.14,0,0.24,0.01,0.35,0.04v1.16c-0.13-0.03-0.25-0.04-0.42-0.04c-0.87,0-1.48,0.66-1.65,1.58c-0.03,0.17-0.06,0.36-0.06,0.57
		v3.61h-1.22V106.88z"/>
	<path class="st11" d="M437.83,109.69c0,0.7,0.01,1.32,0.06,1.85h-1.09l-0.07-1.11h-0.03c-0.32,0.55-1.04,1.26-2.24,1.26
		c-1.06,0-2.34-0.59-2.34-2.97v-3.96h1.23v3.75c0,1.29,0.39,2.16,1.51,2.16c0.83,0,1.4-0.57,1.62-1.12
		c0.07-0.18,0.11-0.41,0.11-0.63v-4.16h1.23V109.69z"/>
	<path class="st11" d="M439.87,106.59c0-0.7-0.01-1.28-0.06-1.83h1.09l0.07,1.12h0.03c0.34-0.64,1.12-1.27,2.24-1.27
		c0.94,0,2.4,0.56,2.4,2.89v4.05h-1.23v-3.91c0-1.09-0.41-2-1.57-2c-0.81,0-1.44,0.57-1.65,1.26c-0.06,0.15-0.08,0.36-0.08,0.57
		v4.08h-1.23V106.59z"/>
</g>
<g>
	<path class="st11" d="M350.35,175.75c1.06-0.22,2.74-0.39,4.45-0.39c2.44,0,4,0.42,5.18,1.37c0.98,0.73,1.57,1.85,1.57,3.33
		c0,1.82-1.2,3.42-3.19,4.14v0.06c1.79,0.45,3.89,1.93,3.89,4.73c0,1.62-0.64,2.86-1.6,3.78c-1.32,1.2-3.44,1.76-6.52,1.76
		c-1.68,0-2.97-0.11-3.78-0.22V175.75z M352.79,183.48H355c2.58,0,4.09-1.34,4.09-3.16c0-2.21-1.68-3.08-4.14-3.08
		c-1.12,0-1.76,0.08-2.16,0.17V183.48z M352.79,192.52c0.48,0.08,1.18,0.11,2.04,0.11c2.52,0,4.84-0.92,4.84-3.67
		c0-2.58-2.21-3.64-4.87-3.64h-2.02V192.52z"/>
	<path class="st11" d="M368.19,177.01c0.03,0.84-0.59,1.51-1.57,1.51c-0.87,0-1.48-0.67-1.48-1.51c0-0.87,0.64-1.54,1.54-1.54
		C367.6,175.47,368.19,176.14,368.19,177.01z M365.44,194.37v-13.55h2.46v13.55H365.44z"/>
	<path class="st11" d="M372,184.49c0-1.4-0.03-2.55-0.11-3.67h2.18l0.14,2.24h0.06c0.67-1.29,2.24-2.55,4.48-2.55
		c1.88,0,4.79,1.12,4.79,5.77v8.09h-2.46v-7.81c0-2.18-0.81-4-3.14-4c-1.62,0-2.88,1.15-3.3,2.52c-0.11,0.31-0.17,0.73-0.17,1.15
		v8.15H372V184.49z"/>
	<path class="st11" d="M387.2,191.85c0.73,0.48,2.02,0.98,3.25,0.98c1.79,0,2.63-0.9,2.63-2.02c0-1.18-0.7-1.82-2.52-2.49
		c-2.44-0.87-3.58-2.21-3.58-3.84c0-2.18,1.76-3.98,4.68-3.98c1.37,0,2.58,0.39,3.33,0.84l-0.62,1.79
		c-0.53-0.34-1.51-0.78-2.77-0.78c-1.46,0-2.27,0.84-2.27,1.85c0,1.12,0.81,1.62,2.58,2.3c2.35,0.9,3.56,2.07,3.56,4.09
		c0,2.38-1.85,4.06-5.07,4.06c-1.48,0-2.86-0.36-3.81-0.92L387.2,191.85z"/>
	<path class="st11" d="M396.55,195.49l7.81-20.3h1.9l-7.84,20.3H396.55z"/>
	<path class="st11" d="M408.31,175.5h2.44v16.83h8.06v2.04h-10.5V175.5z"/>
	<path class="st11" d="M424.19,177.01c0.03,0.84-0.59,1.51-1.57,1.51c-0.87,0-1.48-0.67-1.48-1.51c0-0.87,0.64-1.54,1.54-1.54
		C423.6,175.47,424.19,176.14,424.19,177.01z M421.44,194.37v-13.55h2.46v13.55H421.44z"/>
	<path class="st11" d="M427.88,194.37c0.06-0.92,0.11-2.3,0.11-3.5v-16.38h2.44V183h0.06c0.87-1.51,2.44-2.49,4.62-2.49
		c3.36,0,5.74,2.8,5.71,6.92c0,4.84-3.05,7.25-6.08,7.25c-1.96,0-3.53-0.76-4.54-2.55h-0.08l-0.11,2.24H427.88z M430.43,188.94
		c0,0.31,0.06,0.62,0.11,0.9c0.48,1.71,1.9,2.88,3.7,2.88c2.58,0,4.12-2.1,4.12-5.21c0-2.72-1.4-5.04-4.03-5.04
		c-1.68,0-3.25,1.15-3.75,3.02c-0.06,0.28-0.14,0.62-0.14,1.01V188.94z"/>
	<path class="st11" d="M443.59,191.85c0.73,0.48,2.02,0.98,3.25,0.98c1.79,0,2.63-0.9,2.63-2.02c0-1.18-0.7-1.82-2.52-2.49
		c-2.44-0.87-3.58-2.21-3.58-3.84c0-2.18,1.76-3.98,4.68-3.98c1.37,0,2.58,0.39,3.33,0.84l-0.62,1.79
		c-0.53-0.34-1.51-0.78-2.77-0.78c-1.46,0-2.27,0.84-2.27,1.85c0,1.12,0.81,1.62,2.58,2.3c2.35,0.9,3.56,2.07,3.56,4.09
		c0,2.38-1.85,4.06-5.07,4.06c-1.48,0-2.86-0.36-3.81-0.92L443.59,191.85z"/>
</g>
<g>
	<path class="st11" d="M695.03,505.28v-10.29l-7.67-13.97h3.56l3.42,6.7c0.94,1.83,1.66,3.31,2.41,5h0.07
		c0.68-1.58,1.51-3.17,2.45-5l3.49-6.7h3.56l-8.13,13.93v10.33H695.03z"/>
	<path class="st11" d="M722.03,496.42c0,6.44-4.46,9.25-8.67,9.25c-4.72,0-8.35-3.46-8.35-8.96c0-5.83,3.82-9.25,8.64-9.25
		C718.65,487.46,722.03,491.09,722.03,496.42z M708.21,496.6c0,3.82,2.2,6.7,5.29,6.7c3.02,0,5.29-2.84,5.29-6.77
		c0-2.95-1.48-6.7-5.22-6.7C709.83,489.83,708.21,493.29,708.21,496.6z"/>
	<path class="st11" d="M740.61,500.53c0,1.8,0.04,3.38,0.14,4.75h-2.81l-0.18-2.84h-0.07c-0.83,1.4-2.66,3.24-5.76,3.24
		c-2.73,0-6.01-1.51-6.01-7.63v-10.19h3.17v9.65c0,3.31,1.01,5.54,3.89,5.54c2.12,0,3.6-1.48,4.18-2.88
		c0.18-0.47,0.29-1.04,0.29-1.62v-10.69h3.17V500.53z"/>
	<path class="st11" d="M745.87,493.29c0-2.05-0.04-3.82-0.14-5.44h2.77l0.11,3.42h0.14c0.79-2.34,2.7-3.82,4.82-3.82
		c0.36,0,0.61,0.04,0.9,0.11v2.99c-0.32-0.07-0.65-0.11-1.08-0.11c-2.23,0-3.82,1.69-4.25,4.07c-0.07,0.43-0.14,0.94-0.14,1.48v9.29
		h-3.13V493.29z"/>
	<path class="st11" d="M777.69,504.63c-0.83,0.43-2.66,1.01-5,1.01c-5.26,0-8.68-3.56-8.68-8.89c0-5.36,3.67-9.25,9.36-9.25
		c1.87,0,3.53,0.47,4.39,0.9l-0.72,2.45c-0.76-0.43-1.94-0.83-3.67-0.83c-4,0-6.16,2.95-6.16,6.59c0,4.03,2.59,6.51,6.05,6.51
		c1.8,0,2.99-0.47,3.89-0.86L777.69,504.63z"/>
	<path class="st11" d="M796.95,496.42c0,6.44-4.46,9.25-8.67,9.25c-4.71,0-8.35-3.46-8.35-8.96c0-5.83,3.82-9.25,8.64-9.25
		C793.56,487.46,796.95,491.09,796.95,496.42z M783.12,496.6c0,3.82,2.2,6.7,5.29,6.7c3.02,0,5.29-2.84,5.29-6.77
		c0-2.95-1.48-6.7-5.22-6.7S783.12,493.29,783.12,496.6z"/>
	<path class="st11" d="M800.94,492.57c0-1.8-0.04-3.28-0.14-4.72h2.77l0.14,2.81h0.11c0.97-1.66,2.59-3.2,5.47-3.2
		c2.38,0,4.18,1.44,4.93,3.49h0.07c0.54-0.97,1.22-1.73,1.94-2.27c1.04-0.79,2.2-1.22,3.85-1.22c2.3,0,5.72,1.51,5.72,7.56v10.26
		h-3.1v-9.86c0-3.35-1.22-5.36-3.78-5.36c-1.8,0-3.2,1.33-3.74,2.88c-0.14,0.43-0.25,1.01-0.25,1.58v10.76h-3.1v-10.44
		c0-2.77-1.22-4.79-3.64-4.79c-1.98,0-3.42,1.58-3.92,3.17c-0.18,0.47-0.25,1.01-0.25,1.55v10.51h-3.1V492.57z"/>
	<path class="st11" d="M830.97,493.54c0-2.23-0.07-4.03-0.14-5.69h2.84l0.14,2.99h0.07c1.3-2.12,3.35-3.38,6.19-3.38
		c4.21,0,7.38,3.56,7.38,8.85c0,6.26-3.82,9.36-7.92,9.36c-2.3,0-4.32-1.01-5.36-2.74h-0.07v9.47h-3.13V493.54z M834.1,498.19
		c0,0.47,0.07,0.9,0.14,1.3c0.58,2.2,2.48,3.71,4.75,3.71c3.35,0,5.29-2.74,5.29-6.73c0-3.49-1.83-6.48-5.18-6.48
		c-2.16,0-4.18,1.55-4.79,3.92c-0.11,0.4-0.22,0.86-0.22,1.3V498.19z"/>
	<path class="st11" d="M866.03,500.53c0,1.8,0.04,3.38,0.14,4.75h-2.81l-0.18-2.84h-0.07c-0.83,1.4-2.66,3.24-5.76,3.24
		c-2.74,0-6.01-1.51-6.01-7.63v-10.19h3.17v9.65c0,3.31,1.01,5.54,3.89,5.54c2.12,0,3.6-1.48,4.18-2.88
		c0.18-0.47,0.29-1.04,0.29-1.62v-10.69h3.17V500.53z"/>
	<path class="st11" d="M875.1,482.85v5h4.54v2.41h-4.54v9.39c0,2.16,0.61,3.38,2.38,3.38c0.83,0,1.44-0.11,1.84-0.22l0.14,2.38
		c-0.61,0.25-1.58,0.43-2.81,0.43c-1.48,0-2.66-0.47-3.42-1.33c-0.9-0.94-1.22-2.48-1.22-4.54v-9.5h-2.7v-2.41h2.7v-4.18
		L875.1,482.85z"/>
	<path class="st11" d="M884.75,497.14c0.07,4.28,2.81,6.05,5.97,6.05c2.27,0,3.64-0.4,4.82-0.9l0.54,2.27
		c-1.12,0.5-3.02,1.08-5.8,1.08c-5.36,0-8.57-3.53-8.57-8.78c0-5.26,3.1-9.39,8.17-9.39c5.69,0,7.2,5,7.2,8.21
		c0,0.65-0.07,1.15-0.11,1.48H884.75z M894.04,494.88c0.04-2.02-0.83-5.15-4.39-5.15c-3.2,0-4.61,2.95-4.86,5.15H894.04z"/>
	<path class="st11" d="M901.02,493.29c0-2.05-0.04-3.82-0.14-5.44h2.77l0.11,3.42h0.14c0.79-2.34,2.7-3.82,4.82-3.82
		c0.36,0,0.61,0.04,0.9,0.11v2.99c-0.32-0.07-0.65-0.11-1.08-0.11c-2.23,0-3.82,1.69-4.25,4.07c-0.07,0.43-0.14,0.94-0.14,1.48v9.29
		h-3.13V493.29z"/>
</g>
<g>
	<path class="st11" d="M748.25,430.36v-10.29l-7.67-13.97h3.56l3.42,6.7c0.94,1.83,1.66,3.31,2.41,5h0.07
		c0.68-1.58,1.51-3.17,2.45-5l3.49-6.7h3.56l-8.13,13.93v10.33H748.25z"/>
	<path class="st11" d="M775.25,421.5c0,6.44-4.46,9.25-8.67,9.25c-4.72,0-8.35-3.46-8.35-8.96c0-5.83,3.82-9.25,8.64-9.25
		C771.87,412.54,775.25,416.18,775.25,421.5z M761.43,421.68c0,3.82,2.2,6.7,5.29,6.7c3.02,0,5.29-2.84,5.29-6.77
		c0-2.95-1.48-6.7-5.22-6.7C763.05,414.92,761.43,418.37,761.43,421.68z"/>
	<path class="st11" d="M793.83,425.61c0,1.8,0.04,3.38,0.14,4.75h-2.81l-0.18-2.84h-0.07c-0.83,1.4-2.66,3.24-5.76,3.24
		c-2.73,0-6.01-1.51-6.01-7.63v-10.19h3.17v9.65c0,3.31,1.01,5.54,3.89,5.54c2.12,0,3.6-1.48,4.18-2.88
		c0.18-0.47,0.29-1.04,0.29-1.62v-10.69h3.17V425.61z"/>
	<path class="st11" d="M799.09,418.37c0-2.05-0.04-3.82-0.14-5.44h2.77l0.11,3.42h0.14c0.79-2.34,2.7-3.82,4.82-3.82
		c0.36,0,0.61,0.04,0.9,0.11v2.99c-0.32-0.07-0.65-0.11-1.08-0.11c-2.23,0-3.82,1.69-4.25,4.07c-0.07,0.43-0.14,0.94-0.14,1.48v9.29
		h-3.13V418.37z"/>
	<path class="st11" d="M839.33,417.98c0,8.35-5.08,12.78-11.27,12.78c-6.41,0-10.91-4.97-10.91-12.31c0-7.7,4.79-12.74,11.27-12.74
		C835.05,405.7,839.33,410.78,839.33,417.98z M820.5,418.37c0,5.18,2.81,9.83,7.74,9.83c4.97,0,7.77-4.57,7.77-10.08
		c0-4.82-2.52-9.86-7.74-9.86C823.1,408.26,820.5,413.04,820.5,418.37z"/>
	<path class="st11" d="M842.97,426.54c1.4,0.86,3.46,1.58,5.62,1.58c3.2,0,5.08-1.69,5.08-4.14c0-2.27-1.3-3.56-4.57-4.82
		c-3.96-1.4-6.41-3.46-6.41-6.88c0-3.78,3.13-6.59,7.85-6.59c2.48,0,4.28,0.58,5.36,1.19l-0.86,2.56c-0.79-0.43-2.41-1.15-4.61-1.15
		c-3.31,0-4.57,1.98-4.57,3.64c0,2.27,1.48,3.38,4.82,4.68c4.1,1.58,6.19,3.56,6.19,7.13c0,3.74-2.77,6.98-8.5,6.98
		c-2.34,0-4.9-0.68-6.19-1.55L842.97,426.54z"/>
</g>
<g>
	<path class="st11" d="M761.25,327.06c1.48-0.22,3.25-0.39,5.18-0.39c3.5,0,5.99,0.81,7.64,2.35c1.68,1.54,2.66,3.72,2.66,6.78
		c0,3.08-0.95,5.6-2.72,7.34c-1.76,1.76-4.68,2.72-8.34,2.72c-1.74,0-3.19-0.08-4.42-0.22V327.06z M763.68,343.75
		c0.62,0.11,1.51,0.14,2.46,0.14c5.21,0,8.04-2.91,8.04-8.01c0.03-4.45-2.49-7.28-7.64-7.28c-1.26,0-2.21,0.11-2.86,0.25V343.75z"/>
	<path class="st11" d="M792.19,338.79c0,5.01-3.47,7.2-6.75,7.2c-3.67,0-6.5-2.69-6.5-6.97c0-4.54,2.97-7.2,6.72-7.2
		C789.55,331.82,792.19,334.65,792.19,338.79z M781.43,338.93c0,2.97,1.71,5.21,4.12,5.21c2.35,0,4.12-2.21,4.12-5.26
		c0-2.3-1.15-5.21-4.06-5.21S781.43,336.35,781.43,338.93z"/>
	<path class="st11" d="M804.95,345.17c-0.64,0.34-2.07,0.78-3.89,0.78c-4.09,0-6.75-2.77-6.75-6.92c0-4.17,2.86-7.2,7.28-7.2
		c1.46,0,2.74,0.36,3.42,0.7l-0.56,1.9c-0.59-0.34-1.51-0.64-2.86-0.64c-3.11,0-4.79,2.3-4.79,5.12c0,3.14,2.02,5.07,4.7,5.07
		c1.4,0,2.32-0.36,3.02-0.67L804.95,345.17z"/>
	<path class="st11" d="M810.27,338.34h0.06c0.34-0.48,0.81-1.06,1.2-1.54l3.98-4.68h2.97l-5.24,5.57l5.96,7.98h-3l-4.68-6.5
		l-1.26,1.4v5.1h-2.44V325.8h2.44V338.34z"/>
	<path class="st11" d="M822.34,339.35c0.06,3.33,2.18,4.7,4.65,4.7c1.76,0,2.83-0.31,3.75-0.7l0.42,1.76
		c-0.87,0.39-2.35,0.84-4.51,0.84c-4.17,0-6.66-2.74-6.66-6.83s2.41-7.31,6.36-7.31c4.42,0,5.6,3.89,5.6,6.38
		c0,0.5-0.06,0.9-0.08,1.15H822.34z M829.57,337.59c0.03-1.57-0.64-4-3.42-4c-2.49,0-3.58,2.3-3.78,4H829.57z"/>
	<path class="st11" d="M835,336.35c0-1.6-0.03-2.97-0.11-4.23h2.16l0.08,2.66h0.11c0.62-1.82,2.1-2.97,3.75-2.97
		c0.28,0,0.48,0.03,0.7,0.08v2.32c-0.25-0.06-0.5-0.08-0.84-0.08c-1.74,0-2.97,1.32-3.3,3.16c-0.06,0.34-0.11,0.73-0.11,1.15v7.22
		H835V336.35z"/>
</g>
<g>
	<path class="st11" d="M754.63,160h-4.1v-1.48h9.98V160h-4.12v12h-1.76V160z"/>
	<path class="st11" d="M761.81,157.8h1.76v6.04h0.04c0.28-0.5,0.72-0.94,1.26-1.24c0.52-0.3,1.14-0.5,1.8-0.5
		c1.3,0,3.38,0.8,3.38,4.14V172h-1.76v-5.56c0-1.56-0.58-2.88-2.24-2.88c-1.14,0-2.04,0.8-2.36,1.76c-0.1,0.24-0.12,0.5-0.12,0.84
		V172h-1.76V157.8z"/>
	<path class="st11" d="M773.89,167.48c0.04,2.38,1.56,3.36,3.32,3.36c1.26,0,2.02-0.22,2.68-0.5l0.3,1.26
		c-0.62,0.28-1.68,0.6-3.22,0.6c-2.98,0-4.76-1.96-4.76-4.88c0-2.92,1.72-5.22,4.54-5.22c3.16,0,4,2.78,4,4.56
		c0,0.36-0.04,0.64-0.06,0.82H773.89z M779.05,166.22c0.02-1.12-0.46-2.86-2.44-2.86c-1.78,0-2.56,1.64-2.7,2.86H779.05z"/>
	<path class="st11" d="M792.53,172l-0.14-1.22h-0.06c-0.54,0.76-1.58,1.44-2.96,1.44c-1.96,0-2.96-1.38-2.96-2.78
		c0-2.34,2.08-3.62,5.82-3.6v-0.2c0-0.8-0.22-2.24-2.2-2.24c-0.9,0-1.84,0.28-2.52,0.72l-0.4-1.16c0.8-0.52,1.96-0.86,3.18-0.86
		c2.96,0,3.68,2.02,3.68,3.96v3.62c0,0.84,0.04,1.66,0.16,2.32H792.53z M792.27,167.06c-1.92-0.04-4.1,0.3-4.1,2.18
		c0,1.14,0.76,1.68,1.66,1.68c1.26,0,2.06-0.8,2.34-1.62c0.06-0.18,0.1-0.38,0.1-0.56V167.06z"/>
	<path class="st11" d="M796.81,165.48c0-1.24-0.04-2.24-0.08-3.16h1.58l0.08,1.66h0.04c0.72-1.18,1.86-1.88,3.44-1.88
		c2.34,0,4.1,1.98,4.1,4.92c0,3.48-2.12,5.2-4.4,5.2c-1.28,0-2.4-0.56-2.98-1.52h-0.04v5.26h-1.74V165.48z M798.55,168.06
		c0,0.26,0.04,0.5,0.08,0.72c0.32,1.22,1.38,2.06,2.64,2.06c1.86,0,2.94-1.52,2.94-3.74c0-1.94-1.02-3.6-2.88-3.6
		c-1.2,0-2.32,0.86-2.66,2.18c-0.06,0.22-0.12,0.48-0.12,0.72V168.06z"/>
	<path class="st11" d="M808.19,165.48c0-1.24-0.04-2.24-0.08-3.16h1.58l0.08,1.66h0.04c0.72-1.18,1.86-1.88,3.44-1.88
		c2.34,0,4.1,1.98,4.1,4.92c0,3.48-2.12,5.2-4.4,5.2c-1.28,0-2.4-0.56-2.98-1.52h-0.04v5.26h-1.74V165.48z M809.93,168.06
		c0,0.26,0.04,0.5,0.08,0.72c0.32,1.22,1.38,2.06,2.64,2.06c1.86,0,2.94-1.52,2.94-3.74c0-1.94-1.02-3.6-2.88-3.6
		c-1.2,0-2.32,0.86-2.66,2.18c-0.06,0.22-0.12,0.48-0.12,0.72V168.06z"/>
	<path class="st11" d="M824.45,162.32l2.12,5.72c0.22,0.64,0.46,1.4,0.62,1.98h0.04c0.18-0.58,0.38-1.32,0.62-2.02l1.92-5.68h1.86
		l-2.64,6.9c-1.26,3.32-2.12,5.02-3.32,6.06c-0.86,0.76-1.72,1.06-2.16,1.14l-0.44-1.48c0.44-0.14,1.02-0.42,1.54-0.86
		c0.48-0.38,1.08-1.06,1.48-1.96c0.08-0.18,0.14-0.32,0.14-0.42c0-0.1-0.04-0.24-0.12-0.46l-3.58-8.92H824.45z"/>
	<path class="st11" d="M841.79,167.08c0,3.58-2.48,5.14-4.82,5.14c-2.62,0-4.64-1.92-4.64-4.98c0-3.24,2.12-5.14,4.8-5.14
		C839.91,162.1,841.79,164.12,841.79,167.08z M834.11,167.18c0,2.12,1.22,3.72,2.94,3.72c1.68,0,2.94-1.58,2.94-3.76
		c0-1.64-0.82-3.72-2.9-3.72S834.11,165.34,834.11,167.18z"/>
	<path class="st11" d="M852.11,169.36c0,1,0.02,1.88,0.08,2.64h-1.56l-0.1-1.58h-0.04c-0.46,0.78-1.48,1.8-3.2,1.8
		c-1.52,0-3.34-0.84-3.34-4.24v-5.66h1.76v5.36c0,1.84,0.56,3.08,2.16,3.08c1.18,0,2-0.82,2.32-1.6c0.1-0.26,0.16-0.58,0.16-0.9
		v-5.94h1.76V169.36z"/>
	<path class="st11" d="M734.13,186.32l1.28,4.92c0.28,1.08,0.54,2.08,0.72,3.08h0.06c0.22-0.98,0.54-2.02,0.86-3.06l1.58-4.94h1.48
		l1.5,4.84c0.36,1.16,0.64,2.18,0.86,3.16h0.06c0.16-0.98,0.42-2,0.74-3.14l1.38-4.86h1.74l-3.12,9.68h-1.6l-1.48-4.62
		c-0.34-1.08-0.62-2.04-0.86-3.18h-0.04c-0.24,1.16-0.54,2.16-0.88,3.2l-1.56,4.6h-1.6l-2.92-9.68H734.13z"/>
	<path class="st11" d="M756.71,191.08c0,3.58-2.48,5.14-4.82,5.14c-2.62,0-4.64-1.92-4.64-4.98c0-3.24,2.12-5.14,4.8-5.14
		C754.83,186.1,756.71,188.12,756.71,191.08z M749.03,191.18c0,2.12,1.22,3.72,2.94,3.72c1.68,0,2.94-1.58,2.94-3.76
		c0-1.64-0.82-3.72-2.9-3.72S749.03,189.34,749.03,191.18z"/>
	<path class="st11" d="M767.03,193.36c0,1,0.02,1.88,0.08,2.64h-1.56l-0.1-1.58h-0.04c-0.46,0.78-1.48,1.8-3.2,1.8
		c-1.52,0-3.34-0.84-3.34-4.24v-5.66h1.76v5.36c0,1.84,0.56,3.08,2.16,3.08c1.18,0,2-0.82,2.32-1.6c0.1-0.26,0.16-0.58,0.16-0.9
		v-5.94h1.76V193.36z"/>
	<path class="st11" d="M769.95,181.8h1.76V196h-1.76V181.8z"/>
	<path class="st11" d="M783.03,181.8v11.7c0,0.86,0.02,1.84,0.08,2.5h-1.58l-0.08-1.68h-0.04c-0.54,1.08-1.72,1.9-3.3,1.9
		c-2.34,0-4.14-1.98-4.14-4.92c-0.02-3.22,1.98-5.2,4.34-5.2c1.48,0,2.48,0.7,2.92,1.48h0.04v-5.78H783.03z M781.27,190.26
		c0-0.22-0.02-0.52-0.08-0.74c-0.26-1.12-1.22-2.04-2.54-2.04c-1.82,0-2.9,1.6-2.9,3.74c0,1.96,0.96,3.58,2.86,3.58
		c1.18,0,2.26-0.78,2.58-2.1c0.06-0.24,0.08-0.48,0.08-0.76V190.26z"/>
	<path class="st11" d="M790.19,181.8h1.76V196h-1.76V181.8z"/>
	<path class="st11" d="M796.87,183.6c0.02,0.6-0.42,1.08-1.12,1.08c-0.62,0-1.06-0.48-1.06-1.08c0-0.62,0.46-1.1,1.1-1.1
		C796.45,182.5,796.87,182.98,796.87,183.6z M794.91,196v-9.68h1.76V196H794.91z"/>
	<path class="st11" d="M801.33,190.76h0.04c0.24-0.34,0.58-0.76,0.86-1.1l2.84-3.34h2.12l-3.74,3.98l4.26,5.7h-2.14l-3.34-4.64
		l-0.9,1V196h-1.74v-14.2h1.74V190.76z"/>
	<path class="st11" d="M809.95,191.48c0.04,2.38,1.56,3.36,3.32,3.36c1.26,0,2.02-0.22,2.68-0.5l0.3,1.26
		c-0.62,0.28-1.68,0.6-3.22,0.6c-2.98,0-4.76-1.96-4.76-4.88c0-2.92,1.72-5.22,4.54-5.22c3.16,0,4,2.78,4,4.56
		c0,0.36-0.04,0.64-0.06,0.82H809.95z M815.11,190.22c0.02-1.12-0.46-2.86-2.44-2.86c-1.78,0-2.56,1.64-2.7,2.86H815.11z"/>
	<path class="st11" d="M825.35,183.54v2.78h2.52v1.34h-2.52v5.22c0,1.2,0.34,1.88,1.32,1.88c0.46,0,0.8-0.06,1.02-0.12l0.08,1.32
		c-0.34,0.14-0.88,0.24-1.56,0.24c-0.82,0-1.48-0.26-1.9-0.74c-0.5-0.52-0.68-1.38-0.68-2.52v-5.28h-1.5v-1.34h1.5V184
		L825.35,183.54z"/>
	<path class="st11" d="M838.49,191.08c0,3.58-2.48,5.14-4.82,5.14c-2.62,0-4.64-1.92-4.64-4.98c0-3.24,2.12-5.14,4.8-5.14
		C836.61,186.1,838.49,188.12,838.49,191.08z M830.81,191.18c0,2.12,1.22,3.72,2.94,3.72c1.68,0,2.94-1.58,2.94-3.76
		c0-1.64-0.82-3.72-2.9-3.72S830.81,189.34,830.81,191.18z"/>
	<path class="st11" d="M844.95,189.34c0-1.14-0.02-2.12-0.08-3.02h1.54l0.06,1.9h0.08c0.44-1.3,1.5-2.12,2.68-2.12
		c0.2,0,0.34,0.02,0.5,0.06v1.66c-0.18-0.04-0.36-0.06-0.6-0.06c-1.24,0-2.12,0.94-2.36,2.26c-0.04,0.24-0.08,0.52-0.08,0.82V196
		h-1.74V189.34z"/>
	<path class="st11" d="M859.59,193.36c0,1,0.02,1.88,0.08,2.64h-1.56l-0.1-1.58h-0.04c-0.46,0.78-1.48,1.8-3.2,1.8
		c-1.52,0-3.34-0.84-3.34-4.24v-5.66h1.76v5.36c0,1.84,0.56,3.08,2.16,3.08c1.18,0,2-0.82,2.32-1.6c0.1-0.26,0.16-0.58,0.16-0.9
		v-5.94h1.76V193.36z"/>
	<path class="st11" d="M862.51,188.94c0-1-0.02-1.82-0.08-2.62h1.56l0.1,1.6h0.04c0.48-0.92,1.6-1.82,3.2-1.82
		c1.34,0,3.42,0.8,3.42,4.12V196h-1.76v-5.58c0-1.56-0.58-2.86-2.24-2.86c-1.16,0-2.06,0.82-2.36,1.8
		c-0.08,0.22-0.12,0.52-0.12,0.82V196h-1.76V188.94z"/>
</g>
<g>
	<path class="st11" d="M750.35,252.75c1.06-0.22,2.74-0.39,4.45-0.39c2.44,0,4,0.42,5.18,1.37c0.98,0.73,1.57,1.85,1.57,3.33
		c0,1.82-1.2,3.42-3.19,4.14v0.06c1.79,0.45,3.89,1.93,3.89,4.73c0,1.62-0.64,2.86-1.6,3.78c-1.32,1.2-3.44,1.76-6.52,1.76
		c-1.68,0-2.97-0.11-3.78-0.22V252.75z M752.79,260.48H755c2.58,0,4.09-1.34,4.09-3.16c0-2.21-1.68-3.08-4.14-3.08
		c-1.12,0-1.76,0.08-2.16,0.17V260.48z M752.79,269.52c0.48,0.08,1.18,0.11,2.04,0.11c2.52,0,4.84-0.92,4.84-3.67
		c0-2.58-2.21-3.64-4.87-3.64h-2.02V269.52z"/>
	<path class="st11" d="M768.19,254.01c0.03,0.84-0.59,1.51-1.57,1.51c-0.87,0-1.48-0.67-1.48-1.51c0-0.87,0.64-1.54,1.54-1.54
		C767.6,252.47,768.19,253.14,768.19,254.01z M765.44,271.37v-13.55h2.46v13.55H765.44z"/>
	<path class="st11" d="M772,261.49c0-1.4-0.03-2.55-0.11-3.67h2.18l0.14,2.24h0.06c0.67-1.29,2.24-2.55,4.48-2.55
		c1.88,0,4.79,1.12,4.79,5.77v8.09h-2.46v-7.81c0-2.18-0.81-4-3.14-4c-1.62,0-2.88,1.15-3.3,2.52c-0.11,0.31-0.17,0.73-0.17,1.15
		v8.15H772V261.49z"/>
	<path class="st11" d="M787.2,268.85c0.73,0.48,2.02,0.98,3.25,0.98c1.79,0,2.63-0.9,2.63-2.02c0-1.18-0.7-1.82-2.52-2.49
		c-2.44-0.87-3.58-2.21-3.58-3.84c0-2.18,1.76-3.98,4.68-3.98c1.37,0,2.58,0.39,3.33,0.84l-0.62,1.79
		c-0.53-0.34-1.51-0.78-2.77-0.78c-1.46,0-2.27,0.84-2.27,1.85c0,1.12,0.81,1.62,2.58,2.3c2.35,0.9,3.56,2.07,3.56,4.09
		c0,2.38-1.85,4.06-5.07,4.06c-1.48,0-2.86-0.36-3.81-0.92L787.2,268.85z"/>
	<path class="st11" d="M796.55,272.49l7.81-20.3h1.9l-7.84,20.3H796.55z"/>
	<path class="st11" d="M808.31,252.5h2.44v16.83h8.06v2.04h-10.5V252.5z"/>
	<path class="st11" d="M824.19,254.01c0.03,0.84-0.59,1.51-1.57,1.51c-0.87,0-1.48-0.67-1.48-1.51c0-0.87,0.64-1.54,1.54-1.54
		C823.6,252.47,824.19,253.14,824.19,254.01z M821.44,271.37v-13.55h2.46v13.55H821.44z"/>
	<path class="st11" d="M827.88,271.37c0.06-0.92,0.11-2.3,0.11-3.5v-16.38h2.44V260h0.06c0.87-1.51,2.44-2.49,4.62-2.49
		c3.36,0,5.74,2.8,5.71,6.92c0,4.84-3.05,7.25-6.08,7.25c-1.96,0-3.53-0.76-4.54-2.55h-0.08l-0.11,2.24H827.88z M830.43,265.94
		c0,0.31,0.06,0.62,0.11,0.9c0.48,1.71,1.9,2.88,3.7,2.88c2.58,0,4.12-2.1,4.12-5.21c0-2.72-1.4-5.04-4.03-5.04
		c-1.68,0-3.25,1.15-3.75,3.02c-0.06,0.28-0.14,0.62-0.14,1.01V265.94z"/>
	<path class="st11" d="M843.59,268.85c0.73,0.48,2.02,0.98,3.25,0.98c1.79,0,2.63-0.9,2.63-2.02c0-1.18-0.7-1.82-2.52-2.49
		c-2.44-0.87-3.58-2.21-3.58-3.84c0-2.18,1.76-3.98,4.68-3.98c1.37,0,2.58,0.39,3.33,0.84l-0.62,1.79
		c-0.53-0.34-1.51-0.78-2.77-0.78c-1.46,0-2.27,0.84-2.27,1.85c0,1.12,0.81,1.62,2.58,2.3c2.35,0.9,3.56,2.07,3.56,4.09
		c0,2.38-1.85,4.06-5.07,4.06c-1.48,0-2.86-0.36-3.81-0.92L843.59,268.85z"/>
</g>
<g>
	<path class="st6" d="M220.82,524.98l21.31,4.55v5.85l-67.74-14.88v-6.82l67.74-14.94v6.04l-21.31,4.68V524.98z M213.99,510.62
		l-19.5,4.29c-4.42,0.97-8.44,1.62-12.36,2.27v0.13c4.02,0.65,8.14,1.36,12.26,2.21l19.6,4.29V510.62z"/>
	<path class="st6" d="M193.48,476.51l27.34-6.17c4.42-1.04,8.44-1.88,12.46-2.53v-0.2c-4.02-0.71-8.04-1.62-12.46-2.66l-27.34-6.11
		v-5.98l48.65,12.34v5.46l-48.65,11.96V476.51z"/>
	<path class="st6" d="M179.82,441.1c3.02-0.06,5.43,1.36,5.43,3.64c0,2.01-2.41,3.44-5.43,3.44c-3.12,0-5.53-1.49-5.53-3.57
		C174.29,442.47,176.7,441.1,179.82,441.1z M242.13,447.47h-48.65v-5.72h48.65V447.47z"/>
	<path class="st6" d="M208.66,432.27c-5.73,0-10.65,0.07-15.18,0.26v-5l9.55-0.19v-0.26c-6.53-1.43-10.65-4.87-10.65-8.71
		c0-0.65,0.1-1.1,0.3-1.62h8.34c-0.2,0.58-0.3,1.17-0.3,1.95c0,4.03,4.72,6.89,11.36,7.67c1.21,0.13,2.61,0.26,4.12,0.26h25.93v5.65
		H208.66z"/>
	<path class="st6" d="M179.51,402.58h13.97v-8.19h6.73v8.19h26.23c6.03,0,9.45-1.1,9.45-4.29c0-1.49-0.3-2.6-0.6-3.31l6.63-0.26
		c0.7,1.1,1.21,2.86,1.21,5.07c0,2.66-1.31,4.81-3.72,6.17c-2.61,1.62-6.94,2.21-12.66,2.21h-26.53v4.87h-6.73v-4.87h-11.66
		L179.51,402.58z"/>
	<path class="st6" d="M228.86,361.64c5.03,0,9.45-0.06,13.27-0.26v5.07l-7.94,0.33v0.13c3.92,1.49,9.05,4.81,9.05,10.4
		c0,4.94-4.22,10.85-21.31,10.85h-28.44v-5.72h26.94c9.25,0,15.48-1.82,15.48-7.02c0-3.83-4.12-6.5-8.04-7.54
		c-1.31-0.33-2.91-0.52-4.52-0.52h-29.85v-5.72H228.86z"/>
	<path class="st6" d="M242.13,334.75L236,335.2v0.19c3.82,1.75,7.24,5.13,7.24,9.62c0,6.37-6.94,9.62-13.97,9.62
		c-11.76,0-18.19-6.76-18.09-18.91h-1c-4.02,0-11.26,0.71-11.26,7.15c0,2.92,1.41,5.98,3.62,8.19l-5.83,1.3
		c-2.61-2.6-4.32-6.37-4.32-10.33c0-9.62,10.15-11.95,19.9-11.95h18.19c4.22,0,8.34-0.13,11.66-0.52V334.75z M217.31,335.59
		c-0.2,6.24,1.51,13.32,10.96,13.32c5.73,0,8.44-2.47,8.44-5.39c0-4.09-4.02-6.69-8.14-7.6c-0.9-0.19-1.91-0.32-2.81-0.32H217.31z"
		/>
	<path class="st6" d="M170.77,320.84v-5.72h71.36v5.72H170.77z"/>
	<path class="st6" d="M206.65,291.74c-5.03,0-9.15,0.06-13.17,0.26v-5l7.84-0.26v-0.2c-4.62-1.75-8.95-4.68-8.95-9.88
		c0-4.29,4.02-7.54,9.75-8.9v-0.13c-2.71-0.97-4.82-2.21-6.33-3.51c-2.21-1.88-3.42-3.96-3.42-6.95c0-4.16,4.22-10.33,21.11-10.33
		h28.65v5.59h-27.54c-9.35,0-14.98,2.21-14.98,6.82c0,3.25,3.72,5.78,8.04,6.76c1.21,0.26,2.81,0.45,4.42,0.45h30.05v5.59h-29.15
		c-7.74,0-13.37,2.21-13.37,6.56c0,3.57,4.42,6.17,8.84,7.08c1.31,0.32,2.81,0.45,4.32,0.45h29.35v5.59H206.65z"/>
	<path class="st6" d="M242.13,220.14l-6.13,0.45v0.19c3.82,1.75,7.24,5.13,7.24,9.62c0,6.37-6.94,9.62-13.97,9.62
		c-11.76,0-18.19-6.76-18.09-18.91h-1c-4.02,0-11.26,0.71-11.26,7.15c0,2.92,1.41,5.98,3.62,8.19l-5.83,1.3
		c-2.61-2.6-4.32-6.37-4.32-10.33c0-9.62,10.15-11.96,19.9-11.96h18.19c4.22,0,8.34-0.13,11.66-0.52V220.14z M217.31,220.98
		c-0.2,6.24,1.51,13.32,10.96,13.32c5.73,0,8.44-2.47,8.44-5.39c0-4.09-4.02-6.69-8.14-7.6c-0.9-0.19-1.91-0.33-2.81-0.33H217.31z"
		/>
	<path class="st6" d="M240.32,183.82c1.21,1.49,2.81,4.81,2.81,9.03c0,9.49-9.95,15.66-24.83,15.66c-14.98,0-25.83-6.63-25.83-16.89
		c0-3.38,1.31-6.37,2.51-7.93l6.83,1.3c-1.21,1.36-2.31,3.51-2.31,6.63c0,7.21,8.24,11.11,18.39,11.11
		c11.26,0,18.19-4.68,18.19-10.92c0-3.25-1.31-5.39-2.41-7.02L240.32,183.82z"/>
	<path class="st6" d="M170.77,177.13v-5.72h30.35v-0.13c-2.51-0.91-4.72-2.34-6.23-4.09c-1.51-1.69-2.51-3.7-2.51-5.85
		c0-4.22,4.02-10.98,20.81-10.98h28.95v5.72h-27.94c-7.84,0-14.47,1.88-14.47,7.28c0,3.7,4.02,6.63,8.84,7.67
		c1.21,0.32,2.51,0.39,4.22,0.39h29.35v5.72H170.77z"/>
	<path class="st6" d="M179.82,134.7c3.02-0.06,5.43,1.36,5.43,3.64c0,2.01-2.41,3.44-5.43,3.44c-3.12,0-5.53-1.49-5.53-3.57
		C174.29,136.07,176.7,134.7,179.82,134.7z M242.13,141.07h-48.65v-5.72h48.65V141.07z"/>
	<path class="st6" d="M206.65,125.87c-5.03,0-9.15,0.07-13.17,0.26v-5.07l8.04-0.33v-0.13c-4.62-1.56-9.15-5.2-9.15-10.4
		c0-4.35,4.02-11.11,20.71-11.11h29.05v5.72h-28.04c-7.84,0-14.37,1.88-14.37,7.28c0,3.77,4.12,6.69,9.05,7.67
		c1.11,0.26,2.61,0.39,4.12,0.39h29.25v5.72H206.65z"/>
	<path class="st6" d="M219.42,86.62c11.96-0.13,16.89-5.07,16.89-10.79c0-4.09-1.11-6.56-2.51-8.71l6.33-0.97
		c1.41,2.01,3.02,5.46,3.02,10.46c0,9.68-9.85,15.46-24.52,15.46c-14.67,0-26.23-5.59-26.23-14.75c0-10.27,13.97-12.99,22.92-12.99
		c1.81,0,3.22,0.13,4.12,0.19V86.62z M213.08,69.86c-5.63-0.06-14.37,1.49-14.37,7.93c0,5.78,8.24,8.32,14.37,8.77V69.86z"/>
</g>
<g>
	<path class="st1" d="M1026.34,142.36c0.82,7.22,1.44,15.81,1.44,25.22c0,17.04-2.98,29.17-8.63,37.21
		c-5.65,8.18-13.66,12.95-24.86,12.95c-11.3,0-20.54-4.63-26.91-13.22c-6.47-8.59-9.96-22.76-9.96-40.62
		c0-8.45,0.31-15.54,0.82-21.54H1026.34z M965.12,154.22c-0.41,3-0.51,7.36-0.51,12c0,25.35,10.68,39.12,29.38,39.12
		c16.33,0.14,26.71-12.13,26.71-37.21c0-6.13-0.41-10.77-0.92-13.9H965.12z"/>
	<path class="st1" d="M983.3,292.98c-18.39,0-26.4-16.9-26.4-32.85c0-17.86,9.86-31.62,25.58-31.62c16.64,0,26.4,14.45,26.4,32.71
		C1008.88,280.16,998.5,292.98,983.3,292.98z M982.78,240.64c-10.89,0-19.11,8.31-19.11,20.04c0,11.45,8.12,20.04,19.31,20.04
		c8.42,0,19.11-5.59,19.11-19.76S992.23,240.64,982.78,240.64z"/>
	<path class="st1" d="M959.88,355.13c-1.23-3.14-2.88-10.09-2.88-18.95c0-19.9,10.17-32.85,25.37-32.85
		c15.31,0,26.4,13.9,26.4,35.44c0,7.09-1.34,13.36-2.57,16.63l-6.99-2.73c1.23-2.86,2.36-7.36,2.36-13.9
		c0-15.13-8.42-23.31-18.8-23.31c-11.5,0-18.59,9.81-18.59,22.9c0,6.81,1.34,11.31,2.47,14.72L959.88,355.13z"/>
	<path class="st1" d="M984.94,381.03v0.27c1.75,1.64,3.9,3.95,5.65,5.86l17.16,19.36v14.45l-20.44-25.49l-29.28,29.03v-14.58
		l23.83-22.76l-5.14-6.13h-18.7v-11.86h72.93v11.86H984.94z"/>
	<path class="st1" d="M981.24,439.77c-12.22,0.27-17.26,10.63-17.26,22.63c0,8.59,1.13,13.77,2.57,18.26l-6.47,2.04
		c-1.44-4.23-3.08-11.45-3.08-21.95c0-20.31,10.07-32.44,25.06-32.44s26.81,11.72,26.81,30.94c0,21.54-14.28,27.26-23.42,27.26
		c-1.85,0-3.29-0.27-4.21-0.41V439.77z M987.71,474.94c5.75,0.14,14.69-3.14,14.69-16.63c0-12.13-8.42-17.45-14.69-18.4V474.94z"/>
	<path class="st1" d="M992.23,501.38c5.86,0,10.89-0.14,15.51-0.54v10.5l-9.76,0.41v0.54c6.68,3,10.89,10.22,10.89,18.27
		c0,1.36-0.1,2.32-0.31,3.41h-8.53c0.21-1.23,0.31-2.45,0.31-4.09c0-8.45-4.83-14.45-11.61-16.08c-1.23-0.27-2.67-0.54-4.21-0.54
		h-26.5v-11.86H992.23z"/>
</g>
</svg>
